<svg xmlns="http://www.w3.org/2000/svg" viewBox="0 0 720 720"><defs><style>.cls-1{fill:#e8a628;}</style></defs><title>layer_2</title><g id="Слой_2" data-name="Слой 2"><g id="Слой_1-2" data-name="Слой 1"><path class="cls-1" d="M0,0V720H720V0ZM551.27,53.19a4.08,4.08,0,0,1-3,0ZM534.45,54.7c1.94,4.12,2.06,8.27,1.58,12.81,1.57-2,1.84-7.84,0-14.32h.19a20.1,20.1,0,0,1,4.54,11A8.65,8.65,0,0,1,539,70.29a3.43,3.43,0,0,1-3.7,1.17A3,3,0,0,1,533,69a9.14,9.14,0,0,1-.29-2.73c.24-2.16.64-4.29,1-6.43C533.93,58.09,534.18,56.4,534.45,54.7ZM340.78,53.19a11.56,11.56,0,0,1-2.88,0Zm-18,4.43c1.15,2.68,2.29,5.17,3.3,7.7.63,1.56,1.07,3.19,1.54,4.8a4,4,0,0,1,.11,1.25c0,1.34-.31,2.58-1.92,3.22a4.11,4.11,0,0,1-4-.48,5.46,5.46,0,0,1-1.95-2.23c-1.9-5-1-9.91,1.3-14.83-.32,5,.12,9.74,3,13.94a25.65,25.65,0,0,1-1.65-10.33C322.5,59.69,322.67,58.71,322.78,57.62Zm-21.63-4.43c.08.13.16.26.25.39a2.52,2.52,0,0,0,1.15.91c-.23-.43-.44-.87-.65-1.3H306c.13.37.26.74.38,1.11a3.8,3.8,0,0,1-.18,2.27A2.69,2.69,0,0,1,303,58.31a6.21,6.21,0,0,1-4.88-2.82,15,15,0,0,1-1.09-2.3Zm-248,93.87a44.46,44.46,0,0,0,22.69,2.83,60,60,0,0,1-22.69-5.39v-2.68l1.4,0c6.33,0,12.68-.07,19,.06a21.4,21.4,0,0,1,9.69,2.18c3.46,1.81,3.77,6.75.38,9.61-4.35,3.66-9,5.56-14.09,4.76a28.24,28.24,0,0,1-7.85-2.39,72.55,72.55,0,0,1-8.53-4.67v-4.33Zm0,69.66c5.42,1.74,10.84,1.67,13.22.49-2.64-.18-5.2-.32-7.74-.54a18.35,18.35,0,0,1-5.48-1.56v-1c3-.4,5.89-.81,8.8-1.15a16,16,0,0,1,6.49.34c3.55,1,4,3.4,1.28,6.47a7.34,7.34,0,0,1-6.92,2.41,21.92,21.92,0,0,1-9.65-3.77Zm0,15.44q1.31-.45,2.61-1c-.87.23-1.74.42-2.61.59v-4.91a12.92,12.92,0,0,1,5.89-.43c2.36.43,3.45,3.28,2,5.57-1.88,2.94-4.27,4.9-7.4,5.35l-.46.06Zm613.62-41.27c-3.32,4-7.26,6.86-12.36,7.34a5.34,5.34,0,0,1-2.87-.76,4.08,4.08,0,0,1-2.21-3.36c-.15-1.73.85-2.53,2-3.15a4.19,4.19,0,0,1,1.17-.46c1.65-.29,3.3-.62,5-.75,2.72-.23,5.46-.32,8.37-.47-.93.58-1.73,1.17-2.6,1.61a25.8,25.8,0,0,1-10,3.11c4.91.68,9.28-.95,13.48-3.33v.22Zm0-19.25a5.77,5.77,0,0,0-1.12-.77c.41.59.78,1.14,1.12,1.65v5.68l-.87-1c-.83-.9-1.57-1.91-2.34-2.88-1.67-2.1-2.24-4.68-2.74-7.27-.24-1.26.16-1.89,1.26-1.85a7.11,7.11,0,0,1,4.69,1.69v4.71Zm0-71.28c-4.92-5.53-10.73-10-14.27-10.51,9,7.07,11.32,9.81,14.27,13.92v2c-3.84-2.17-7.35-4.14-10.83-6.17-1.72-1-3.35-2.23-5-3.36-3.61-2.46-5.74-6.19-7.75-10-1-1.85-.66-3,1.06-3.49a11.32,11.32,0,0,1,9,.81c4.35,2.51,9.67,7.58,13.56,12.93Zm0-6.8a52.16,52.16,0,0,0-12.24-11.68,20.52,20.52,0,0,0-5.33-2.59c-3.46-1.09-6.35,0-7.89,2.74-1.44,2.51-.87,6.74,1.29,9.63a26.65,26.65,0,0,0,7.88,6.55c4.93,3,9.9,6,14.81,9,.5.32,1,.65,1.48,1v3.22l-34.62-1.86c-.9-2.55-1.77-5.48-3-8.3a54.9,54.9,0,0,0-13.5-19.7,26.13,26.13,0,0,0-6.59-4.32c-3.74-1.7-7.25-1.29-10.07,1.49-2.28,2.25-2.64,5.67-1,8.87s4.43,5.35,7.34,7.14c5.47,3.35,11,6.59,16.43,10,2.12,1.31,4.1,2.9,6,4.26-.07.52-.07.65-.1.76s-.1.26-.18.27l-30.66,2.76c-.58-1-1.26-2.09-1.83-3.23a49.59,49.59,0,0,0-12.62-16c-2.87-2.4-6-4.5-9.43-5.2a14.08,14.08,0,0,0-6.2.06c-2.5.68-4.56,2.4-4.54,5.59a8.43,8.43,0,0,0,4.07,7.07,53.84,53.84,0,0,0,8.28,4.23c4.31,1.84,8.71,3.37,13.05,5.14,1.78.72,3.5,1.72,5.78,2.86l-33.72,8.26c-2.2-3.05-4.13-6.15-6.45-8.87a38.43,38.43,0,0,0-13.64-10.1c-3.72-1.67-7.44-2.29-11.1-1a7.67,7.67,0,0,0-1.87.83c-4.53,3.1-4.25,8.21.86,11.41a32.92,32.92,0,0,0,8.47,3.58c4.9,1.4,9.86,2.34,14.8,3.54,1.74.42,3.45,1.06,5.89,1.83-1.41.64-2.17,1-3,1.34-6.25,2.51-12.49,5.06-18.78,7.48a20.74,20.74,0,0,1-5,1.12c-4.72.53-9.53.68-14.18,1.46a15.76,15.76,0,0,0-8.79,4.32,10.53,10.53,0,0,0-1.8,2.09c-1.72,2.94-.57,6.3,2.69,7.86a7.47,7.47,0,0,0,7.47-.14A87.38,87.38,0,0,0,523,143c3-2.33,5.6-5.15,8.73-7.2a66.42,66.42,0,0,1,10.06-5c2.72-1.17,5.6-2,8.42-3a5.1,5.1,0,0,1,1.41.11,24.67,24.67,0,0,1-6.37,5.87c-2.61,1.63-5.39,3-7.92,4.78a16.58,16.58,0,0,0-4.68,4.46c-2.65,4.16-1,9,3.68,11.35,4.35,2.19,8.17,1.57,11.3-1.63,6-6.17,8.4-14.25,8.44-23.47,0-.88-.11-1.77-.14-2.65,0-.11.09-.21.3-.68a183.63,183.63,0,0,1,30.63-7.14c-1.32,1.1-2.57,2.28-4,3.26s-3.17,1.83-4.65,2.9a97.73,97.73,0,0,0-8.92,6.9,12.58,12.58,0,0,0-3,5.08c-1.17,3.39.33,6.58,3.67,8.21,4.83,2.34,8.9,1.11,12.2-2.23,6.08-6.13,9.21-14,9.55-23.35,0-.61,0-1.23,0-2.15a161,161,0,0,1,31-3,39.17,39.17,0,0,1-3.35,3.11c-2.77,2-5.68,3.83-8.43,5.86s-5.27,4-7.75,6.22a12.27,12.27,0,0,0-2.68,3.62,7.51,7.51,0,0,0,5.64,10.86,10.75,10.75,0,0,0,6.76-1.11c5.87-2.83,9.16-8.19,11.79-14.15a31.41,31.41,0,0,0,2.54-15.12,162,162,0,0,1,35.08,1.62c-2.59,1.18-5.14,2.44-7.77,3.52-3.92,1.59-8,2.87-11.8,4.64a11.21,11.21,0,0,0-5.8,5.71,8,8,0,0,0,4,10.52,9.8,9.8,0,0,0,8.59.45,26,26,0,0,0,11.3-9.28,38.87,38.87,0,0,0,6-12.83V165a10.61,10.61,0,0,0-1.13-.9,3.89,3.89,0,0,0-5.13.18c-1.3,1.21-1.74,3.8-1,5.89a16.51,16.51,0,0,0,3.44,5.28l3.82,4.31v5.18l-16.65-6.16c-.06-1.65,0-3.53-.22-5.4a33.72,33.72,0,0,0-4.35-14,15.92,15.92,0,0,0-3.08-3.73,5.15,5.15,0,0,0-6.17-1,4.53,4.53,0,0,0-2.2,5,11.47,11.47,0,0,0,3,5.52c2.6,3,5.25,5.87,7.83,8.84,1,1.16,1.88,2.45,2.76,3.6a4.62,4.62,0,0,1-.2.42c0,.06-.11.14-.15.13l-18.5-4c-.16-.71-.36-1.46-.49-2.23a30.35,30.35,0,0,0-4.5-11.7,13.37,13.37,0,0,0-4.59-4.76,8.52,8.52,0,0,0-3.65-1.09A3.39,3.39,0,0,0,612,156.9a5.19,5.19,0,0,0,1.11,4.89,33.48,33.48,0,0,0,4.09,4c2.2,1.86,4.5,3.56,6.72,5.38.92.75,1.74,1.65,2.88,2.73l-21.29-1.28c-.74-2.19-1.31-4.36-2.18-6.38a23.61,23.61,0,0,0-6.17-8.4,9.08,9.08,0,0,0-6.33-2.63,4.68,4.68,0,0,0-1.24.15c-3.22,1-4,4-1.57,6.85a20.12,20.12,0,0,0,4.31,3.64c2.63,1.71,5.37,3.17,8.05,4.77.94.56,1.83,1.25,3.13,2.14-1,.12-1.47.21-2,.25-4.12.34-8.25.7-12.38,1a12.18,12.18,0,0,1-3.12-.25c-2.87-.54-5.72-1.33-8.59-1.72a9.77,9.77,0,0,0-5.95.94,6.49,6.49,0,0,0-1.43.9,3.33,3.33,0,0,0,.15,5.1,4.58,4.58,0,0,0,4.41,1.28A53.65,53.65,0,0,0,580,178.5c2.17-.83,4.22-2,6.43-2.64a40.08,40.08,0,0,1,6.82-1.11c1.81-.2,3.65-.16,5.48-.21a3.58,3.58,0,0,1,.81.32,15.2,15.2,0,0,1-4.81,2.29c-1.83.48-3.71.79-5.51,1.37a10.32,10.32,0,0,0-3.56,1.76c-2.31,2-2.21,5.11.09,7.34,2.16,2.07,4.52,2.4,6.93,1.1,4.67-2.53,7.52-6.84,9.22-12.25.16-.52.26-1.06.4-1.58,0-.07.09-.11.3-.35a113.48,113.48,0,0,1,19.28,1.38c-1,.41-1.93.87-2.93,1.2s-2.19.49-3.25.85a60.47,60.47,0,0,0-6.5,2.43,7.71,7.71,0,0,0-2.67,2.43,4,4,0,0,0,.65,5.49,6.05,6.05,0,0,0,7.57.91,20.66,20.66,0,0,0,9.85-12c.12-.35.22-.72.38-1.27a99.92,99.92,0,0,1,18.72,3.88,22.53,22.53,0,0,1-2.53,1.21c-2,.69-4,1.22-6,1.92s-3.83,1.4-5.68,2.24a7.4,7.4,0,0,0-2.23,1.64,4.6,4.6,0,0,0,1.34,7.39,6.55,6.55,0,0,0,4.16.58c4-.59,6.87-3.14,9.5-6.16a19.18,19.18,0,0,0,4.23-8.41,99,99,0,0,1,20.3,7.32c-1.73.22-3.46.5-5.2.66-2.59.22-5.2.23-7.77.57a6.9,6.9,0,0,0-4.44,2.3,4.92,4.92,0,0,0,.44,6.91,6,6,0,0,0,5,1.82,15.94,15.94,0,0,0,8.32-3.39,28.14,28.14,0,0,0,3.74-3.51V666.81h-120a152.83,152.83,0,0,1-31.71-8A188.86,188.86,0,0,1,468.44,634a181.11,181.11,0,0,1-35.95-34.63Q417.43,580.08,411,560.79a179.38,179.38,0,0,0,64.45-26.46A211.75,211.75,0,0,0,526,487.72a220.55,220.55,0,0,0,33.17-59.78A193.49,193.49,0,0,0,555.1,283.7,197.82,197.82,0,0,0,510.67,220q-28.35-27.18-66.93-43t-83.59-15.78q-45.31,0-83.89,15.78t-66.93,43A197.82,197.82,0,0,0,164.9,283.7a193,193,0,0,0-5,141.61,221,221,0,0,0,31,58.61,214.23,214.23,0,0,0,47.5,46.76,174.81,174.81,0,0,0,60.65,28.06,234.14,234.14,0,0,0,27,26.74,347.68,347.68,0,0,0,36.68,27.19,464,464,0,0,0,44.57,25.42,406.48,406.48,0,0,0,50.42,21.19q12.11,4.17,24.62,7.54H53.19v-428a13.24,13.24,0,0,0,3.56-1.12,10.89,10.89,0,0,0,5.66-6.39c1-2.78.11-5-2.34-5.69a14.21,14.21,0,0,0-3.74-.48,17.31,17.31,0,0,0-3.14.3V220a30,30,0,0,0,2.8,1.63,15.62,15.62,0,0,0,9.77,1.95,8.44,8.44,0,0,0,6.8-5.64,3.53,3.53,0,0,0-.5-3.93,5.85,5.85,0,0,0-2.28-1.47,19.81,19.81,0,0,0-8.77-.65c-2.61.25-5.22.51-7.82.72v-4.74c3.78-3.62,8.67-7.61,10.41-8.32.45.58.87,1.19,1.35,1.75,3.63,4.18,8,6.67,13.44,6.81a7.86,7.86,0,0,0,7.74-4.67c1-2,.64-3.73-1.07-4.83a7.6,7.6,0,0,0-1.93-.81,18.76,18.76,0,0,0-7.54-.39c-2.54.27-5.08.53-7.61.74a12.89,12.89,0,0,1-2.15-.16,113,113,0,0,1,23-13.25,22.85,22.85,0,0,0,6.72,8,15.86,15.86,0,0,0,8.32,3.39,6,6,0,0,0,5-1.82,4.91,4.91,0,0,0,.44-6.9,6.9,6.9,0,0,0-4.44-2.3c-2.57-.35-5.18-.36-7.77-.58-1.74-.15-3.46-.43-5.2-.66a99.58,99.58,0,0,1,20.3-7.32,19.2,19.2,0,0,0,4.24,8.41c2.62,3,5.53,5.57,9.49,6.17a6.55,6.55,0,0,0,4.16-.59,4.6,4.6,0,0,0,1.34-7.39,7.4,7.4,0,0,0-2.23-1.64c-1.85-.84-3.76-1.57-5.67-2.24s-4-1.23-6-1.91a21,21,0,0,1-2.53-1.22,99.1,99.1,0,0,1,18.72-3.87c.17.54.26.91.38,1.27a20.71,20.71,0,0,0,9.85,12,6.05,6.05,0,0,0,7.57-.91,4,4,0,0,0,.66-5.48,7.76,7.76,0,0,0-2.68-2.44,62.5,62.5,0,0,0-6.49-2.43c-1.07-.36-2.19-.5-3.26-.85s-1.95-.79-2.92-1.19A112.35,112.35,0,0,1,156,170.84c.21.23.29.28.3.34.14.53.24,1.07.4,1.58,1.7,5.41,4.55,9.72,9.22,12.25,2.42,1.3,4.77,1,6.93-1.1,2.31-2.22,2.41-5.37.1-7.33a10.25,10.25,0,0,0-3.56-1.77c-1.81-.58-3.69-.88-5.52-1.37a15.17,15.17,0,0,1-4.81-2.28c.43-.18.63-.33.82-.32,1.82,0,3.66,0,5.47.2a40.93,40.93,0,0,1,6.82,1.11c2.21.63,4.26,1.81,6.43,2.64a53.65,53.65,0,0,0,5.39,1.73,4.56,4.56,0,0,0,4.41-1.28,3.33,3.33,0,0,0,.15-5.1,7.32,7.32,0,0,0-1.43-.9,9.84,9.84,0,0,0-5.95-.94c-2.87.4-5.72,1.18-8.59,1.72a12.18,12.18,0,0,1-3.12.25c-4.13-.27-8.26-.63-12.38-1-.52-.05-1-.13-2-.26,1.29-.89,2.18-1.57,3.12-2.14,2.68-1.6,5.42-3.05,8-4.76a20.47,20.47,0,0,0,4.31-3.65c2.42-2.81,1.65-5.86-1.57-6.85a4.63,4.63,0,0,0-1.24-.15,9.13,9.13,0,0,0-6.33,2.63,23.65,23.65,0,0,0-6.17,8.41c-.86,2-1.44,4.18-2.17,6.38l-21.29,1.28c1.13-1.09,1.95-2,2.87-2.73,2.22-1.83,4.53-3.53,6.72-5.39a32.77,32.77,0,0,0,4.09-4,5.19,5.19,0,0,0,1.11-4.89,3.39,3.39,0,0,0-3.68-2.45,8.56,8.56,0,0,0-3.65,1.09,13.37,13.37,0,0,0-4.59,4.76,30.51,30.51,0,0,0-4.5,11.7c-.13.77-.33,1.53-.49,2.23l-18.5,3.95s-.11-.07-.14-.12a2.62,2.62,0,0,1-.2-.43c.87-1.15,1.75-2.44,2.75-3.59,2.58-3,5.23-5.88,7.83-8.85a11.38,11.38,0,0,0,3-5.52,4.53,4.53,0,0,0-2.19-5,5.18,5.18,0,0,0-6.18,1,16,16,0,0,0-3.08,3.74,33.63,33.63,0,0,0-4.35,14c-.18,1.87-.16,3.75-.22,5.41l-22.76,8.41c1-1.35,1.9-2.62,2.89-3.76,2.32-2.7,4.7-5.32,7-8a16.4,16.4,0,0,0,3.44-5.28c.74-2.09.31-4.68-1-5.89a3.88,3.88,0,0,0-5.13-.17,12.52,12.52,0,0,0-2.66,2.49,32.25,32.25,0,0,0-5.65,10.84c-1.08,3.61-1.77,7.28-1,10.87-4.32,2.44-8.51,4.64-12.54,7.15s-7.83,5.27-11.73,7.93a77.79,77.79,0,0,1,3.07-9.88c1.33-3.58,2.88-7.08,3.56-10.88a12,12,0,0,0,.2-3.53c-.29-2.3-1.88-3.56-3.93-3.05a7.62,7.62,0,0,0-3,1.65,10,10,0,0,0-3,5.53,60.84,60.84,0,0,0-1.29,8c-.33,4.59.13,9,2.35,12.92a2.23,2.23,0,0,1,.17.64l-4.22,4.15V154.49a39.33,39.33,0,0,0,9.64,4.87,23.52,23.52,0,0,0,11.35,1.27,17.65,17.65,0,0,0,11.87-7.21c2.88-3.84,2.58-7.76-.9-10a23.49,23.49,0,0,0-5.58-2.55c-5.43-1.7-11.25-1.33-17-1.43-3.13-.05-6.26-.19-9.38-.35v-8.34c5.66-4.12,11.35-8,17.29-11.45a7.75,7.75,0,0,1,.75,1.38c1.84,5.92,5.37,10.48,9.51,14.55S89.28,142.18,95,143c5.09.72,9.58-.92,13.29-5.5,1.68-2.06,2.1-4.25,1.11-6.34a9.51,9.51,0,0,0-2.83-3.39c-3.9-2.94-8.55-4.25-13.32-5.23s-9.72-2-14.53-3.12a28.75,28.75,0,0,1-4.46-1.86c5.79-4.32,24.44-12.58,29-13,.41,1.12.77,2.28,1.24,3.36,3.64,8.26,9.31,14.26,17.61,17.07a12.77,12.77,0,0,0,14.29-3.54c2.55-2.67,2.79-5.49.66-8a12.2,12.2,0,0,0-2.61-2.19c-3.45-2.35-7.44-3.42-11.53-4.23s-8.15-1.62-12.2-2.52a21.39,21.39,0,0,1-3.26-1.28,183.84,183.84,0,0,1,42.12-9.53,37,37,0,0,0,6.59,15.67,26,26,0,0,0,11.29,9.28,9.83,9.83,0,0,0,8.6-.45,8,8,0,0,0,4-10.52,11.16,11.16,0,0,0-5.79-5.71c-3.83-1.77-7.89-3-11.8-4.64-2.63-1.08-5.18-2.34-7.77-3.52a162,162,0,0,1,35.08-1.62,31.29,31.29,0,0,0,2.54,15.12c2.63,6,5.92,11.32,11.79,14.15a10.73,10.73,0,0,0,6.75,1.11,7.51,7.51,0,0,0,5.65-10.86,12.27,12.27,0,0,0-2.68-3.62c-2.48-2.19-5.09-4.25-7.75-6.22s-5.66-3.84-8.43-5.86a36.29,36.29,0,0,1-3.35-3.11,161,161,0,0,1,31,3c0,.92,0,1.54,0,2.15.34,9.37,3.47,17.22,9.54,23.35,3.31,3.34,7.38,4.57,12.21,2.23,3.34-1.63,4.84-4.83,3.66-8.21a12.49,12.49,0,0,0-3-5.08,97.73,97.73,0,0,0-8.92-6.9c-1.48-1.08-3.17-1.84-4.66-2.9s-2.65-2.16-4-3.26a183.63,183.63,0,0,1,30.63,7.14c.21.46.31.57.3.68,0,.88-.14,1.77-.14,2.64,0,9.23,2.39,17.31,8.43,23.48,3.13,3.19,6.95,3.82,11.31,1.63,4.66-2.35,6.33-7.19,3.68-11.35a16.89,16.89,0,0,0-4.68-4.47c-2.53-1.76-5.31-3.14-7.92-4.77a24.56,24.56,0,0,1-6.37-5.88,5,5,0,0,1,1.41-.1c2.82.95,5.7,1.77,8.42,2.95a66.42,66.42,0,0,1,10.06,5c3.13,2,5.76,4.87,8.73,7.2a89.64,89.64,0,0,0,7.55,5.29,7.45,7.45,0,0,0,7.47.13c3.26-1.55,4.41-4.91,2.69-7.86a10.76,10.76,0,0,0-1.8-2.08,15.76,15.76,0,0,0-8.79-4.32c-4.65-.78-9.46-.93-14.18-1.46a20.74,20.74,0,0,1-5-1.12c-6.29-2.42-12.53-5-18.78-7.48-.79-.32-1.55-.7-3-1.35,2.44-.76,4.15-1.4,5.89-1.82,4.93-1.21,9.9-2.14,14.8-3.54a32.92,32.92,0,0,0,8.47-3.58c5.11-3.2,5.39-8.32.86-11.41a7.7,7.7,0,0,0-1.87-.84c-3.66-1.24-7.38-.62-11.1,1a38.43,38.43,0,0,0-13.64,10.1c-2.32,2.72-4.25,5.81-6.45,8.87l-33.72-8.26c2.28-1.14,4-2.14,5.78-2.86,4.34-1.77,8.74-3.3,13.05-5.14a53.84,53.84,0,0,0,8.28-4.23,8.45,8.45,0,0,0,4.07-7.07c0-3.19-2-4.91-4.54-5.59a14.08,14.08,0,0,0-6.2-.06c-3.49.7-6.56,2.8-9.43,5.2a49.59,49.59,0,0,0-12.62,16c-.57,1.13-1.25,2.21-1.83,3.23l-30.67-2.76c-.07,0-.13-.17-.17-.27a6.93,6.93,0,0,1-.1-.76c1.91-1.36,3.89-3,6-4.26,5.44-3.38,11-6.62,16.43-10,2.91-1.79,5.64-3.86,7.34-7.14s1.29-6.63-1-8.87c-2.81-2.78-6.32-3.2-10.06-1.49a26.13,26.13,0,0,0-6.59,4.32,54.82,54.82,0,0,0-13.5,19.7c-1.18,2.82-2,5.75-2.95,8.3l-39.43,2.12c2.24-1.6,4.21-3.15,6.29-4.46,4.91-3.07,9.88-6,14.81-9a26.65,26.65,0,0,0,7.88-6.55c2.16-2.89,2.73-7.13,1.29-9.64-1.54-2.68-4.43-3.82-7.89-2.73a20.37,20.37,0,0,0-5.33,2.59,52.34,52.34,0,0,0-14,14.14c-3.42,5.09-6.26,10.45-6.86,16.39C133.59,92.62,126,94,118.54,96s-14.7,4.44-22,6.69A128.25,128.25,0,0,1,106,88.77c3.8-4.91,7.89-9.61,10.77-15.19a19.77,19.77,0,0,0,2-5.39c.67-3.72-1.2-6.45-4.64-6.64a12.24,12.24,0,0,0-5.52,1.11,16.29,16.29,0,0,0-7.31,7.15,100,100,0,0,0-5.86,11.83c-2.71,7-4.13,14.09-2.57,21.21a3.07,3.07,0,0,1,0,1.08L64,118.82c.74-1.31,1.41-2.68,2.25-3.93C72,106.42,77.77,98,83.47,89.48a23.4,23.4,0,0,0,4.21-10.67c.36-3.65-1.22-5.59-4.56-5.86a10.39,10.39,0,0,0-6.56,1.68,19.57,19.57,0,0,0-5.94,5.94A72.21,72.21,0,0,0,62.23,99.3c-2.27,7.48-3.52,15-2.2,22.26l-6.84,5.11V53.19H279.93a9.32,9.32,0,0,0,4.89.81,4.15,4.15,0,0,0,2.27-.81h8.46a16.31,16.31,0,0,0,.67,1.65,7.82,7.82,0,0,0,7.63,4.86c2.26,0,3.62-1.08,3.84-3.1a7.31,7.31,0,0,0-.13-2.09,9.72,9.72,0,0,0-.3-1.32h13.8l.72.6a23,23,0,0,0-4.18,9.58,15.94,15.94,0,0,0,.67,8.95A6,6,0,0,0,322.11,76a4.92,4.92,0,0,0,6.38-2.68,6.91,6.91,0,0,0,.08-5c-.83-2.45-2-4.8-2.94-7.21-.63-1.63-1.15-3.3-1.72-5A99.39,99.39,0,0,1,339.49,71a19.36,19.36,0,0,0-5.65,7.54c-1.53,3.69-2.53,7.42-1.3,11.24a6.6,6.6,0,0,0,2.38,3.47,4.61,4.61,0,0,0,7.22-2.09,7.6,7.6,0,0,0,.47-2.72c-.07-2-.26-4.07-.51-6.09s-.7-4.15-1-6.23a23.89,23.89,0,0,1,0-2.81,98.74,98.74,0,0,1,11.8,15c-.41.39-.7.64-1,.91a20.64,20.64,0,0,0-6.34,14.14,6,6,0,0,0,4.18,6.38A4,4,0,0,0,355,108a7.74,7.74,0,0,0,1-3.49,61.42,61.42,0,0,0-.72-6.89c-.14-1.11-.52-2.19-.68-3.3s-.16-2.09-.23-3.14a113.51,113.51,0,0,1,9.81,16.65,1.93,1.93,0,0,1-.18.42c-.41.36-.85.69-1.23,1.06-4.09,3.93-6.69,8.4-6.87,13.7-.1,2.75,1.24,4.71,4.06,5.72,3,1.08,5.88-.23,6.61-3.17a10.25,10.25,0,0,0,0-4c-.28-1.87-.85-3.69-1.23-5.55a15.22,15.22,0,0,1-.09-5.32c.35.31.57.42.65.59.77,1.65,1.63,3.28,2.26,5a40.86,40.86,0,0,1,2,6.6c.42,2.26.28,4.63.5,6.93a55.8,55.8,0,0,0,.84,5.61,4.59,4.59,0,0,0,3.11,3.37,3.33,3.33,0,0,0,4.64-2.13,6.31,6.31,0,0,0,.16-1.68,9.71,9.71,0,0,0-1.8-5.75c-1.63-2.39-3.6-4.6-5.36-6.92a12.53,12.53,0,0,1-1.61-2.69c-1.59-3.82-3.1-7.68-4.64-11.52-.19-.49-.34-1-.65-1.89,1.37.76,2.38,1.25,3.31,1.85,2.62,1.68,5.15,3.5,7.84,5.08a20.2,20.2,0,0,0,5.19,2.25c3.59.92,6-1.13,5.43-4.45a4.33,4.33,0,0,0-.42-1.19,9.09,9.09,0,0,0-5.16-4.49,23.61,23.61,0,0,0-10.28-1.79c-2.19.12-4.39.57-6.68.89L354,85.84c1.48.53,2.65.87,3.73,1.36,2.62,1.18,5.17,2.48,7.81,3.63a34.4,34.4,0,0,0,5.39,1.89,5.22,5.22,0,0,0,4.88-1.19,3.43,3.43,0,0,0,.56-4.39,8.63,8.63,0,0,0-2.61-2.78,13.27,13.27,0,0,0-6.3-2,30.26,30.26,0,0,0-12.48,1.17c-.74.23-1.51.38-2.21.56L341,69.29s0-.13.05-.19a2.74,2.74,0,0,1,.29-.37c1.42.27,3,.48,4.44.86,3.82,1,7.59,2.08,11.4,3.09a11.55,11.55,0,0,0,6.29.24A4.52,4.52,0,0,0,367,68.71a5.15,5.15,0,0,0-3.6-5.1,15.64,15.64,0,0,0-4.71-1.1,33.69,33.69,0,0,0-14.49,2.34c-1.75.67-3.43,1.53-4.94,2.21-4.93-4.66-9.78-9.22-14.71-13.87h8.69l3.3.89a16.41,16.41,0,0,0,6.26.73,6.65,6.65,0,0,0,3.55-1.62H528.82l-7.52,9.47c-.7-.17-1.47-.33-2.22-.55a30.37,30.37,0,0,0-12.47-1.18,13.49,13.49,0,0,0-6.31,2,8.63,8.63,0,0,0-2.6,2.79,3.39,3.39,0,0,0,.56,4.38,5.17,5.17,0,0,0,4.87,1.19,33.07,33.07,0,0,0,5.39-1.89c2.65-1.14,5.19-2.45,7.81-3.63,1.08-.48,2.25-.82,3.73-1.36L509.44,82.9c-2.29-.31-4.48-.76-6.68-.88a23.56,23.56,0,0,0-10.27,1.78,9.1,9.1,0,0,0-5.17,4.5,4.62,4.62,0,0,0-.42,1.18c-.54,3.33,1.85,5.37,5.44,4.45a20.46,20.46,0,0,0,5.18-2.24c2.7-1.59,5.22-3.4,7.84-5.09.93-.59,1.94-1.08,3.32-1.84-.32.9-.47,1.4-.66,1.88-1.53,3.85-3,7.7-4.63,11.53a12.27,12.27,0,0,1-1.62,2.68c-1.76,2.33-3.73,4.53-5.36,6.93a9.75,9.75,0,0,0-1.8,5.74,6.88,6.88,0,0,0,.17,1.69,3.33,3.33,0,0,0,4.63,2.13,4.58,4.58,0,0,0,3.11-3.38,55.63,55.63,0,0,0,.85-5.6c.22-2.31.08-4.67.49-6.93a40.59,40.59,0,0,1,2-6.6c.63-1.71,1.48-3.34,2.25-5,.08-.17.3-.28.65-.58a15.22,15.22,0,0,1-.09,5.32c-.38,1.85-.95,3.67-1.23,5.55a10.2,10.2,0,0,0,0,4c.73,2.94,3.59,4.25,6.61,3.17,2.82-1,4.16-3,4.07-5.71-.18-5.31-2.78-9.78-6.87-13.71-.39-.37-.83-.7-1.24-1.06-.05,0-.06-.13-.17-.42a111.77,111.77,0,0,1,9.81-16.65c-.07,1.05-.08,2.11-.23,3.15s-.54,2.18-.69,3.29a59.31,59.31,0,0,0-.71,6.9,7.61,7.61,0,0,0,1,3.48,4,4,0,0,0,5.2,1.85A6.06,6.06,0,0,0,528.44,82a20.74,20.74,0,0,0-6.35-14.15c-.26-.27-.55-.52-1-.9a100.75,100.75,0,0,1,10.6-13.78H533a9.87,9.87,0,0,1-.06,1.54c-.27,2.09-.7,4.15-1,6.24s-.45,4-.52,6.08a7.37,7.37,0,0,0,.48,2.72,4.6,4.6,0,0,0,7.21,2.09,6.57,6.57,0,0,0,2.38-3.47c1.23-3.81.23-7.55-1.3-11.24a18.54,18.54,0,0,0-2.24-4h8.43a4.92,4.92,0,0,0,5.54,1.34,6.94,6.94,0,0,0,2.3-1.34h112.6Zm-2.56,26.07c-3.23,8.23-8.06,14.84-16,18.17a8.81,8.81,0,0,1-4.82.2,6.65,6.65,0,0,1-5.06-4.16c-1.06-2.62.1-4.35,1.63-5.88a6.73,6.73,0,0,1,1.6-1.28c2.43-1.24,4.84-2.55,7.38-3.57,4.12-1.66,8.34-3.11,12.79-4.75-1.17,1.35-2.13,2.65-3.26,3.74-4.15,4-8.56,7.58-14,9.65C652.63,130.42,658.74,125.57,664.25,119.63Zm-40.06-16.06C617,99.29,610,94.76,603,90.2c-2.75-1.8-3.35-4.38-2.88-7.33.63-3.88,3-5.35,6.6-3.84a23.51,23.51,0,0,1,4.53,2.63c8.2,5.88,13.92,13.83,17.9,23.4-8-10-16.24-15.88-22.56-18.25C613.09,91.56,619.22,96.81,624.19,103.57Zm.76,15.34c-1,7.49-3.86,14.17-8,18.45-2.49,2.61-5.38,4.6-9.15,4.89a5.57,5.57,0,0,1-5.52-3.06,4.81,4.81,0,0,1,.3-5.58,14.75,14.75,0,0,1,2.9-3.41c2.81-2.14,5.77-4.06,8.67-6.07l6.87-4.79c-2.66,6.91-7.42,11.72-13.31,16.24C612,135.19,619.35,128.71,625,118.91Zm-35.27-10.29c-5.16-1.75-9.69-3.15-14.14-4.84-3.08-1.16-6.21-2.38-8.75-4.91-3-3-2.38-7.07,1.24-8.17a9.06,9.06,0,0,1,6.59.64c7.21,3.37,12.56,9.11,17.14,15.81-8.31-6.73-16-10.81-20.08-10.17A64.4,64.4,0,0,1,589.68,108.62Zm-.68,14.8c.19.5.36.73.33.89a31.1,31.1,0,0,1-7.55,15.47c-2,2.27-4.51,3.89-7.8,3.78a5.35,5.35,0,0,1-5.06-7.34,7.93,7.93,0,0,1,2.54-3.67c4.87-3.53,9.9-6.83,14.86-10.22l.52.59c-1.94,2.75-3.71,5.65-5.86,8.18s-4.53,4.47-6.81,6.68C580.7,134.87,585.48,130,589,123.42Zm-36.73-4.74c-7-1.45-13.89-3.07-20.77-5a9.63,9.63,0,0,1-4.31-2.76c-2.64-3-2.23-5.25.94-6.75a11.45,11.45,0,0,1,11,.69c3.87,2.22,7.5,5,11.19,7.66a8.72,8.72,0,0,1,1.45,1.79c-6.41-3.3-12.78-5.32-19.51-5.09C539.34,111.07,546.15,113.73,552.27,118.68ZM554,132.5c-.88,6.8-3.09,12.92-7.28,17.89a7.42,7.42,0,0,1-7,3c-2.89-.41-4.34-2.77-5.58-5.24-1.12-2.24-.18-3.85,1.16-5.29,4.2-4.5,9.83-6.66,15-9.65-2.11,6.2-6.27,10.57-10.39,15C546.28,144.72,550.57,139.16,554,132.5ZM525.14,137l.5.56c-2.73,2.42-5.45,4.87-8.19,7.27a8.67,8.67,0,0,1-7,2.32c-1.21-.14-2.53-.49-2.8-2.06-.36-2.17-.39-4.45,1.36-5.73,4.87-3.56,10.58-4.78,16.71-4.63-1.8,1-3.72,1.7-5.55,2.59a53.6,53.6,0,0,0-5.08,2.84c-1.62,1-3.57,1.73-4.63,4.45Zm121.42,36.76c-3.43-3.82-6.73-7.76-10-11.71a4.1,4.1,0,0,1-.36-4.82c1.08-2.17,2.73-2.6,4.57-1.06a14.5,14.5,0,0,1,2.18,2.37,32.47,32.47,0,0,1,6.26,17c-2.9-7.34-6.65-12.28-9.93-14.82A48.17,48.17,0,0,1,646.56,173.78Zm-2.34,9.14a20.37,20.37,0,0,1-8,9.38,8.6,8.6,0,0,1-6.26,1.2,3.42,3.42,0,0,1-2.69-2.79,3,3,0,0,1,1.2-3.22,9,9,0,0,1,2.32-1.48c2-.74,4.12-1.33,6.19-2l4.91-1.56C639,186,635.38,188,631.1,189.57,633.63,190.11,639.15,187.65,644.22,182.92Zm-18.83-12.46c-2.71-2-5.11-3.61-7.42-5.4a14.48,14.48,0,0,1-4.25-4.48c-1.21-2.28-.1-4.58,2.22-4.57a5.56,5.56,0,0,1,3.75,1.58c3.62,3.28,5.72,7.63,7.19,12.39-3.66-5.46-7.41-9.24-9.94-9.61A39.48,39.48,0,0,1,625.39,170.46ZM622.3,179c0,.33.08.49,0,.58a19.06,19.06,0,0,1-7.24,7.71,6.05,6.05,0,0,1-5.27.8,3.29,3.29,0,0,1-1.63-5.23,4.77,4.77,0,0,1,2.16-1.69c3.5-1.19,7-2.21,10.58-3.3.06.15.13.3.19.44-1.63,1.26-3.2,2.65-4.92,3.74s-3.47,1.8-5.21,2.68A19.09,19.09,0,0,0,622.3,179Zm-20.7-9.46c-3.83-2.12-7.59-4.32-11.28-6.68a5.91,5.91,0,0,1-2-2.41c-1-2.22-.36-3.49,1.78-3.79a7,7,0,0,1,6.29,2.39c1.87,2,3.49,4.32,5.18,6.53a5.19,5.19,0,0,1,.52,1.32,24.23,24.23,0,0,0-10.52-6.54A31.17,31.17,0,0,1,601.6,169.57ZM600.09,178a20.8,20.8,0,0,1-7.52,9.18,4.58,4.58,0,0,1-4.66.46c-1.62-.77-2-2.41-2.32-4.09a2.62,2.62,0,0,1,1.64-2.89c3.29-1.88,7-2.13,10.56-2.94-2.37,3.26-5.61,5.07-8.83,6.91C593.35,183.76,596.88,181.28,600.09,178Zm-17.74-2.58c.06.13.12.27.19.41-2,.93-4.08,1.87-6.13,2.78a5.32,5.32,0,0,1-4.53.09c-.69-.3-1.4-.75-1.27-1.71.18-1.35.58-2.69,1.84-3.12a16.17,16.17,0,0,1,10.65.32c-1.24.25-2.49.32-3.73.51a34.53,34.53,0,0,0-3.5.74c-1.13.31-2.41.37-3.52,1.77ZM360.15,547.34q-33.91,0-59.63-13.89a122.77,122.77,0,0,1-43-38.72q-17.24-24.84-26-58.75t-8.77-74.24q0-40,8.77-73.36t26-57.44a120.08,120.08,0,0,1,43-37.41q25.73-13.29,59.63-13.3,33,0,58.6,13.3a123,123,0,0,1,43.11,37.41q17.53,24.12,26.6,57.44t9.06,73.36q0,40.33-9.21,72.92t-26.74,56.41a136.16,136.16,0,0,1-43.11,38.29Q392.87,543.84,360.15,547.34ZM57.29,196.74a6,6,0,0,1-.59-1.09,34.8,34.8,0,0,1,.2-15.06,11.71,11.71,0,0,1,2.39-4.84c1.47-1.72,3.64-1.86,4.91-.36a4.34,4.34,0,0,1,.74,3.52,31.69,31.69,0,0,1-2.3,7.51c-1.3,3.15-2.59,6.31-4,9.87A45.46,45.46,0,0,1,62,179.12,31.73,31.73,0,0,0,57.29,196.74Zm10.51,3.07c3.57-.46,6.8-.95,10-1.24a19.06,19.06,0,0,1,4.59.21,3.77,3.77,0,0,1,2,1.18,2.68,2.68,0,0,1,.15,3.61,6.25,6.25,0,0,1-4.69,3.12c-5.09.33-9.28-2-13-5.41a25.81,25.81,0,0,0,12.78,1.65,2.51,2.51,0,0,0,1.32-.63A28.34,28.34,0,0,1,67.8,199.81Zm16.83-18.9c-.65-4.81,3.19-13.45,6.73-17.27a7,7,0,0,1,5.12-2.11c1.1,0,1.5.6,1.26,1.86-.49,2.59-1.06,5.17-2.73,7.27-.78,1-1.51,2-2.34,2.88-2,2.21-4.08,4.36-6.42,6.85,1.56-4.62,1.68-6,6.66-13.22C90.15,168.51,86.19,175.09,84.63,180.91Zm10.65,6.27c-.86-.44-1.66-1-2.59-1.61,2.91.16,5.64.24,8.37.47,1.67.14,3.32.47,5,.75a4.16,4.16,0,0,1,1.17.47c1.18.61,2.17,1.42,2,3.14a4.11,4.11,0,0,1-2.22,3.37,5.37,5.37,0,0,1-2.86.76c-5.28-.51-9.32-3.51-12.71-7.76,4.31,2.49,8.78,4.22,13.83,3.52A25.68,25.68,0,0,1,95.28,187.18Zm14.14-15.34a32.4,32.4,0,0,1,6.25-17,14.06,14.06,0,0,1,2.19-2.36c1.84-1.55,3.49-1.11,4.56,1a4.07,4.07,0,0,1-.36,4.82c-3.28,3.95-6.59,7.89-10,11.71a47.59,47.59,0,0,1,7.3-13C116.07,159.57,112.31,164.5,109.42,171.84Zm7.32,6.92,4.91,1.56c2.06.66,4.15,1.24,6.19,2a8.85,8.85,0,0,1,2.32,1.48,2.94,2.94,0,0,1,1.19,3.21,3.41,3.41,0,0,1-2.68,2.8,8.64,8.64,0,0,1-6.26-1.2,20.28,20.28,0,0,1-8-9.39c5.06,4.74,10.58,7.19,13.12,6.66C123.23,184.29,119.56,182.33,116.74,178.76Zm15-12.48c1.47-4.77,3.56-9.11,7.18-12.4a5.54,5.54,0,0,1,3.76-1.57c2.32,0,3.43,2.28,2.21,4.57a14.3,14.3,0,0,1-4.24,4.47c-2.31,1.8-4.71,3.45-7.42,5.41a39.5,39.5,0,0,1,8.44-10.1C139.14,157,135.39,160.81,131.73,166.28Zm10.68,12.1c-1.72-1.1-3.29-2.48-4.93-3.74l.2-.44c3.53,1.08,7.08,2.11,10.58,3.29a5,5,0,0,1,2.16,1.69,3.29,3.29,0,0,1-1.64,5.23,6,6,0,0,1-5.27-.8,19.14,19.14,0,0,1-7.23-7.7c-.05-.09,0-.25,0-.59a19.07,19.07,0,0,0,11.31,5.73C145.88,180.17,144.06,179.42,142.41,178.38ZM160.82,174c3.57.81,7.27,1.06,10.55,2.93a2.63,2.63,0,0,1,1.64,2.9c-.27,1.67-.69,3.32-2.31,4.09a4.58,4.58,0,0,1-4.66-.46,20.8,20.8,0,0,1-7.52-9.18c3.2,3.29,6.73,5.77,11.13,6.63C166.42,179.07,163.19,177.26,160.82,174Zm21.91-2.28a32.37,32.37,0,0,0-3.49-.75c-1.24-.18-2.5-.25-3.74-.51a16.24,16.24,0,0,1,10.65-.32c1.26.43,1.66,1.78,1.84,3.12.13,1-.58,1.41-1.26,1.72a5.39,5.39,0,0,1-4.53-.09c-2-.92-4.09-1.86-6.13-2.79.06-.13.13-.27.19-.41l10,1.8C185.14,172.09,183.87,172,182.73,171.73Zm-26.19-8.51a5.68,5.68,0,0,1,.52-1.31c1.7-2.21,3.31-4.52,5.18-6.53a7.05,7.05,0,0,1,6.3-2.4c2.14.31,2.79,1.57,1.78,3.8a5.89,5.89,0,0,1-2,2.4c-3.69,2.36-7.46,4.57-11.29,6.68a31.24,31.24,0,0,1,10.06-9.17A24.21,24.21,0,0,0,156.54,163.22ZM62.47,108.5a73.55,73.55,0,0,1,4.49-17,36.49,36.49,0,0,1,6.89-12.06,10.79,10.79,0,0,1,6.77-3.6c3.27-.44,5.26,1.33,4.8,4.85A19.33,19.33,0,0,1,83,87.87c-2.43,4-5.33,7.63-8.08,11.39-3.51,4.79-7.07,9.56-11,14.84A109,109,0,0,1,76.38,85C70,91.79,66,100,62.47,108.5ZM87.3,128.82c-3.85-1.56-6.88-4.36-10.15-7,5.85,1,11.48,1.88,17.08,2.91a26,26,0,0,1,9.92,3.67c5,3.34,4.61,7.22-1.11,10.67a11.94,11.94,0,0,1-11.92.42,35.32,35.32,0,0,1-17.25-17.16c8.49,8,20,11.93,25.21,11.11C95.05,131.83,91.15,130.38,87.3,128.82Zm7.45-31.65a9.92,9.92,0,0,1-.39-2,56.75,56.75,0,0,1,7.56-23.32,18.94,18.94,0,0,1,6-6.37c3.11-2,6.55-1.15,7.8,1.79.8,1.91.38,3.88-.54,5.84A50.59,50.59,0,0,1,108,83.7c-3.53,4.27-7,8.56-11,13.39,2.87-9.72,7.72-17.63,13.53-25.06A51.59,51.59,0,0,0,94.75,97.17ZM109.62,107c5.77,1,11,1.81,16.18,2.91a31.16,31.16,0,0,1,7,2.54,6.26,6.26,0,0,1,2.47,2.77c1.05,2.05.45,4.07-1.51,5.69-2.71,2.23-5.8,3.3-8.8,2.58-8.08-1.93-13.47-7.54-17.68-14.69a42,42,0,0,0,19.07,8.72,4.06,4.06,0,0,0,2.36-.34C121.77,115.12,115.31,112.25,109.62,107Zm35.27-21.26c1.29-7.8,11.42-19.38,18.77-23.61a11.32,11.32,0,0,1,9-.82c1.72.47,2,1.65,1.06,3.5-2,3.78-4.14,7.52-7.75,10-1.67,1.14-3.3,2.36-5,3.36-4.2,2.46-8.45,4.82-13.28,7.55,4.64-6.43,5.5-8.5,16.72-17.33C159.43,69.1,150.1,77.42,144.89,85.73Zm13.53,14.87c-1.13-1.1-2.09-2.39-3.26-3.75,4.45,1.64,8.66,3.09,12.79,4.75,2.53,1,4.94,2.33,7.38,3.57a6.53,6.53,0,0,1,1.59,1.29c1.54,1.53,2.7,3.25,1.64,5.87a6.65,6.65,0,0,1-5.06,4.16,8.71,8.71,0,0,1-4.82-.2c-8-3.32-12.79-9.94-16-18.17,5.5,5.94,11.61,10.79,19.8,12.12C167,108.17,162.56,104.58,158.42,100.6Zm29.36-17c4-9.58,9.71-17.53,17.9-23.41a24.06,24.06,0,0,1,4.54-2.62c3.6-1.51,6-.05,6.59,3.84.48,2.95-.12,5.53-2.88,7.32-7,4.56-14,9.09-21.21,13.38,5-6.77,11.1-12,17.63-16.77C204,67.67,195.82,73.54,187.78,83.56Zm8.06,14.27,6.87,4.79c2.9,2,5.86,3.93,8.67,6.08a14.55,14.55,0,0,1,2.9,3.41,4.84,4.84,0,0,1,.31,5.58,5.58,5.58,0,0,1-5.53,3c-3.77-.29-6.66-2.28-9.15-4.88-4.09-4.28-7-11-7.95-18.45,5.6,9.79,13,16.27,17.19,16.66C203.26,109.56,198.5,104.75,195.84,97.83Zm40.09,11.77c-2.15-2.53-3.92-5.44-5.86-8.18.17-.2.34-.4.52-.59,5,3.38,10,6.69,14.86,10.21a7.93,7.93,0,0,1,2.54,3.67,5.35,5.35,0,0,1-5.06,7.34c-3.29.11-5.77-1.5-7.81-3.78a31.13,31.13,0,0,1-7.54-15.46c0-.17.14-.39.33-.89,3.52,6.54,8.3,11.44,14.83,14.35C240.46,114.06,238,112,235.93,109.6Zm30.73,2.07c5.16,3,10.79,5.15,15,9.64,1.34,1.45,2.28,3,1.16,5.29-1.24,2.48-2.69,4.83-5.58,5.25a7.47,7.47,0,0,1-7-3c-4.18-5-6.4-11.1-7.27-17.89,3.4,6.66,7.69,12.21,14.11,15.67C272.93,122.24,268.77,117.87,266.66,111.67Zm35.16,7a51.47,51.47,0,0,0-5.08-2.84c-1.83-.89-3.75-1.6-5.56-2.6,6.14-.14,11.85,1.08,16.72,4.64,1.74,1.27,1.72,3.56,1.36,5.73-.27,1.56-1.59,1.92-2.8,2.06a8.74,8.74,0,0,1-7-2.32c-2.74-2.41-5.46-4.85-8.19-7.28l.5-.55,14.68,7.61C305.39,120.4,303.44,119.7,301.82,118.68ZM265.19,92.84a8.93,8.93,0,0,1,1.45-1.79c3.69-2.62,7.32-5.44,11.19-7.66a11.48,11.48,0,0,1,10.95-.69c3.17,1.51,3.58,3.78.94,6.76a9.61,9.61,0,0,1-4.32,2.76c-6.87,1.88-13.79,3.51-20.76,5,6.12-4.94,12.93-7.61,20.06-9.42C278,87.52,271.6,89.55,265.19,92.84Zm-40.05-7.2c4.58-6.69,9.94-12.44,17.15-15.8a8.94,8.94,0,0,1,6.58-.64c3.62,1.1,4.24,5.2,1.25,8.17-2.55,2.53-5.67,3.75-8.75,4.91-4.46,1.68-9,3.09-14.14,4.83a64.32,64.32,0,0,1,18-11.63C241.12,74.84,233.46,78.91,225.14,85.64Zm114.44-9.51.78,5.09c.34,2.14.74,4.27,1,6.43a8.88,8.88,0,0,1-.28,2.74,3,3,0,0,1-2.36,2.5A3.41,3.41,0,0,1,335,91.73a8.68,8.68,0,0,1-1.71-6.15,20.3,20.3,0,0,1,4.84-11.35c-2,6.64-1.73,12.68-.13,14.71C337.51,84.4,337.64,80.25,339.58,76.13ZM351.34,99c.21-2,.76-4,1.16-6.07l.48,0c.6,3.64,1.26,7.28,1.75,10.94a4.85,4.85,0,0,1-.55,2.68,3.29,3.29,0,0,1-5.41.87,6,6,0,0,1-1.63-5.08,19.1,19.1,0,0,1,3.68-9.91c.06-.08.23-.1.54-.23a19,19,0,0,0-.1,12.68C351.27,102.86,351.14,100.9,351.34,99Zm9.84,25.53c.22-3.71.4-7.41,2.26-11,.87,3.56,2.29,7,2.07,10.76a2.63,2.63,0,0,1-1.86,2.75c-1.63.5-3.29.86-4.7-.25a4.61,4.61,0,0,1-1.66-4.38,20.74,20.74,0,0,1,4.88-10.82C360.64,115.9,360,120.16,361.18,124.48Zm14.05,7.63a34.42,34.42,0,0,0-.89-3.46c-.38-1.19-.88-2.35-1.2-3.57a16.23,16.23,0,0,1,5,9.4c.17,1.31-.85,2.27-2,3a1.63,1.63,0,0,1-2.1-.37,5.34,5.34,0,0,1-1.94-4.1c-.09-2.24-.16-4.48-.23-6.72l.45,0c.91,3.12,1.82,6.23,2.84,9.76C376,134.43,375.46,133.27,375.23,132.11Zm-4-27.24a5.72,5.72,0,0,1,1.41-.12c2.73.54,5.52,1,8.15,1.74a7,7,0,0,1,4.94,4.57c.68,2-.16,3.2-2.6,3.29a6,6,0,0,1-3.06-.75q-5.62-3.39-11-7.14a31.3,31.3,0,0,1,12.69,4.93A24.21,24.21,0,0,0,371.2,104.87ZM357.43,84c4.91-.8,9.74-.85,14.29.93a5.53,5.53,0,0,1,3.08,2.66c1,2.08-.52,4.09-3.1,4a14.45,14.45,0,0,1-5.9-1.81c-2.64-1.27-5.18-2.69-8.15-4.25a39.71,39.71,0,0,1,12.81,3.08C369,86.53,364,84.85,357.43,84ZM342.52,66.5a32.46,32.46,0,0,1,18-2,14.5,14.5,0,0,1,3.09.91c2.19,1,2.54,2.64,1.08,4.56a4.09,4.09,0,0,1-4.48,1.82c-5-1.19-10-2.39-14.94-3.77a48.34,48.34,0,0,1,14.93.74C356.47,67,350.38,65.83,342.52,66.5Zm180.15,4.2c.3.12.48.15.54.23a19.25,19.25,0,0,1,3.68,9.91,6,6,0,0,1-1.63,5.07,3.29,3.29,0,0,1-5.41-.86,4.86,4.86,0,0,1-.56-2.68c.5-3.67,1.16-7.3,1.76-11l.48,0c.4,2,.94,4,1.16,6.07s.06,3.91.08,5.86A19.16,19.16,0,0,0,522.67,70.7Zm-6.3-6.58c-3,1.55-5.51,3-8.14,4.24a14.34,14.34,0,0,1-5.9,1.81c-2.58.07-4.15-1.94-3.1-4a5.5,5.5,0,0,1,3.08-2.66c4.55-1.78,9.37-1.73,14.29-.93-6.52.85-11.58,2.53-13,4.62A39.84,39.84,0,0,1,516.37,64.12Zm-4.51,26A20.73,20.73,0,0,1,516.73,101a4.59,4.59,0,0,1-1.65,4.38c-1.41,1.1-3.07.75-4.7.25a2.62,2.62,0,0,1-1.86-2.76c-.22-3.77,1.2-7.19,2.06-10.75,1.87,3.56,2.05,7.27,2.27,11C514,98.73,513.38,94.46,511.86,90.13ZM505,85c-3.6,2.48-7.25,4.87-11,7.13a5.91,5.91,0,0,1-3.06.75c-2.44-.08-3.28-1.23-2.61-3.28a7.08,7.08,0,0,1,4.95-4.58c2.63-.78,5.42-1.2,8.15-1.73a5.31,5.31,0,0,1,1.41.12A24.21,24.21,0,0,0,492.3,90,31,31,0,0,1,505,85Zm-6.18,29.6c1-3.53,1.94-6.64,2.84-9.76h.46c-.08,2.25-.14,4.49-.23,6.73a5.37,5.37,0,0,1-1.94,4.1c-.58.48-1.29.91-2.1.37-1.12-.76-2.15-1.72-2-3a16.18,16.18,0,0,1,5-9.39c-.33,1.22-.82,2.38-1.2,3.57a29.26,29.26,0,0,0-.89,3.46C498.56,111.83,498.05,113,498.81,114.63Z"/></g></g></svg>