<svg xmlns="http://www.w3.org/2000/svg" viewBox="0 0 720 720"><defs><style>.cls-1{fill:#f9de59;}</style></defs><title>layer_1</title><g id="Слой_2" data-name="Слой 2"><g id="Слой_1-2" data-name="Слой 1"><path class="cls-1" d="M0,0V720H720V0ZM487,57.48c.33,2.68.48,5.37.61,8.06A40.09,40.09,0,0,0,489.75,78c-7.31-5.38-13.63-14.58-17.41-24.76h13.85A33.18,33.18,0,0,1,487,57.48ZM53.19,416a31.61,31.61,0,0,0,4,6.71c1.1.94,1.66,2.31,2.66,3.34a1.43,1.43,0,0,1,.3,1.5q-1.26,3.94-2.54,7.89a.37.37,0,0,1-.17.2c-.07,0-.23,0-.25,0a2.73,2.73,0,0,1-.47-.91,15.51,15.51,0,0,0-2-4.93A5.85,5.85,0,0,0,53.19,428V416Zm0,27.84c.3,0,.6-.09.9-.16.48-.11.78.33.64.87l-.15.52c-.46,1.46-.93,2.93-1.39,4.4ZM666.81,254.39a5,5,0,0,0-3.16,4.2,8.74,8.74,0,0,0,1.64,6.59,17.08,17.08,0,0,0,1.52,1.84v16.16l-10.17-5.29c-2.62-1.37-2.06-.92-3.77-3.26q-3.95-5.4-7.85-10.83a9.45,9.45,0,0,1-.79-1.38.49.49,0,0,1,.18-.44,2.8,2.8,0,0,1,1-.35,21,21,0,0,0,4.16-1,17.69,17.69,0,0,0,3.41-1.53,8.55,8.55,0,0,0,3.88-4.27,5,5,0,0,0,.33-2.87,11.82,11.82,0,0,0-.37-1.29,3.28,3.28,0,0,0-1.94-2.08,2.56,2.56,0,0,0-1.82-.19c-.77.22-1.53.47-2.3.69a.92.92,0,0,1-1-.63,13.89,13.89,0,0,1-.26-1.57,4,4,0,0,0-5.72-2.89l-.93.52a2.71,2.71,0,0,0-1.13,1.12c-.5.94-1,1.87-1.48,2.84a10.3,10.3,0,0,0-.64,3.4,23.13,23.13,0,0,0,.29,3.72c0,.11-.19.25-.31.35s-.17,0-.24,0a.69.69,0,0,1-.22-.16,4.23,4.23,0,0,1-.33-.41c-1.63-2.24-3.25-4.47-4.87-6.72a8.83,8.83,0,0,1-.7-1.13,1.75,1.75,0,0,1-.09-1.31,5.67,5.67,0,0,1,.42-1,28.46,28.46,0,0,0,2.41-7.06,20.86,20.86,0,0,0,.42-7.43,10.86,10.86,0,0,0-1.8-5,7,7,0,0,0-7.16-3.13,5.22,5.22,0,0,0-2.4,1.12,3.85,3.85,0,0,0-1.26,2.3c-.15.79-.23,1.59-.38,2.38a3.59,3.59,0,0,1-.3.74,1,1,0,0,1-.9.44,15.46,15.46,0,0,1-1.71-.74,6,6,0,0,0-3.9-.59,4.06,4.06,0,0,0-3,2,10.44,10.44,0,0,0-.86,1.66,6.43,6.43,0,0,0-.26,3.93,10.76,10.76,0,0,0,3,5.29,13.3,13.3,0,0,0,3.38,2.58c.64.3,1.27.65,1.89,1a24.06,24.06,0,0,0,8.3,2.84,3,3,0,0,1,2.15,1.38c1.07,1.53,2.18,3,3.28,4.56Q640.68,262.26,647,271c.47.65.92,1.31,1.36,2a.33.33,0,0,1,0,.24c-.14,0-.32.11-.43.06-.57-.26-1.13-.53-1.69-.82L620.41,259c-.47-.25-.94-.51-1.42-.75a2,2,0,0,1-1.15-1.39,7.91,7.91,0,0,1-.26-1,26.51,26.51,0,0,0-1.68-6.19,27.59,27.59,0,0,0-4.14-7.75,11.08,11.08,0,0,0-4-3.44c-.48-.22-1-.49-1.42-.74-2.94-1.52-5.69-1-8.3.8a2.45,2.45,0,0,0-.71.79,21.16,21.16,0,0,0-1,1.87,4.11,4.11,0,0,0,0,3.62c.36.82.84,1.58,1.21,2.38a2.06,2.06,0,0,1,.16,1,.84.84,0,0,1-.38.64,11,11,0,0,1-1.78.51c-.7.16-1.42.19-2.1.39a4.4,4.4,0,0,0-2.66,2.1c-.27.47-.51.95-.76,1.42a4.67,4.67,0,0,0-.36,3.38,8,8,0,0,0,4.1,5.35,15.7,15.7,0,0,0,4.18,1.73,19.6,19.6,0,0,0,6.38.32,22,22,0,0,0,5.22-1.09,37.68,37.68,0,0,0,6.25-2.36,2,2,0,0,1,2,0c.47.26,1,.49,1.43.73l42,21.89c.56.29,1.11.58,1.64.9a1.42,1.42,0,0,1,.33.39c-.14.08-.29.23-.44.24-.62,0-1.24,0-1.87,0l-30.24-.5c-.53,0-1.07,0-1.6,0a2.44,2.44,0,0,1-1.91-.81,32,32,0,0,0-4.29-3.6,20.62,20.62,0,0,0-6.18-3.1,14.57,14.57,0,0,0-5.27-.7,8.73,8.73,0,0,0-6,2.63,5.13,5.13,0,0,0-.14,7.25,4.47,4.47,0,0,0,1.07.8c.6.37,1.24.69,1.85,1.07a1.32,1.32,0,0,1,.29,1.89c-.22.28-.46.54-.7.81-.53.59-1.08,1.18-1.62,1.77a2,2,0,0,0-.55,1.19,14.6,14.6,0,0,0-.05,1.87,4.58,4.58,0,0,0,.34,1.28,7.79,7.79,0,0,0,2.76,3.18,1.42,1.42,0,0,0,.47.25,14.1,14.1,0,0,0,2.59.61,10.46,10.46,0,0,0,5.46-1,24,24,0,0,0,7.07-5.63,16.79,16.79,0,0,0,2.42-3.18c.37-.7,1.05-1.23,1.44-1.92,1.32-2.36,1.13-2,3.81-2,2.85,0,5.7.15,8.55.24.06,0,.13.12.15.19s0,.19,0,.22a7.27,7.27,0,0,1-.85.64c-.77.44-1.57.84-2.34,1.29a9.45,9.45,0,0,0-4.34,5.25,5.15,5.15,0,0,0,1,5.51,3.13,3.13,0,0,0,1.11.7,8.09,8.09,0,0,0,1.3.26,2.81,2.81,0,0,0,2.07-.33c2.32-1.39,2.41-1.09,3,1.15a5,5,0,0,0,.51,1.24,2.57,2.57,0,0,0,1.85,1.37,5.1,5.1,0,0,0,4.66-1.37,5.33,5.33,0,0,0,1.5-2.46,13.34,13.34,0,0,0,.1-6.61,16.26,16.26,0,0,0-1.37-4c-.12-.24-.27-.47-.37-.71-.9-2.06-.88-2.29,1.38-2.25q8.51.17,17,.28v15.58a9.4,9.4,0,0,0-2.8.36,7.47,7.47,0,0,0-5.24,4.57,5,5,0,0,0,.55,4.37,4,4,0,0,0,1.49,1.5c.78.43,1.55.87,2.32,1.33a1,1,0,0,1,.27,1.19,6.29,6.29,0,0,1-.75,1.1c-.48.52-1,1-1.52,1.5a3,3,0,0,0-.62.86,4.88,4.88,0,0,0-.08,3.66,5.5,5.5,0,0,0,2.55,3,9.93,9.93,0,0,0,3.21,1.27c.21,0,.42.06.62.07v339H541.56l.55-.3a31.5,31.5,0,0,1,11.44-3.81,4.91,4.91,0,0,0,1.51-.82c-.06-.48,0-.84-.13-1-4.48-4-8.92-8-13.51-11.88-7.09-6-15.2-9.17-24.58-8a38.23,38.23,0,0,0-15.71,5.68A43.74,43.74,0,0,0,488,658.85c-.37.53-.81,1-1.27,1.58-1-4.09,5-23.83,9.63-31.77,5.13.11,9.75,2.26,14.45,4.13a73.27,73.27,0,0,0,7.73,2.76c6.46,1.75,12.91,1.27,19.33-.45,5-1.35,10.08-2.66,15.16-3.83a53.58,53.58,0,0,1,5.82-.57,9.6,9.6,0,0,0,1.78-.53c-.1-.57,0-1-.25-1.28-3.11-4.35-6.16-8.74-9.41-13-6.35-8.3-14.78-12.42-25.24-11.23a39.05,39.05,0,0,0-17.9,6.41,16.73,16.73,0,0,1-3.05,1.75,72.87,72.87,0,0,1,8.62-13.15,5.86,5.86,0,0,1,3.08-1.47c2.79-.69,5.61-1.19,8.42-1.78,11.77-2.49,20.5-9.31,27.1-19.13,3.86-5.75,7.73-11.48,11.57-17.24a7.91,7.91,0,0,0,.59-1.6,8.48,8.48,0,0,0-2-1.18,50.56,50.56,0,0,0-24-1c-8.86,1.94-15.6,7.06-20.47,14.63-4.52,7-6.68,14.71-5.57,23.11a8.16,8.16,0,0,1-1.91,6.8c-2.54,3.08-4.66,6.51-7.33,9.68.4-1.31.77-2.62,1.2-3.91a38.69,38.69,0,0,0,1.9-18.49,27.25,27.25,0,0,0-6.47-13.55c-4.78-5.69-11.27-8.81-17.89-11.66-3.55-1.54-7.21-2.82-11.45-4.46-.06,2-.37,3.4-.09,4.7,1.69,7.8,2.16,15.74,3,23.64a39.87,39.87,0,0,0,9.58,22.27c3.64,4.26,7,8.76,10.58,13.07,1.53,1.84,1.49,3.46.55,5.67-3.15,7.43-6,15-9,22.46a11.06,11.06,0,0,1-.39-2,43.24,43.24,0,0,0-4.64-18c-4.15-8-10.82-13.24-19.31-16.2-10-3.5-20.45-3.47-31-4.08-.58,2.79.65,4.81,1.67,6.83,1.94,3.84,4.1,7.57,6,11.44,1.57,3.29,3,6.68,4.21,10.11,4.47,12.29,13.1,20.74,24.29,27,.83.46,1.64.95,2.44,1.46H405.88c.09-.2.18-.4.26-.6,1.42-3.36,3-6.66,4.73-9.87,2.05-3.77,4.4-7.38,6.54-11.11,1.13-2,2.46-3.92,2-6.74-10.58.06-21-.51-31.18,2.45-8.63,2.52-15.57,7.37-20.13,15.17a40.87,40.87,0,0,0-4.35,10.7H359c-1.54-4.63-3.09-9.25-4.76-13.84-.83-2.26-.78-3.87.85-5.63,3.8-4.12,7.39-8.43,11.24-12.49a39.82,39.82,0,0,0,10.74-21.75c1.24-7.84,2.11-15.75,4.21-23.45.35-1.28.11-2.71.16-4.69-4.32,1.41-8.05,2.5-11.67,3.85-6.76,2.5-13.41,5.28-18.47,10.7a27.24,27.24,0,0,0-7.18,13.2,38.73,38.73,0,0,0,.93,18.56c.36,1.32.67,2.65,1,4-2.5-3.3-4.44-6.84-6.82-10a8.16,8.16,0,0,1-1.55-6.89c1.55-8.33-.2-16.1-4.35-23.37-4.47-7.81-10.93-13.28-19.67-15.68a50.63,50.63,0,0,0-24-.28,8.57,8.57,0,0,0-2,1.08,8.55,8.55,0,0,0,.51,1.63q5.31,8.92,10.65,17.81c6.08,10.16,14.44,17.43,26.06,20.53,2.77.74,5.57,1.38,8.32,2.21a5.91,5.91,0,0,1,3,1.64,72.46,72.46,0,0,1,7.92,13.59,17.72,17.72,0,0,1-3-1.92,39.14,39.14,0,0,0-17.54-7.34c-10.38-1.72-19,1.94-25.79,9.9-3.46,4.07-6.74,8.29-10.08,12.47a4.18,4.18,0,0,0-.32,1.27,10,10,0,0,0,1.75.62,51.91,51.91,0,0,1,5.78.88c5,1.42,10,3,14.95,4.61,6.32,2.06,12.74,2.87,19.28,1.46a72.35,72.35,0,0,0,7.86-2.35c4.8-1.62,9.52-3.52,14.64-3.36a78.38,78.38,0,0,1,4.8,13.11H337.22a36.55,36.55,0,0,0-6.65-1.84A29.09,29.09,0,0,0,314,666.82H272.5c1.79-1,3.6-2,4.56-4.36-9.08-5.42-17.7-11.3-27.95-14C240.42,646.12,232,646.68,224,651a43.17,43.17,0,0,0-14,12.34,12.71,12.71,0,0,1-1.44,1.43c1.75-7.84,3.63-15.7,5.19-23.62.46-2.36,1.33-3.72,3.64-4.38,5.38-1.56,10.68-3.39,16.08-4.88a39.86,39.86,0,0,0,20.44-13c5.12-6.08,10-12.39,15.74-17.89,1-.92,1.49-2.27,2.56-3.94-4.43-1-8.18-2-12-2.75-7.08-1.35-14.21-2.41-21.35-.38a27.18,27.18,0,0,0-13,7.58,38.67,38.67,0,0,0-8.8,16.36c-.37,1.32-.8,2.61-1.2,3.92-.43-4.12-.26-8.15-.64-12.13a8.18,8.18,0,0,1,2.24-6.7c5.64-6.33,8.16-13.89,8.37-22.25.22-9-2.49-17-8.73-23.6a50.79,50.79,0,0,0-20.43-12.67,8.78,8.78,0,0,0-2.29-.13,9.2,9.2,0,0,0-.41,1.66c-.05,6.92-.07,13.84-.1,20.76,0,11.84,3.34,22.38,11.69,31.05,2,2.06,4.05,4.06,6,6.19a6,6,0,0,1,1.72,3,72,72,0,0,1-.25,15.73,16.75,16.75,0,0,1-1.53-3.17,39.22,39.22,0,0,0-11.22-15.35c-8-6.85-17.28-8.18-27.19-4.88-5.07,1.69-10.06,3.62-15.08,5.46-.31.12-.52.51-.93.92a9.78,9.78,0,0,0,1.18,1.44,54.25,54.25,0,0,1,4.49,3.74c3.55,3.82,7,7.74,10.41,11.68,4.34,5,9.41,9,15.74,11.23a74.14,74.14,0,0,0,8,2.05c4.94,1.09,10,1.91,14.27,4.69-.47,6.74-3.89,19.17-6.91,26.41H201a45.7,45.7,0,0,0-3.88-14.15,38.3,38.3,0,0,0-9.81-13.52c-7.11-6.23-15.63-8.11-24.84-7.16-6,.61-11.91,1.46-17.85,2.24-.18,0-.33.36-.64.73a4.7,4.7,0,0,0,.79,1.52,31.31,31.31,0,0,1,7.32,9.58c2,4.07,4.07,8.16,6.22,12.18a54.34,54.34,0,0,0,5.4,8.58H53.19v-194l1.64-.57c.5-.18,1-.31,1.53-.45a.43.43,0,0,1,.52.46,57.37,57.37,0,0,0-.1,6.15A11.34,11.34,0,0,0,58.4,484,6.17,6.17,0,0,0,62,487a4.23,4.23,0,0,0,3.59-.36,3.32,3.32,0,0,0,1.85-3c0-.72,0-1.43,0-2.14a.65.65,0,0,1,.77-.56c.61.09,1.22.22,1.84.29a4.44,4.44,0,0,0,2.57-.58,2.32,2.32,0,0,0,1.09-1.14,5.13,5.13,0,0,0-.24-5.1c-.24-.38-.43-.79-.69-1.15a3.15,3.15,0,0,0-.74-.76A14.52,14.52,0,0,0,66,469.81a14.09,14.09,0,0,1-1.57-.32c-.08,0-.19-.07-.21-.13a.32.32,0,0,1,.22-.43L72.79,466a1.14,1.14,0,0,1,.51-.11,1.29,1.29,0,0,1,.75.19c.89.75,2,1.28,2.81,2a26.17,26.17,0,0,0,3.49,2.46,20,20,0,0,0,9.75,3.36,9.28,9.28,0,0,0,4.67-.9,10,10,0,0,0,2.65-2.22,5.5,5.5,0,0,0,1.48-3.64,4.87,4.87,0,0,0-1.22-3.45,3,3,0,0,0-.86-.62c-.63-.33-1.3-.6-1.92-.95a6.2,6.2,0,0,1-1.05-.8,1,1,0,0,1-.12-1.22c.58-.67,1.17-1.34,1.78-2a3.88,3.88,0,0,0,.94-1.9,4.93,4.93,0,0,0-.84-4.31,7.44,7.44,0,0,0-6.42-2.69,9,9,0,0,0-3.61.9,16.67,16.67,0,0,0-5.25,3.62c-.47.54-1,1-1.48,1.55a18.34,18.34,0,0,0-2.13,2.73c-.86,1.35-1.73,2.69-2.47,4.12a2.31,2.31,0,0,1-1.38,1.18l-1.52.54-18.17,6.35v-7.78q7.37-7.56,14.71-15.14c3.3-3.39,6.6-6.77,9.88-10.18a7,7,0,0,1,2.88-1.85q8.49-2.91,16.94-5.91c2.13-.75,2.22-.54,2,1.7,0,.27-.1.53-.14.79a16.5,16.5,0,0,0,0,4.27,13.25,13.25,0,0,0,2.17,6.25,5.37,5.37,0,0,0,2.2,1.87,5.09,5.09,0,0,0,4.85-.17A2.56,2.56,0,0,0,110,442.2a5.3,5.3,0,0,0,.09-1.32c-.13-2.33-.14-2.63,2.49-2.05a2.79,2.79,0,0,0,2.07-.33,7.74,7.74,0,0,0,1.16-.66,3.1,3.1,0,0,0,.83-1,5.16,5.16,0,0,0-.82-5.53,9.4,9.4,0,0,0-5.77-3.62c-.87-.19-1.75-.32-2.63-.5a6.16,6.16,0,0,1-1-.33s-.08-.14-.08-.21,0-.21.09-.22c2.67-1,5.34-2,8-2.92s2.25-1.14,4.25.68c.59.53,1.39.83,2,1.37a16.72,16.72,0,0,0,3.31,2.26,24,24,0,0,0,8.48,3.12,10.63,10.63,0,0,0,5.5-.74,14.23,14.23,0,0,0,2.27-1.41,1.45,1.45,0,0,0,.37-.37,7.9,7.9,0,0,0,1.62-3.9,4.84,4.84,0,0,0-.09-1.32,14.21,14.21,0,0,0-.63-1.76,2,2,0,0,0-.89-.95c-.71-.39-1.41-.78-2.1-1.18a10.54,10.54,0,0,1-.92-.54,1.32,1.32,0,0,1-.31-1.89c.45-.55,1-1.05,1.42-1.6a4.42,4.42,0,0,0,.75-1.09,5.12,5.12,0,0,0-2.4-6.84,8.75,8.75,0,0,0-6.51-.62,14.82,14.82,0,0,0-4.78,2.32,21,21,0,0,0-4.89,4.89,31,31,0,0,0-2.94,4.77,2.47,2.47,0,0,1-1.56,1.37c-.51.16-1,.35-1.51.53l-28.55,10c-.59.21-1.18.4-1.79.57-.14,0-.32-.06-.49-.1a1.71,1.71,0,0,1,.19-.46c.41-.47.84-.93,1.28-1.38l33-34c.37-.39.77-.76,1.13-1.15a2,2,0,0,1,1.94-.65,37.2,37.2,0,0,0,6.67.27,22,22,0,0,0,5.31-.6,19.77,19.77,0,0,0,5.95-2.31,16,16,0,0,0,3.43-3,8.07,8.07,0,0,0,2.21-6.38,4.64,4.64,0,0,0-1.41-3.09c-.38-.37-.77-.75-1.16-1.11a4.39,4.39,0,0,0-3.19-1.15c-.71,0-1.41.21-2.11.29a12.86,12.86,0,0,1-1.86.07.85.85,0,0,1-.56-.49,2.14,2.14,0,0,1-.18-1c.1-.89.32-1.76.41-2.64a4.14,4.14,0,0,0-1.15-3.44c-.5-.51-1-1-1.57-1.46a2.8,2.8,0,0,0-.92-.52c-3-.92-5.82-.51-8.13,1.85-.37.39-.73.78-1.12,1.15a11.12,11.12,0,0,0-2.74,4.53,27.91,27.91,0,0,0-1.5,8.67,26.85,26.85,0,0,0,.36,6.39,9.63,9.63,0,0,1,.08,1.07,2.11,2.11,0,0,1-.66,1.69l-1.11,1.15q-10.17,10.47-20.33,20.93c-.44.45-.88.89-1.34,1.31a.67.67,0,0,1-.43.08.33.33,0,0,1-.07-.23c.21-.77.42-1.54.67-2.31q3.27-10.34,6.55-20.66c.57-1.79,1.15-3.57,1.69-5.37a3,3,0,0,1,1.61-2,24.25,24.25,0,0,0,7-5.31c.47-.53,1-1.05,1.48-1.54a13.23,13.23,0,0,0,2.4-3.52,10.66,10.66,0,0,0,1.15-6,6.4,6.4,0,0,0-1.48-3.65,10.29,10.29,0,0,0-1.34-1.3,4.08,4.08,0,0,0-3.51-.91,6,6,0,0,0-3.51,1.79,14.83,14.83,0,0,1-1.39,1.24,1,1,0,0,1-1-.13,3.73,3.73,0,0,1-.52-.61c-.38-.7-.71-1.44-1.11-2.14a3.86,3.86,0,0,0-1.91-1.79,5.33,5.33,0,0,0-2.63-.31,7,7,0,0,0-5.82,5.23,11,11,0,0,0-.15,5.29,21,21,0,0,0,2.74,6.92,28,28,0,0,0,4.51,5.94,5.43,5.43,0,0,1,.7.81,1.68,1.68,0,0,1,.33,1.26,8.17,8.17,0,0,1-.3,1.3c-.83,2.64-1.67,5.27-2.51,7.91a5.21,5.21,0,0,1-.2.5.74.74,0,0,1-.15.21c-.06.05-.17.12-.22.1s-.38-.13-.41-.24a21.74,21.74,0,0,0-.89-3.62,10,10,0,0,0-1.68-3c-.72-.79-1.52-1.51-2.3-2.24a2.67,2.67,0,0,0-1.42-.71c-.35-.06-.7-.12-1-.2A4,4,0,0,0,85.25,391a12.08,12.08,0,0,1,.25,1.58.91.91,0,0,1-.79.92l-2.4.07a2.58,2.58,0,0,0-1.67.75,3.29,3.29,0,0,0-1.18,2.59,10,10,0,0,0,.05,1.34,4.89,4.89,0,0,0,1.22,2.62,8.47,8.47,0,0,0,5,2.83,17.21,17.21,0,0,0,3.72.38,21.08,21.08,0,0,0,4.26-.36,2.66,2.66,0,0,1,1,0c.12,0,.32.24.31.35a9,9,0,0,1-.32,1.56c-1.34,4.26-2.68,8.51-4,12.76-.88,2.75-.49,2.14-2.56,4.27q-11.28,11.63-22.57,23.23-5.22,5.38-10.45,10.75a5.21,5.21,0,0,1-1.58,1.41c-.05-.07-.16-.14-.15-.19a10.74,10.74,0,0,1,.26-1.28c3-9.36,5.95-18.71,8.88-28.08a4.91,4.91,0,0,1,2.38-3,32.09,32.09,0,0,0,7.36-5.71A17,17,0,0,0,76,413.34a8.69,8.69,0,0,0-.52-6.76,5,5,0,0,0-4.68-3,4.73,4.73,0,0,0-3.61,1.47,19.59,19.59,0,0,1-1.58,1.43,1.24,1.24,0,0,1-1.48-.16,5.4,5.4,0,0,1-.64-.85c-.39-.7-.73-1.43-1.12-2.13a2.42,2.42,0,0,0-1.18-1c-.49-.2-1-.37-1.51-.54a4.58,4.58,0,0,0-3.62.41,21.21,21.21,0,0,0-1.8,1.16,1,1,0,0,0-.38.37c-.21.34-.43.68-.65,1V371a41.55,41.55,0,0,0,6.6-.26,29.69,29.69,0,0,0,3.77-.65,35.09,35.09,0,0,0,4.63-1.35,29,29,0,0,0,4.61-2,11.16,11.16,0,0,1,2.18-1,4.76,4.76,0,0,0,1.55-.91,11.33,11.33,0,0,1,1.78-1.31,12.16,12.16,0,0,0,2.44-2.09,3.63,3.63,0,0,0,.55-.83.8.8,0,0,0-.27-1.06,9,9,0,0,0-3.13-1.33c-1.12-.22-2.24-.45-3.38-.58-2.06-.22-4.13-.49-6.21-.61-2.41-.15-4.83-.2-7.24-.17a41.56,41.56,0,0,0-7.88.73v-1.76l14.74-8.62c.29-.17.58-.34.88-.5a5.36,5.36,0,0,1,.54-.26,1,1,0,0,1,.94.17c.18.19.34.41.52.61a17.36,17.36,0,0,0,6,4.61,17.05,17.05,0,0,0,3.21,1.14,27.07,27.07,0,0,0,7.62.44A42.25,42.25,0,0,0,95.4,352a20.88,20.88,0,0,0,2.89-.87,28.81,28.81,0,0,0,4.42-1.92,8.37,8.37,0,0,1,1.64-.75,6.2,6.2,0,0,0,2.1-1.18,15.81,15.81,0,0,1,2.11-1.54,11.46,11.46,0,0,0,2.75-2.63.89.89,0,0,0-.09-1.11,3.3,3.3,0,0,0-1.54-.92c-1.23-.34-2.46-.7-3.71-.92-2.12-.37-4.26-.57-6.4-.75a96.28,96.28,0,0,0-10.47-.19c-1.14,0-2.27.23-3.4.33a25,25,0,0,0-5.14,1,2.59,2.59,0,0,1-.79.09c-.08,0-.15-.12-.26-.22.24-.16.46-.32.69-.45L92,333l.35-.2a1.67,1.67,0,0,1,1.71-.15,7.06,7.06,0,0,0,1.73.53,12.28,12.28,0,0,0,5.39-.24c.64-.19,1.26-.44,1.9-.65a11.8,11.8,0,0,0,3.66-2.06,25.83,25.83,0,0,1,2.12-1.53,8.5,8.5,0,0,0,1.94-1.44,2.21,2.21,0,0,1,.63-.5c1.11-.64,1.91-1.68,3-2.36,2.24-2,4.5-4,6.61-6.18a21,21,0,0,0,2.92-3.59c.14-.23.28-.45.41-.69.38-.68.09-1.25-.65-1.26-.27,0-.53,0-.8,0a22.46,22.46,0,0,0-5,.89q-3.1.84-6.15,1.89c-1.65.57-3.3,1.13-4.9,1.82a32.82,32.82,0,0,0-4.92,2.29,2.27,2.27,0,0,1-.55.25,14.17,14.17,0,0,0-4.64,2.74,13.62,13.62,0,0,0-3.53,4.59,7.62,7.62,0,0,0-.85,2.88,1.34,1.34,0,0,1-.7,1.15l-7.15,4.14s-.13,0-.19,0,0-.29,0-.38a9.63,9.63,0,0,1,.76-.93,48.64,48.64,0,0,0,7.27-10.6c1.38-2.62,2.66-5.28,3.83-8a38.06,38.06,0,0,0,2.07-6.3,4.83,4.83,0,0,0,.15-2,.79.79,0,0,0-.66-.65,3.32,3.32,0,0,0-1,0,12.82,12.82,0,0,0-3,1.06,11.39,11.39,0,0,1-2.55,1.19,3.59,3.59,0,0,0-1.54.95A9.93,9.93,0,0,1,88,311.05a17.91,17.91,0,0,0-1.85,1.22c-1.19,1-2.35,2-3.46,3.06a37,37,0,0,0-8.15,11.4A16.12,16.12,0,0,0,73,334a18.57,18.57,0,0,0,1.09,5.92c.46,1.25.2,1.54-.76,2.11l-.53.31L55.24,352.59a2.67,2.67,0,0,1-1.08.5.9.9,0,0,1,0-.37,3,3,0,0,1,.49-.63,34.7,34.7,0,0,0,4.74-6c1.08-1.61,2-3.34,3-5,.75-1.35,1.49-2.71,2.12-4.11,1-2.2,2-4.4,2.82-6.68a22.27,22.27,0,0,0,.93-3.08,13.33,13.33,0,0,0,.18-2.2.88.88,0,0,0-.78-.8,5.85,5.85,0,0,0-1.39.13,12,12,0,0,0-3,1.16,7.4,7.4,0,0,1-1.46.67,7.56,7.56,0,0,0-2.43,1.4,7.94,7.94,0,0,1-1.29.95,27.25,27.25,0,0,0-4.89,3.86h0V303.55a39,39,0,0,1,8.08,0,3,3,0,0,1,.6.08,1.14,1.14,0,0,1,.51.3,7.29,7.29,0,0,1,.66,1,7.93,7.93,0,0,0,1.8,2.15c.51.44,1,.86,1.53,1.31a10,10,0,0,0,2,1.34,9.74,9.74,0,0,0,2.84,1,13.06,13.06,0,0,1,3.6,1.26,13.67,13.67,0,0,0,2.26.86,6,6,0,0,0,5.79-1.43,2.51,2.51,0,0,0,.26-.31,1.57,1.57,0,0,0,.23-1.87c-.29-.53-.59-1.05-.84-1.6a.63.63,0,0,1,.12-.54,5.39,5.39,0,0,1,.8-.6,5.54,5.54,0,0,0,1.78-2.39,1.51,1.51,0,0,0,0-1.37,7.64,7.64,0,0,0-1.73-2.45c-.53-.43-.52-.62-.21-1.21.15-.29.33-.58.48-.88a1.44,1.44,0,0,0-.12-1.35,3.69,3.69,0,0,0-1.12-1.14,5.37,5.37,0,0,0-5.3-1c-.51.17-1,.3-1.53.48a32.2,32.2,0,0,1-4.41,1.38,9.44,9.44,0,0,0-5,2.54,3.82,3.82,0,0,1-.64.48,7,7,0,0,0-1.54,1.29,2.43,2.43,0,0,1-2.19.78c-.6-.07-1.2-.15-1.8-.19-1.81-.14-3.62,0-5.43,0a12.53,12.53,0,0,0-1.49.15V299l25.29-14.79c.41-.24.83-.45,1.24-.67a.7.7,0,0,1,.75.1c.43.42.87.84,1.27,1.29a17.27,17.27,0,0,0,6.79,4.57,15,15,0,0,0,4.1,1,38.34,38.34,0,0,0,7.65-.18,28.17,28.17,0,0,0,3.76-.66,34.14,34.14,0,0,0,4.64-1.34,28.49,28.49,0,0,0,4.6-2,10.62,10.62,0,0,1,2.18-1,4.66,4.66,0,0,0,1.55-.91A11,11,0,0,1,118.8,283a12.15,12.15,0,0,0,2.43-2.09,3.67,3.67,0,0,0,.56-.83.8.8,0,0,0-.27-1.06,9.08,9.08,0,0,0-3.14-1.33c-1.12-.22-2.24-.45-3.37-.58-2.07-.23-4.13-.49-6.21-.61-2.42-.15-4.84-.2-7.25-.17a38.44,38.44,0,0,0-9.19,1,18.05,18.05,0,0,1-1.78.35,2,2,0,0,1-.64-.12,6.15,6.15,0,0,1,1.25-.83l17.23-10.08.87-.5a5.52,5.52,0,0,1,.55-.26,1,1,0,0,1,.94.17c.18.19.34.41.52.61a17.47,17.47,0,0,0,6,4.62,17.85,17.85,0,0,0,3.22,1.13,27,27,0,0,0,7.62.44,42.25,42.25,0,0,0,7.73-1.34,20.35,20.35,0,0,0,2.88-.87,28.92,28.92,0,0,0,4.43-1.92,8.11,8.11,0,0,1,1.64-.75,6.16,6.16,0,0,0,2.09-1.18,16.58,16.58,0,0,1,2.12-1.54,11.65,11.65,0,0,0,2.75-2.63.89.89,0,0,0-.1-1.11,3.22,3.22,0,0,0-1.53-.92c-1.23-.34-2.46-.7-3.72-.92-2.11-.37-4.26-.57-6.4-.75a96,96,0,0,0-10.46-.19c-1.14,0-2.27.23-3.41.33a25,25,0,0,0-5.13,1,3,3,0,0,1-.8.09c-.07,0-.14-.12-.26-.22.25-.16.47-.32.69-.45l11.84-6.93.35-.2a1.66,1.66,0,0,1,1.71-.15,6.86,6.86,0,0,0,1.72.53,12.26,12.26,0,0,0,5.39-.24c.64-.19,1.27-.45,1.9-.65a11.68,11.68,0,0,0,3.67-2.07c.69-.54,1.38-1,2.12-1.52a8.75,8.75,0,0,0,1.93-1.44,2.53,2.53,0,0,1,.63-.5c1.11-.65,1.92-1.68,3-2.36,2.24-2,4.5-4,6.6-6.18a20.56,20.56,0,0,0,2.92-3.59c.15-.23.29-.45.42-.69.38-.68.09-1.25-.65-1.26h-.81a22.37,22.37,0,0,0-4.94.89c-2.08.56-4.13,1.18-6.16,1.89-1.64.56-3.3,1.13-4.89,1.82a32.82,32.82,0,0,0-4.92,2.29,2.27,2.27,0,0,1-.55.25,14.31,14.31,0,0,0-4.65,2.74,13.6,13.6,0,0,0-3.52,4.59,7.28,7.28,0,0,0-.85,2.88,1.36,1.36,0,0,1-.7,1.15l-7.15,4.14a.59.59,0,0,1-.19,0c0-.12,0-.28,0-.37a8.47,8.47,0,0,1,.75-.93A48.64,48.64,0,0,0,133,243c1.38-2.61,2.65-5.27,3.83-8a37.83,37.83,0,0,0,2.06-6.31,4.61,4.61,0,0,0,.15-2,.81.81,0,0,0-.66-.66,3.71,3.71,0,0,0-1,.05,13.14,13.14,0,0,0-3,1.06,11.19,11.19,0,0,1-2.55,1.19,3.47,3.47,0,0,0-1.53.95,10,10,0,0,1-1.8,1.29,17.29,17.29,0,0,0-1.85,1.21c-1.18,1-2.34,2-3.46,3.07a37,37,0,0,0-8.15,11.4,16.11,16.11,0,0,0-1.48,7.24,18.35,18.35,0,0,0,1.09,5.92c.46,1.25.19,1.53-.77,2.11l-.52.31L95.73,272.14a2.69,2.69,0,0,1-1.08.51.88.88,0,0,1,0-.37,2.69,2.69,0,0,1,.48-.63,35,35,0,0,0,4.74-6c1.09-1.61,2-3.34,3-5,.75-1.35,1.49-2.71,2.13-4.11,1-2.21,2-4.4,2.82-6.68a24.16,24.16,0,0,0,.92-3.08,14.74,14.74,0,0,0,.19-2.2.89.89,0,0,0-.78-.8,5.34,5.34,0,0,0-1.39.13,12.18,12.18,0,0,0-3,1.16,7.44,7.44,0,0,1-1.46.67,7.51,7.51,0,0,0-2.42,1.4,8.4,8.4,0,0,1-1.29.95,26.9,26.9,0,0,0-4.89,3.86,40.51,40.51,0,0,0-6.82,8.17c-.74,1.2-1.34,2.48-2,3.74a13.63,13.63,0,0,0-1.37,4.81,18.12,18.12,0,0,0,1,8.32,5.27,5.27,0,0,1,.23,1,.76.76,0,0,1-.27.72c-.38.28-.78.53-1.18.77L53.19,297v-1.7a39.94,39.94,0,0,0,5.58-9.44A2.12,2.12,0,0,1,60,284.67l.76-.25c1.07-.4,2.16-.74,3.19-1.21A12.3,12.3,0,0,0,68.1,280a20.84,20.84,0,0,1,2.77-2.63c.63-.5,1.22-1,1.8-1.61a3.47,3.47,0,0,0,.86-1.35,6.76,6.76,0,0,0,.15-4.73A1.18,1.18,0,0,0,73,269a4.59,4.59,0,0,0-2-.28.52.52,0,0,1-.56-.47,5.87,5.87,0,0,0-1-2.8,2,2,0,0,0-1.86-1,6.82,6.82,0,0,0-2.74.59c-.36.16-.67.51-1.1.41s-.37-.65-.57-1a4.83,4.83,0,0,0-.52-.85,1.77,1.77,0,0,0-2.17-.62,7,7,0,0,0-2.41,1.43,5,5,0,0,0-1.7,3.12c-.13,1.13-.34,2.25-.47,3.39a6.07,6.07,0,0,1-.55,2.32,3.28,3.28,0,0,0-.32,1.16,15.77,15.77,0,0,0,.23,5.81,18.8,18.8,0,0,0,1.39,4,1.83,1.83,0,0,1,.08,1.55c-.15.37-.31.74-.47,1.11-.46,1.05-1.13,2-1.67,3a21.22,21.22,0,0,1-1.4,2.29v-239H457.05q0,.48.09,1h0c-3,3.65-6,7.25-8.8,10.92a5.1,5.1,0,0,1-5,2.34C439.5,67,435.69,66.74,432,66c-9.63-1.94-18.85-1.35-27.58,3.55-2.43,1.37-4.94,2.63-7.49,3.76-3,1.32-6.12,2.4-9.16,3.66-1.6.66-3.33,1.22-4.38,3.13,6.43,4.92,12.46,10.14,20,13.12,6.4,2.51,12.87,2.83,19.29.25a33,33,0,0,0,11.7-8.16,9.13,9.13,0,0,1,1.23-1c-2,5.81-4.14,11.62-6,17.5-.56,1.75-1.35,2.71-3.16,3-4.23.71-8.42,1.64-12.65,2.29a30.53,30.53,0,0,0-16.68,8.13c-4.43,4.17-8.66,8.55-13.54,12.22a18.1,18.1,0,0,0-2.29,2.76c3.28,1.17,6,2.26,8.87,3.15,5.26,1.65,10.58,3.08,16.19,2.17a20.82,20.82,0,0,0,10.52-4.63A29.66,29.66,0,0,0,425,119.28c.4-1,.84-1.92,1.25-2.87,0,3.17-.51,6.21-.58,9.27a6.25,6.25,0,0,1-2.29,4.9A25.64,25.64,0,0,0,415,146.75a24.38,24.38,0,0,0,4.56,18.71A38.73,38.73,0,0,0,434,176.88a6.3,6.3,0,0,0,1.73.3,5.81,5.81,0,0,0,.46-1.23c.65-5.25,1.27-10.51,1.9-15.76,1.08-9-.57-17.3-6.16-24.63-1.33-1.74-2.72-3.44-4-5.23a4.52,4.52,0,0,1-1.05-2.39A55.46,55.46,0,0,1,428.47,116a12.91,12.91,0,0,1,.89,2.55,29.9,29.9,0,0,0,7.18,12.65c5.47,5.91,12.41,7.73,20.24,6.09,4-.83,8-1.86,11.94-2.82.24-.06.44-.34.79-.62a8.89,8.89,0,0,0-.77-1.2,39.14,39.14,0,0,1-3.09-3.23c-2.37-3.22-4.64-6.5-6.88-9.8a28,28,0,0,0-11-9.91,58.56,58.56,0,0,0-5.86-2.26c-3.66-1.26-7.41-2.32-10.44-4.82,1.29-6.91,7.66-21.35,10.28-23.23,0,.56,0,1.06,0,1.55a33.35,33.35,0,0,0,1.55,13.6,29.3,29.3,0,0,0,6.27,11.14c4.86,5.36,11.16,7.54,18.25,7.63,4.59.05,9.18-.07,13.76-.14.15,0,.28-.24.56-.5a3.64,3.64,0,0,0-.47-1.22,24.14,24.14,0,0,1-4.73-7.93c-1.19-3.27-2.37-6.56-3.66-9.8-1.43-3.62-2.95-7.15-5.71-10.08a36.25,36.25,0,0,0-10-7.49,29.73,29.73,0,0,1-9.42-7.48c2.94-4.23,6.12-8.22,9.39-12.09a27.72,27.72,0,0,0,3,8.3c3.73,6.72,9.77,10.64,17.14,12.58,4.35,1.15,8.69,2.31,13,3.44a16.11,16.11,0,0,0,2.16.24,7.87,7.87,0,0,0-.3-1.38,33.51,33.51,0,0,1-3-12.45c-.2-3-.35-6-.59-9a41.62,41.62,0,0,0-.74-5.16H666.82v201.2ZM477.14,111.51c-5,.65-10.07,1-15-.38-9.22-2.57-14.6-8.9-17.23-17.84-1.93-6.56-1.12-13,1.08-20C451,90.78,461.05,103.56,477.14,111.51Zm-35.09-39c-4.22,6.22-8.58,12.34-14.82,16.64-6.76,4.65-14.25,5.48-22,2.81-5.92-2-10.74-5.91-15.69-9.66a68.28,68.28,0,0,0,27.28.08A82.79,82.79,0,0,0,442.05,72.53ZM426.6,132.1l.68-.33c2.17,3.45,4.5,6.8,6.45,10.36a23.54,23.54,0,0,1,2.7,13.87c-.48,5-.88,9.93-1.32,14.89a5.45,5.45,0,0,1-.57,2C428.29,160,426.27,146.27,426.6,132.1Zm-.4-21.85c-2.34,7.09-4.45,14.3-10.44,19.34a19.2,19.2,0,0,1-16,4.23c-3.9-.64-7.69-1.89-11.53-2.86,0-.2,0-.39,0-.58C403.56,128.7,415.74,121.16,426.2,110.25Zm6.51-4.36c3.22,2.73,6.82,3.39,10.25,4.32,6.31,1.73,10.9,5.5,14.45,10.85,2.36,3.55,4.88,7,7.32,10.51a5.31,5.31,0,0,1,.36.83C452.07,130.48,436,116.22,432.71,105.89Z"/></g></g></svg>