<?xml version="1.0" standalone="no"?>
<!DOCTYPE svg PUBLIC "-//W3C//DTD SVG 20010904//EN"
 "http://www.w3.org/TR/2001/REC-SVG-20010904/DTD/svg10.dtd">
<svg version="1.0" xmlns="http://www.w3.org/2000/svg"
 width="392.466022pt" height="110.322899pt" viewBox="0 0 392.466022 110.322899"
 preserveAspectRatio="xMidYMid meet">
<metadata>
Created by potrace 1.15, written by Peter Selinger 2001-2017
</metadata>
<g transform="translate(-3.525424,125.473615) scale(0.100000,-0.100000)"
fill="#000000" stroke="none">
<path d="M3700 1250 c-58 -5 -157 -14 -220 -20 -223 -21 -402 -22 -626 -5
-164 13 -271 16 -447 11 -128 -4 -349 -6 -492 -5 -204 1 -280 -2 -350 -15
-122 -23 -192 -43 -198 -59 -2 -7 -63 -39 -133 -71 -145 -65 -198 -90 -234
-111 -14 -8 -46 -17 -71 -20 -32 -4 -57 -15 -79 -35 -18 -16 -49 -33 -69 -36
-44 -8 -88 -29 -121 -58 -34 -30 -101 -54 -125 -45 -11 4 -65 25 -120 47 -124
50 -162 62 -189 61 -16 0 104 -48 122 -49 2 0 0 -5 -4 -11 -4 -7 -1 -10 7 -7
8 3 37 -6 64 -19 28 -12 57 -23 66 -23 8 0 23 -6 32 -13 15 -10 3 -18 -90 -60
-60 -26 -115 -47 -123 -47 -8 1 10 12 40 25 30 13 47 24 37 25 -10 0 -32 -7
-48 -16 -17 -8 -33 -13 -36 -10 -3 3 14 15 38 26 42 19 42 20 11 15 -20 -3
-31 -1 -27 5 4 6 -3 6 -20 0 -32 -12 -35 -12 -35 -1 0 5 10 12 23 14 16 3 12
5 -13 7 l-35 2 40 8 c22 5 62 6 89 2 36 -4 47 -2 42 6 -4 7 -39 13 -84 14
l-77 2 63 3 c80 5 72 22 -11 24 -34 1 -50 4 -34 6 33 5 36 23 5 24 -14 0 -18
3 -9 6 8 3 -5 13 -34 24 -70 27 -83 12 -41 -44 18 -25 25 -48 28 -101 4 -59 8
-72 30 -91 l27 -23 -41 -43 c-74 -81 -118 -181 -118 -272 0 -42 -22 -92 -54
-122 l-21 -20 28 -3 c15 -2 52 4 81 12 48 14 73 33 211 165 87 82 166 163 177
180 19 29 23 31 82 31 88 0 350 -35 486 -65 272 -60 467 -85 661 -85 53 0 161
-7 239 -15 177 -19 677 -23 810 -7 52 7 275 14 495 16 220 2 416 8 435 13 30
8 35 13 35 38 0 25 -4 30 -22 28 -13 -2 -23 2 -23 9 0 6 -8 4 -18 -5 -21 -19
-72 -23 -72 -6 0 8 -4 8 -12 2 -24 -19 -58 -22 -67 -6 -6 11 -10 12 -15 4 -10
-16 -56 -14 -62 4 -5 13 -8 13 -27 0 -27 -19 -32 -19 -52 1 -12 13 -19 14 -28
5 -17 -17 -57 -14 -57 4 0 12 -4 13 -19 5 -28 -14 -41 -12 -41 6 0 11 -5 14
-16 10 -9 -3 -20 -3 -26 0 -15 9 69 66 110 74 21 4 71 15 112 24 41 8 139 22
217 30 78 8 150 19 160 25 25 13 91 148 96 196 3 22 14 74 26 115 22 79 28
198 11 230 -16 30 -64 59 -106 64 -21 2 -86 0 -144 -4z m165 -30 c14 0 26 -9
33 -25 16 -36 14 -135 -3 -165 -8 -14 -14 -48 -15 -77 0 -57 -41 -200 -71
-250 -22 -36 -38 -39 -229 -48 -138 -7 -332 -53 -400 -94 -47 -29 -160 -82
-160 -76 0 2 39 25 88 51 99 54 97 52 90 60 -8 7 -176 -90 -200 -116 -10 -11
-22 -20 -25 -20 -3 0 2 9 12 20 21 23 11 25 -25 5 -14 -8 -36 -14 -50 -14 -32
0 -13 11 56 35 52 17 74 31 74 45 0 5 -5 9 -12 9 -16 0 -116 -48 -123 -60 -10
-16 -48 -11 -75 10 -14 11 -32 20 -41 20 -9 0 -29 18 -44 40 -17 24 -39 43
-54 46 -14 3 -39 9 -56 14 -27 9 -26 9 12 6 24 -2 63 -14 88 -26 57 -27 70
-20 21 12 -20 13 -34 29 -31 35 10 30 -115 59 -140 34 -6 -6 -57 -25 -115 -44
-58 -19 -114 -38 -124 -43 -13 -5 -17 -4 -13 4 4 6 31 18 60 27 28 10 66 23
82 30 103 45 129 55 141 55 8 0 14 5 14 11 0 16 -120 3 -168 -16 -52 -22 -59
-18 -18 10 20 14 49 25 64 25 15 0 34 5 42 11 11 7 -10 8 -72 4 -61 -5 -88 -3
-88 4 0 18 -35 13 -63 -9 -39 -31 -82 -36 -114 -14 -16 11 -57 34 -93 51 l-65
33 70 -6 c39 -3 124 -9 190 -12 88 -5 119 -10 118 -19 -4 -16 3 -16 30 -1 12
7 38 18 57 25 33 12 30 12 -36 8 -39 -2 -75 0 -80 5 -8 8 -117 13 -189 9 -16
-1 -68 0 -115 2 -78 3 -145 -9 -173 -32 -4 -3 31 -9 78 -12 49 -3 92 -10 98
-17 10 -10 1 -11 -38 -5 -65 10 -134 8 -148 -3 -19 -15 -123 -25 -282 -26
-125 -1 -155 1 -184 16 -38 19 -51 17 -31 -7 17 -21 76 -35 167 -39 43 -2 85
-7 93 -9 23 -9 118 -19 188 -20 52 -1 66 3 84 21 l22 22 -31 0 c-17 0 -36 -7
-44 -16 -13 -16 -37 -16 -129 5 -43 10 -43 10 19 6 47 -4 83 1 134 16 69 20
129 21 207 1 23 -5 21 -7 -15 -15 -22 -5 -65 -12 -95 -15 -49 -6 -53 -8 -35
-19 11 -7 18 -13 15 -14 -3 0 -52 -4 -110 -9 -98 -7 -164 0 -252 26 -10 3 -18
1 -18 -4 0 -5 30 -17 67 -26 37 -10 74 -23 82 -29 8 -7 56 -13 120 -14 103 -1
116 -4 109 -22 -6 -17 -184 11 -296 46 -62 20 -115 33 -118 30 -3 -3 16 -17
43 -31 68 -35 38 -32 -39 4 -34 16 -55 30 -45 30 10 0 15 5 12 10 -3 6 -21 10
-38 9 -27 0 -29 -2 -12 -9 14 -6 15 -9 4 -9 -8 -1 -19 3 -25 8 -5 5 -40 25
-78 45 -52 27 -63 36 -44 36 23 0 46 25 34 37 -2 2 -31 -1 -65 -8 -34 -7 -56
-16 -49 -20 7 -5 1 -10 -18 -14 -16 -3 -45 -10 -65 -15 -20 -6 -54 -10 -75
-10 -22 0 -54 -4 -71 -9 -43 -12 -55 6 -14 20 17 6 29 16 28 22 -1 6 7 12 18
14 52 9 65 14 65 24 0 14 -38 7 -117 -22 -35 -13 -58 -26 -52 -30 7 -4 -2 -18
-23 -38 -52 -51 -86 -65 -150 -63 -32 0 -58 -3 -58 -8 0 -15 106 -12 143 3 18
8 38 21 46 30 8 10 28 17 50 17 34 -1 33 -2 -39 -37 -74 -35 -77 -36 -194 -34
-103 1 -123 -1 -154 -19 -32 -20 -37 -20 -81 -6 -49 16 -131 30 -131 22 0 -2
34 -12 75 -21 45 -10 75 -21 75 -29 0 -18 -35 -47 -51 -44 -8 2 -15 -7 -17
-22 -2 -14 -21 -42 -43 -62 -21 -21 -39 -42 -39 -47 0 -5 -9 -12 -19 -16 -10
-3 -21 -14 -24 -24 -7 -28 -132 -122 -196 -148 -68 -28 -80 -23 -15 6 51 23
118 70 111 78 -3 2 -26 -10 -53 -26 -47 -30 -81 -41 -69 -21 3 5 10 45 15 89
10 85 32 140 74 181 87 85 241 190 278 190 8 0 40 13 73 30 72 35 75 36 75 10
0 -11 3 -20 6 -20 8 0 43 43 44 54 0 5 11 24 24 41 19 24 35 34 66 38 25 3 53
16 74 35 21 19 50 32 79 36 24 4 65 20 90 35 24 16 70 34 101 41 30 6 77 23
103 37 41 21 49 23 57 10 8 -12 15 -13 33 -4 13 5 23 14 23 18 0 4 12 20 28
36 15 16 32 37 37 47 7 11 28 21 55 26 25 4 75 12 111 19 38 6 157 10 284 8
209 -2 232 -13 38 -17 -86 -2 -117 -11 -75 -22 33 -9 328 10 422 27 99 18 149
18 705 -3 244 -9 695 5 743 23 23 9 59 12 96 9 32 -2 69 -4 81 -4z m-2483
-522 c47 -29 62 -51 20 -29 -12 6 -29 11 -40 11 -22 0 -72 36 -72 51 0 15 36
1 92 -33z m-202 23 c-21 -12 -140 -21 -140 -11 0 11 32 17 100 18 34 1 49 -2
40 -7z m-880 -11 c-8 -5 -19 -10 -25 -10 -5 0 -3 5 5 10 8 5 20 10 25 10 6 0
3 -5 -5 -10z m1033 -40 c9 0 17 -4 17 -10 0 -5 18 -15 40 -21 57 -17 42 -23
-24 -9 -39 8 -62 19 -76 37 -27 35 -25 52 3 25 13 -12 31 -22 40 -22z m1058
31 c-8 -5 -30 -7 -50 -4 -20 3 -33 2 -29 -2 7 -7 19 -9 67 -14 8 0 11 -4 7 -8
-12 -12 -317 -12 -313 0 2 7 39 10 104 8 56 -1 103 1 106 6 3 5 -7 7 -24 5
-16 -2 -29 0 -29 5 0 5 39 10 88 11 57 2 82 -1 73 -7z m-1138 -8 c-7 -2 -21
-2 -30 0 -10 3 -4 5 12 5 17 0 24 -2 18 -5z m1427 -29 c25 -15 25 -15 -10 -8
-40 7 -65 24 -34 24 10 -1 30 -7 44 -16z m-1410 -26 c25 -10 81 -31 125 -45
79 -26 113 -43 85 -43 -25 0 -320 104 -320 113 0 12 55 -1 110 -25z m764 26
c26 -10 18 -24 -14 -24 -20 0 -30 5 -30 15 0 16 17 19 44 9z m151 -24 c8 -12
-81 -12 -110 0 -14 6 -2 9 42 9 34 1 65 -3 68 -9z m-641 -20 c32 -5 83 -21
113 -36 42 -19 175 -54 209 -54 3 0 3 -4 0 -9 -8 -12 -97 4 -211 39 -55 17
-109 34 -120 37 -21 7 -48 11 -77 12 -10 1 -18 8 -18 16 0 11 7 14 23 10 12
-2 48 -9 81 -15z m1001 10 c-3 -5 -16 -10 -28 -9 -21 0 -21 1 -2 9 28 12 37
12 30 0z m-452 -17 c-13 -2 -33 -2 -45 0 -13 2 -3 4 22 4 25 0 35 -2 23 -4z
m-893 -13 c0 -5 -2 -10 -4 -10 -3 0 -8 5 -11 10 -3 6 -1 10 4 10 6 0 11 -4 11
-10z m1475 -4 c65 -23 65 -36 4 -100 -30 -32 -74 -67 -99 -78 -49 -22 -182
-35 -244 -24 -30 6 -36 11 -36 32 0 61 57 127 124 145 17 4 54 14 81 22 64 19
120 20 170 3z m-1510 -6 c3 -5 -1 -10 -9 -10 -9 0 -16 5 -16 10 0 6 4 10 9 10
6 0 13 -4 16 -10z m709 -15 c-6 -14 -44 -22 -44 -10 0 4 29 19 47 24 1 1 0 -6
-3 -14z m-629 -20 c28 -14 43 -25 34 -25 -22 0 -86 27 -94 40 -10 15 5 12 60
-15z m562 19 c-3 -3 -12 -4 -19 -1 -8 3 -5 6 6 6 11 1 17 -2 13 -5z m-407 -30
c49 -17 75 -22 83 -15 9 7 20 4 37 -9 l25 -18 -25 -7 c-23 -5 -210 51 -227 69
-15 14 41 4 107 -20z m285 -38 c39 -14 61 -25 50 -25 -31 -1 -136 37 -157 56
-28 25 -21 36 10 13 15 -11 59 -31 97 -44z m1065 -6 c0 -5 -5 -10 -11 -10 -5
0 -7 5 -4 10 3 6 8 10 11 10 2 0 4 -4 4 -10z m477 -40 l72 -29 220 2 c143 1
220 -2 218 -8 -6 -16 -74 -23 -212 -19 -71 1 -170 3 -220 4 -112 2 -236 20
-242 36 -2 7 -13 10 -24 7 -29 -8 -23 5 14 27 39 25 70 21 174 -20z m-370 0
c15 0 35 -4 42 -9 9 -6 22 -6 34 1 10 5 21 7 24 5 10 -11 -57 -37 -95 -37 -29
0 -45 7 -65 28 -35 37 -34 46 3 27 16 -8 42 -15 57 -15z M1565 1184 c-11 -3
-29 -10 -40 -15 -18 -9 -44 -16 -67 -18 -5 -1 -8 -6 -8 -12 0 -6 7 -9 15 -5 8
3 15 2 15 -2 0 -10 179 5 208 18 13 5 41 10 64 10 50 0 41 14 -10 17 -21 1
-64 4 -97 7 -33 2 -69 3 -80 0z M2560 1170 c0 -5 14 -10 31 -10 17 0 28 4 24
10 -3 6 -17 10 -31 10 -13 0 -24 -4 -24 -10z M3846 1171 c-14 -5 -16 -10 -8
-15 7 -4 19 0 28 8 17 17 11 19 -20 7z M3215 1160 c-3 -5 -1 -10 4 -10 6 0 11
5 11 10 0 6 -2 10 -4 10 -3 0 -8 -4 -11 -10z M3313 1163 c-18 -2 -33 -9 -33
-15 0 -6 12 -8 31 -4 17 3 51 6 75 6 24 0 44 5 44 10 0 10 -52 11 -117 3z
M2735 1149 c56 -11 95 -11 95 1 0 6 -28 10 -67 9 -63 -1 -65 -2 -28 -10z
M3620 1150 c0 -5 5 -10 10 -10 6 0 10 5 10 10 0 6 -4 10 -10 10 -5 0 -10 -4
-10 -10z M3770 1150 c0 -5 7 -10 16 -10 8 0 12 5 9 10 -3 6 -10 10 -16 10 -5
0 -9 -4 -9 -10z M3880 1150 c0 -5 5 -10 11 -10 5 0 7 5 4 10 -3 6 -8 10 -11
10 -2 0 -4 -4 -4 -10z M3650 1141 c0 -6 8 -11 18 -11 10 0 22 -4 28 -9 14 -14
54 -23 54 -13 0 5 -17 14 -37 21 -21 7 -44 15 -50 17 -7 3 -13 1 -13 -5z
M3332 1133 c-18 -2 -30 -9 -27 -14 8 -13 34 -11 70 6 32 14 23 16 -43 8z
M1393 1111 c-32 -27 -28 -34 7 -16 17 9 30 20 30 25 0 15 -12 12 -37 -9z
M1625 1120 c-3 -5 1 -10 9 -10 8 0 18 5 21 10 3 6 -1 10 -9 10 -8 0 -18 -4
-21 -10z M3185 1120 c-4 -6 8 -10 31 -10 40 0 39 12 -1 17 -13 2 -26 -1 -30
-7z M1780 1109 c0 -5 11 -9 25 -9 14 0 25 4 25 9 0 5 -11 9 -25 9 -14 0 -25
-4 -25 -9z M1981 1116 c12 -10 59 -15 59 -6 0 5 -14 10 -32 10 -17 0 -29 -2
-27 -4z M3420 1110 c-34 -7 -34 -7 12 -9 26 0 50 4 53 9 7 11 -12 11 -65 0z
M3620 1111 c0 -6 7 -11 15 -11 25 0 95 -32 90 -41 -6 -8 26 -29 45 -29 28 0
-32 57 -72 69 -24 7 -51 15 -60 17 -10 3 -18 1 -18 -5z M3855 1089 c5 -42 15
-50 15 -11 0 17 -4 33 -10 37 -5 3 -7 -7 -5 -26z M1990 1089 c0 -5 9 -9 20 -9
11 0 20 2 20 4 0 2 -9 6 -20 9 -11 3 -20 1 -20 -4z M3580 1091 c0 -5 21 -14
47 -21 26 -6 53 -16 60 -22 9 -7 13 -7 13 1 0 12 -43 33 -92 45 -16 3 -28 2
-28 -3z M3770 1095 c0 -15 32 -65 42 -65 7 0 9 -15 5 -42 -4 -24 -9 -65 -12
-93 -5 -49 -5 -49 9 -20 37 79 25 189 -23 215 -12 6 -21 8 -21 5z M3340 1080
c0 -5 6 -10 14 -10 8 0 18 5 21 10 3 6 -3 10 -14 10 -12 0 -21 -4 -21 -10z
M1400 1045 c-8 -9 -8 -15 -2 -15 12 0 26 19 19 26 -2 2 -10 -2 -17 -11z M3475
1045 l-70 -14 72 3 c41 1 78 7 85 14 15 15 9 15 -87 -3z M2015 1040 c-11 -5
-40 -9 -65 -10 -41 -1 -43 -2 -20 -11 14 -6 45 -8 70 -5 108 13 140 19 140 27
0 11 -99 10 -125 -1z M1805 1029 c-98 -17 -165 -33 -165 -41 0 -5 10 -6 23 -4
12 2 58 11 102 20 44 8 94 17 110 18 l30 3 -30 5 c-16 3 -48 2 -70 -1z M2462
1024 c-9 -7 -15 -14 -12 -17 9 -8 210 -17 210 -9 0 4 -41 15 -91 23 -72 12
-94 13 -107 3z M3150 1030 c0 -6 37 -10 90 -10 53 0 90 4 90 10 0 6 -37 10
-90 10 -53 0 -90 -4 -90 -10z M1205 990 c-33 -11 -80 -22 -105 -25 -50 -7
-131 -38 -170 -65 -14 -9 -38 -20 -55 -24 -16 -4 -36 -12 -43 -18 -7 -6 -34
-22 -60 -34 l-47 -23 36 -1 c21 0 47 8 60 19 14 10 54 31 89 46 36 15 72 33
81 41 9 8 54 21 100 30 79 14 182 48 204 66 16 14 -27 8 -90 -12z M3350 1002
c0 -5 21 -9 48 -11 26 -1 64 -6 85 -10 42 -10 49 0 12 17 -29 14 -145 16 -145
4z M3546 995 c17 -8 44 -17 60 -20 l29 -6 -24 20 c-15 14 -36 21 -60 20 l-36
-1 31 -13z M3690 989 c7 -11 14 -18 17 -15 8 8 -5 36 -17 36 -7 0 -7 -6 0 -21z
M3734 984 c3 -9 9 -27 12 -40 3 -13 10 -24 16 -24 5 0 7 9 4 20 -3 11 -9 29
-12 40 -3 11 -10 20 -16 20 -5 0 -7 -7 -4 -16z M1560 983 c-25 -2 -59 -10 -77
-18 -17 -8 -47 -15 -66 -15 -20 0 -39 -5 -43 -11 -9 -14 62 -7 161 16 67 16
120 36 85 33 -8 -1 -35 -3 -60 -5z M3235 980 c-3 -5 -1 -10 4 -10 6 0 11 5 11
10 0 6 -2 10 -4 10 -3 0 -8 -4 -11 -10z M1700 973 c-36 -7 -50 -23 -19 -23 34
0 69 11 69 21 0 9 -7 9 -50 2z M2320 972 c0 -13 86 -30 183 -37 60 -5 87 -3
87 4 0 6 -15 11 -32 11 -18 0 -71 7 -118 15 -97 17 -120 18 -120 7z M3482 931
c31 -10 64 -26 73 -35 15 -15 45 -22 45 -11 0 3 -21 19 -47 35 -33 21 -59 30
-87 29 l-41 0 57 -18z M3575 925 c39 -32 55 -32 25 0 -13 14 -31 25 -39 25
-11 -1 -6 -9 14 -25z M1712 920 c-63 -9 -79 -20 -30 -20 59 0 128 12 122 21
-6 10 -16 10 -92 -1z M1820 920 c0 -5 5 -10 10 -10 6 0 10 5 10 10 0 6 -4 10
-10 10 -5 0 -10 -4 -10 -10z M3311 922 c0 -4 36 -24 80 -46 44 -21 84 -47 90
-58 6 -11 27 -41 45 -66 19 -24 32 -47 29 -50 -6 -6 -18 8 -66 75 -30 43 -56
63 -81 63 -7 -1 -3 -9 11 -20 13 -11 20 -20 16 -20 -4 0 14 -24 41 -52 33 -36
60 -55 82 -59 17 -3 32 -4 32 -1 0 2 -21 38 -47 79 -43 68 -54 78 -118 110
-86 43 -115 55 -114 45z M2255 904 c80 -18 126 -17 60 2 -27 7 -66 13 -85 13
-29 -1 -25 -3 25 -15z M3430 910 c0 -5 10 -12 23 -16 12 -3 30 -13 40 -22 20
-18 23 -7 3 14 -19 18 -66 36 -66 24z M3700 913 c0 -14 19 -38 25 -32 8 8 -5
39 -16 39 -5 0 -9 -3 -9 -7z M2370 890 c1 -3 7 -14 15 -24 12 -16 23 -18 80
-13 64 6 105 20 105 35 0 5 -45 8 -100 8 -55 -1 -100 -3 -100 -6z M2753 886
c-62 -13 -74 -23 -39 -32 30 -7 116 12 143 31 16 13 15 14 -17 14 -19 -1 -58
-6 -87 -13z M3525 880 c10 -11 23 -20 28 -20 6 0 2 9 -8 20 -10 11 -23 20 -28
20 -6 0 -2 -9 8 -20z M3680 879 c7 -11 14 -18 17 -15 8 8 -5 36 -17 36 -7 0
-7 -6 0 -21z M3150 882 c0 -5 7 -15 15 -22 8 -7 15 -8 15 -2 0 5 -7 15 -15 22
-8 7 -15 8 -15 2z M3213 878 c2 -7 11 -12 20 -10 8 1 32 -7 52 -20 l38 -21
-13 24 c-17 32 -29 39 -68 39 -23 0 -32 -4 -29 -12z M3330 884 c0 -9 41 -44
52 -44 4 0 8 5 8 10 0 6 -6 10 -14 10 -8 0 -16 7 -20 15 -5 15 -26 21 -26 9z
M2975 870 c-3 -6 4 -10 17 -10 13 -1 40 -7 61 -14 20 -8 37 -10 37 -6 0 11 37
5 55 -10 9 -8 24 -15 32 -16 18 -3 55 -35 48 -42 -3 -3 -16 5 -30 18 -14 13
-25 19 -25 13 0 -20 38 -45 59 -38 11 3 23 1 28 -7 19 -31 223 -91 223 -66 0
8 -123 68 -138 68 -4 -1 7 -12 23 -26 l30 -26 -55 28 c-30 15 -79 42 -108 60
-29 19 -56 34 -61 34 -5 0 -11 5 -13 12 -3 7 -20 13 -39 14 -19 1 -47 6 -62
13 -35 14 -74 14 -82 1z M1833 856 c-4 -7 -26 -23 -48 -34 -61 -32 -18 -26 50
7 33 16 67 31 75 34 8 3 -4 6 -27 6 -26 1 -45 -4 -50 -13z M3615 848 c4 -13
16 -43 26 -67 10 -24 19 -53 18 -65 0 -19 -1 -19 -11 4 -13 30 -34 88 -42 114
-12 36 -17 8 -7 -33 6 -23 16 -59 21 -81 9 -34 15 -40 36 -40 23 0 25 3 20 28
-15 63 -50 162 -58 162 -5 0 -6 -10 -3 -22z M1080 840 c-13 -8 -13 -10 2 -10
9 0 20 5 23 10 8 13 -5 13 -25 0z M3761 805 l1 -50 8 40 c5 22 4 44 -1 50 -5
5 -9 -11 -8 -40z M988 818 c-32 -11 -58 -23 -58 -27 0 -10 101 16 114 29 18
18 1 17 -56 -2z M1615 829 c-168 -16 -226 -36 -110 -38 75 -1 205 28 184 42
-2 1 -35 -1 -74 -4z M2825 829 c-16 -6 -49 -7 -72 -5 -38 5 -43 3 -43 -14 0
-15 7 -20 25 -20 43 0 123 21 136 36 14 17 1 18 -46 3z M2933 830 c-36 -15
-27 -20 26 -13 27 3 65 3 83 -1 38 -7 122 -72 113 -87 -4 -5 1 -6 10 -3 9 4
33 0 53 -9 50 -21 137 -47 156 -47 9 0 16 5 16 10 0 6 -10 10 -22 10 -13 0
-45 12 -73 25 -27 14 -57 25 -65 25 -9 0 -26 7 -38 16 -13 9 -26 13 -29 10 -3
-3 -21 8 -41 25 -19 17 -45 35 -59 40 -30 11 -101 11 -130 -1z M3560 825 c7
-9 15 -13 17 -11 7 7 -7 26 -19 26 -6 0 -6 -6 2 -15z M3385 800 c16 -16 31
-28 33 -25 7 7 -39 55 -52 55 -5 0 3 -13 19 -30z M3563 756 c23 -41 46 -75 50
-76 11 0 -69 144 -82 148 -5 2 9 -31 32 -72z M3667 800 c3 -11 9 -20 14 -20
11 0 11 3 3 24 -9 23 -23 20 -17 -4z M2965 784 c-43 -22 -43 -24 6 -24 54 0
82 15 59 30 -20 13 -30 12 -65 -6z M750 749 c-48 -31 -60 -43 -49 -50 11 -7
10 -9 -5 -9 -15 0 -17 -3 -8 -12 8 -8 43 -1 143 33 72 24 124 45 115 47 -19 4
-116 -24 -158 -45 -16 -7 -28 -10 -28 -5 0 5 33 22 73 37 89 35 97 42 52 41
-19 -1 -35 -5 -35 -11 0 -5 -25 -20 -56 -32 -37 -14 -52 -17 -44 -8 6 8 27 19
46 25 19 6 34 16 34 21 0 16 -15 10 -80 -32z M1182 783 c-18 -2 -30 -9 -27
-14 7 -10 85 -1 100 12 9 9 -10 10 -73 2z M2850 739 c0 -5 5 -7 10 -4 6 3 10
8 10 11 0 2 -4 4 -10 4 -5 0 -10 -5 -10 -11z M2950 743 c-18 -6 -40 -32 -40
-47 0 -5 13 3 29 18 25 24 34 27 69 21 21 -3 51 -12 65 -20 15 -8 27 -9 27 -4
0 25 -106 48 -150 32z M3753 717 c-9 -20 -8 -23 12 -25 19 -1 21 2 17 23 -6
31 -16 32 -29 2z M3170 714 c0 -7 66 -34 82 -34 7 0 -7 9 -31 20 -47 22 -51
23 -51 14z M2932 685 c-17 -14 -35 -25 -39 -25 -4 1 -9 -4 -12 -11 -2 -6 1 -9
7 -5 5 3 12 -1 16 -9 3 -8 10 -15 15 -15 6 0 8 7 4 17 -5 13 -2 15 18 8 13 -4
43 -10 65 -12 40 -5 41 -4 37 21 -11 54 -66 69 -111 31z m58 -5 c-20 -13 -40
-13 -40 0 0 6 12 10 28 10 21 0 24 -2 12 -10z M428 673 c-10 -2 -18 -9 -18
-14 0 -6 7 -6 18 -1 9 5 24 12 32 15 13 5 13 5 0 5 -8 0 -23 -2 -32 -5z M3100
668 c0 -23 -20 -34 -31 -17 -6 10 -9 4 -9 -19 l0 -33 25 18 c30 22 36 36 24
54 -7 11 -9 11 -9 -3z M2819 658 c-13 -9 -11 -15 15 -44 28 -33 62 -50 36 -19
-7 8 -9 15 -4 15 4 0 -1 6 -11 14 -11 8 -16 19 -12 30 7 18 -1 20 -24 4z
M3140 660 c0 -5 14 -10 30 -10 17 0 30 5 30 10 0 6 -13 10 -30 10 -16 0 -30
-4 -30 -10z M488 653 c7 -3 16 -2 19 1 4 3 -2 6 -13 5 -11 0 -14 -3 -6 -6z
M440 640 c0 -5 7 -10 16 -10 8 0 12 5 9 10 -3 6 -10 10 -16 10 -5 0 -9 -4 -9
-10z M2780 631 c0 -5 5 -13 10 -16 6 -3 10 -2 10 4 0 5 -4 13 -10 16 -5 3 -10
2 -10 -4z M350 602 c0 -5 26 -12 58 -15 31 -4 71 -9 87 -12 28 -5 27 -4 -6 9
-47 18 -139 31 -139 18z M3095 600 c-3 -5 1 -10 9 -10 9 0 16 5 16 10 0 6 -4
10 -9 10 -6 0 -13 -4 -16 -10z M2817 563 c9 -26 23 -33 66 -33 35 0 115 26
106 34 -2 2 -28 0 -58 -5 -42 -6 -58 -5 -75 6 -28 21 -47 19 -39 -2z M252 537
c-9 -10 8 -13 89 -12 102 0 127 8 62 19 -64 10 -140 7 -151 -7z M286 511 c-46
-4 -71 -11 -74 -20 -3 -10 2 -12 19 -8 13 3 48 9 77 13 28 3 52 10 52 15 0 5
-1 8 -2 7 -2 -1 -34 -4 -72 -7z M378 483 c6 -2 18 -2 25 0 6 3 1 5 -13 5 -14
0 -19 -2 -12 -5z M184 457 c-2 -7 -6 -27 -7 -43 -2 -26 1 -29 27 -27 16 1 34
7 40 13 7 7 0 9 -24 5 l-35 -6 25 15 25 15 -25 2 c-18 1 -9 6 30 19 l55 19
-53 0 c-35 1 -54 -3 -58 -12z M275 390 c-13 -5 -14 -9 -5 -9 8 0 24 4 35 9 13
5 14 9 5 9 -8 0 -24 -4 -35 -9z M198 373 c-16 -2 -28 -9 -28 -14 0 -13 19 -11
55 6 30 13 23 16 -27 8z M230 352 c-54 -20 -70 -30 -70 -42 0 -5 24 2 53 15
28 14 57 25 64 25 6 0 15 5 18 10 9 14 -12 11 -65 -8z M195 300 c-3 -5 -14
-10 -25 -10 -10 0 -20 -7 -24 -15 -3 -8 -2 -15 2 -15 10 0 72 39 72 45 0 9
-19 5 -25 -5z M2580 590 c20 -13 40 -13 40 0 0 6 -12 10 -27 10 -22 0 -25 -2
-13 -10z M2465 541 c-41 -26 -92 -81 -104 -113 -16 -42 -1 -33 54 33 28 33 66
68 85 79 26 14 30 19 15 20 -11 0 -33 -9 -50 -19z M2640 552 c0 -12 19 -26 26
-19 2 2 -2 10 -11 17 -9 8 -15 8 -15 2z M2500 493 c-30 -13 -65 -37 -77 -51
-45 -54 -22 -47 73 23 23 16 50 35 60 42 32 20 2 13 -56 -14z M3120 477 c0 -7
92 -38 98 -32 3 2 -7 9 -22 15 -39 15 -76 23 -76 17z M3158 433 c7 -3 16 -2
19 1 4 3 -2 6 -13 5 -11 0 -14 -3 -6 -6z M2208 343 c23 -2 61 -2 85 0 23 2 4
4 -43 4 -47 0 -66 -2 -42 -4z"/>
</g>
</svg>
