<?xml version="1.0" encoding="UTF-8" standalone="no"?>
<!-- Generator: Adobe Illustrator 24.0.1, SVG Export Plug-In . SVG Version: 6.00 Build 0)  -->

<svg
   xmlns:dc="http://purl.org/dc/elements/1.1/"
   xmlns:cc="http://creativecommons.org/ns#"
   xmlns:rdf="http://www.w3.org/1999/02/22-rdf-syntax-ns#"
   xmlns:svg="http://www.w3.org/2000/svg"
   xmlns="http://www.w3.org/2000/svg"
   xmlns:sodipodi="http://sodipodi.sourceforge.net/DTD/sodipodi-0.dtd"
   xmlns:inkscape="http://www.inkscape.org/namespaces/inkscape"
   version="1.1"
   id="Ebene_1"
   x="0px"
   y="0px"
   viewBox="0 0 481.54955 111.3991"
   xml:space="preserve"
   sodipodi:docname="logo.svg"
   width="481.54953"
   height="111.39909"
   inkscape:version="0.92.5 (2060ec1f9f, 2020-04-08)"><metadata
   id="metadata171"><rdf:RDF><cc:Work
       rdf:about=""><dc:format>image/svg+xml</dc:format><dc:type
         rdf:resource="http://purl.org/dc/dcmitype/StillImage" /><dc:title></dc:title></cc:Work></rdf:RDF></metadata><defs
   id="defs169">
	
	
	
<linearGradient
   gradientTransform="matrix(1,0,0,-1,0,275.8898)"
   y2="115.9899"
   x2="89.7089"
   y1="164.3083"
   x1="173.3987"
   gradientUnits="userSpaceOnUse"
   id="SVGID_1_"><stop
     id="stop135"
     style="stop-color:#A5F729"
     offset="2.550000e-02" /><stop
     id="stop137"
     style="stop-color:#009EE2"
     offset="0.9161" /></linearGradient></defs><sodipodi:namedview
   pagecolor="#ffffff"
   bordercolor="#666666"
   borderopacity="1"
   objecttolerance="10"
   gridtolerance="10"
   guidetolerance="10"
   inkscape:pageopacity="0"
   inkscape:pageshadow="2"
   inkscape:window-width="1920"
   inkscape:window-height="1016"
   id="namedview167"
   showgrid="false"
   fit-margin-top="5"
   fit-margin-left="5"
   fit-margin-right="5"
   fit-margin-bottom="5"
   inkscape:zoom="2.136103"
   inkscape:cx="240.79951"
   inkscape:cy="55.700005"
   inkscape:window-x="0"
   inkscape:window-y="27"
   inkscape:window-maximized="1"
   inkscape:current-layer="Ebene_1" />
<style
   type="text/css"
   id="style133">
	.st0{fill:url(#SVGID_1_);}
	.st1{fill:#141932;}
	.st2{fill:none;}
</style>

<g
   transform="translate(-81.75048,-81.700909)"
   id="g142"><linearGradient
     gradientTransform="matrix(1,0,0,-1,0,275.8898)"
     y2="115.9899"
     x2="89.7089"
     y1="164.3083"
     x1="173.3987"
     gradientUnits="userSpaceOnUse"
     id="linearGradient203"><stop
       id="stop199"
       style="stop-color:#A5F729"
       offset="2.550000e-02" /><stop
       id="stop201"
       style="stop-color:#009EE2"
       offset="0.9161" /></linearGradient><path
     inkscape:connector-curvature="0"
     style="fill:url(#SVGID_1_)"
     id="path140"
     d="m 120.7,188.1 c -4.1,0 -7.7,-0.6 -10.7,-1.7 -4.2,-1.6 -7.3,-4.1 -9.4,-7.7 -2,-3.4 -2.9,-7.5 -3,-11.9 -5.8,-7 -9.4,-16.2 -10.6,-26.7 -1.5,-13.7 3.8,-27.7 14.9,-39.6 0,0 0.1,-0.1 0.1,-0.1 17.5,-16.4 31.8,-14 35.8,-12.9 9.9,2.8 15.4,8.7 16.6,17.6 0.2,1.4 0.2,2.7 0.2,4.1 12.2,2.1 21.2,9.1 22.8,10.4 2.4,1.7 3.1,4.1 1.9,6.5 -3.4,6.7 -23.1,12.7 -30,10.3 -2.7,-0.9 -3.9,-3.1 -3.4,-5.7 0.3,-1.6 0.9,-3.6 1.5,-5.6 1.2,-4.2 2.2,-8.3 2.7,-12.1 -3.9,-0.3 -8.1,0.1 -12.4,1.4 -9.7,3.1 -18.2,9.7 -25.3,19.7 v 0 c -4.7,6.6 -10.3,20 -10.5,31.1 6.1,6.9 14.4,10.8 24.1,11.1 12.2,0.3 21.6,-3.3 26.6,-5.2 0.7,-0.2 1.2,-0.5 1.7,-0.6 0.7,-0.3 1.5,-0.1 2.1,0.4 0.2,0.2 0.4,0.4 0.5,0.6 0.6,1 0.2,1.8 0.1,2.1 -0.1,0.2 -0.3,0.5 -0.5,0.7 -2.1,2.2 -12.1,11.6 -29.8,13.6 -2.2,0.1 -4.1,0.2 -6,0.2 z m -18.3,-16.4 c 0.4,1.8 1,3.4 1.9,4.8 3.5,5.9 10.8,8.3 21.8,7 6.9,-0.8 12.6,-2.8 16.9,-4.9 -4.8,1.2 -10.6,2.1 -17.2,1.9 -8.9,-0.2 -16.9,-3.2 -23.4,-8.8 z m 2.5,-68.2 c -6,6.4 -15.6,19.5 -13.8,36.2 0.9,7.9 3.2,14.8 6.8,20.5 1.5,-11.1 6.7,-22.7 10.8,-28.5 7.6,-10.8 16.8,-17.9 27.5,-21.3 4.9,-1.5 9.6,-1.9 14,-1.6 0.1,-7.8 -3.2,-14.1 -13.6,-17.1 -3.4,-1.1 -15.8,-3.1 -31.7,11.8 z m 49.3,10.1 c -0.6,4.5 -1.8,8.9 -2.9,12.7 -0.6,2.1 -1.1,3.9 -1.4,5.3 -0.1,0.4 -0.1,0.5 0.6,0.8 5.4,1.9 22.6,-3.8 24.8,-8.2 0.2,-0.3 0.3,-0.6 -0.6,-1.2 -0.1,0 -0.1,-0.1 -0.1,-0.1 -0.4,-0.4 -8.9,-7.2 -20.4,-9.3 z"
     class="st0" /></g><g
   transform="translate(-81.75048,-81.700909)"
   id="g160"><path
     style="fill:#141932"
     inkscape:connector-curvature="0"
     id="path144"
     d="m 245.4,122.5 v 7.9 h -15.5 c -4.4,0 -7.6,1.1 -9.5,3.4 -1.9,2.3 -3,6.1 -3,11.3 0,5.2 1,8.9 2.9,11.2 1.9,2.3 5.1,3.4 9.6,3.4 h 15.5 v 7.9 h -15.5 c -6.6,0 -11.6,-1.9 -15.1,-5.6 -3.5,-3.7 -5.2,-9.4 -5.2,-17 0,-7.6 1.8,-13.3 5.2,-17 3.5,-3.7 8.6,-5.6 15.1,-5.6 z"
     class="st1" /><path
     style="fill:#141932"
     inkscape:connector-curvature="0"
     id="path146"
     d="m 274,132.4 c 4.7,0 8.4,1.5 11.2,4.4 2.8,2.9 3.6,7.4 3.6,13.3 0,6 -0.8,10.4 -3.6,13.3 -2.8,2.9 -6.5,4.4 -11.2,4.4 h -6.6 c -4.7,0 -8.5,-1.4 -11.2,-4.4 -2.7,-2.9 -3.6,-7.3 -3.6,-13.3 0,-6 0.8,-10.4 3.6,-13.3 2.7,-2.9 6.5,-4.4 11.2,-4.4 z m -5.9,6.8 c -3.1,0 -5.3,0.9 -6.7,2.5 -1.4,1.7 -1.5,4.5 -1.5,8.3 0,3.8 0.1,6.6 1.5,8.3 1.4,1.7 3.6,2.5 6.7,2.5 h 5.2 c 3.1,0 5.3,-0.8 6.7,-2.5 1.4,-1.7 1.5,-4.4 1.5,-8.3 0,-3.9 -0.1,-6.6 -1.5,-8.3 -1.4,-1.7 -3.6,-2.5 -6.7,-2.5 z"
     class="st1" /><path
     style="fill:#141932"
     inkscape:connector-curvature="0"
     id="path148"
     d="m 335.2,132.4 c 6,0 10.5,1.4 13.5,4.1 2.9,2.7 4.4,6.5 4.4,11.4 v 19.9 h -7.2 v -19.9 c 0,-2.8 -0.8,-4.9 -2.5,-6.4 -1.7,-1.5 -4.4,-2.2 -8.1,-2.2 h -6.9 v 28.5 h -7.2 v -28.5 h -15.9 c -0.6,0 -0.9,0.3 -0.9,1 v 27.5 h -7.1 V 138 c 0,-2.1 0.4,-3.5 1.1,-4.3 0.7,-0.8 2,-1.2 3.8,-1.2 z"
     class="st1" /><path
     style="fill:#141932"
     inkscape:connector-curvature="0"
     id="path150"
     d="m 383.4,132.4 c 4.7,0 8.4,1.5 11.1,4.4 2.7,2.9 3.5,7.4 3.5,13.3 0,6 -0.8,10.4 -3.5,13.3 -2.7,2.9 -6.5,4.4 -11.1,4.4 H 369.7 V 182 h -7.1 v -34.4 c 0,-5.1 1.1,-8.9 3.3,-11.4 2.2,-2.5 5.4,-3.7 9.7,-3.7 z m -13.6,28.4 h 12.9 c 3.1,0 5.3,-0.8 6.7,-2.5 1.4,-1.7 1.5,-4.4 1.5,-8.3 0,-3.9 -0.1,-6.6 -1.5,-8.3 -1.4,-1.7 -3.6,-2.5 -6.7,-2.5 h -5 c -2.9,0 -5,0.7 -6.1,2 -1.2,1.3 -1.8,3.5 -1.8,6.6 z"
     class="st1" /><path
     style="fill:#141932"
     inkscape:connector-curvature="0"
     id="path152"
     d="m 413.6,132.4 v 21.1 c 0,2.1 0.8,3.8 2.2,5.2 1.4,1.4 3.6,2.1 6.5,2.1 h 3.8 c 2.8,0 5,-0.7 6.4,-2.1 1.4,-1.4 2.2,-3.1 2.2,-5.2 v -21.1 h 7 v 21.4 c 0,2.1 -0.3,3.9 -1,5.6 -0.7,1.7 -1.6,3.2 -2.9,4.4 -1.3,1.2 -2.9,2.2 -4.8,2.9 -1.9,0.7 -4.1,1 -6.7,1 h -4.6 c -2.5,0 -4.8,-0.3 -6.7,-1 -1.9,-0.7 -3.5,-1.6 -4.8,-2.9 -1.3,-1.2 -2.3,-2.7 -2.9,-4.4 -0.6,-1.7 -1,-3.6 -1,-5.6 v -21.4 z"
     class="st1" /><path
     style="fill:#141932"
     inkscape:connector-curvature="0"
     id="path154"
     d="m 499.9,132.4 c 4.7,0 8.4,1.5 11.2,4.4 2.8,2.9 3.6,7.4 3.6,13.3 0,6 -0.8,10.4 -3.6,13.3 -2.8,2.9 -6.5,4.4 -11.2,4.4 h -6.6 c -4.7,0 -8.5,-1.4 -11.2,-4.4 -2.7,-2.9 -3.5,-7.3 -3.5,-13.3 0,-6 0.8,-10.4 3.5,-13.3 2.7,-2.9 6.5,-4.4 11.2,-4.4 z m -5.9,6.8 c -3.1,0 -5.3,0.9 -6.7,2.5 -1.4,1.7 -1.5,4.5 -1.5,8.3 0,3.8 0.1,6.6 1.5,8.3 1.4,1.7 3.6,2.5 6.7,2.5 h 5.2 c 3.1,0 5.3,-0.8 6.7,-2.5 1.4,-1.7 1.5,-4.4 1.5,-8.3 0,-3.9 -0.1,-6.6 -1.5,-8.3 -1.4,-1.7 -3.6,-2.5 -6.7,-2.5 z"
     class="st1" /><path
     style="fill:#141932"
     inkscape:connector-curvature="0"
     id="path156"
     d="m 543.7,132.4 c 4.7,0 8.4,1.5 11.1,4.4 2.7,2.9 3.5,7.4 3.5,13.3 0,6 -0.8,10.4 -3.5,13.3 -2.7,2.9 -6.5,4.4 -11.1,4.4 H 530 V 182 h -7 v -34.4 c 0,-5.1 1.1,-8.9 3.3,-11.4 2.2,-2.5 5.4,-3.7 9.7,-3.7 z m -13.6,28.4 H 543 c 3.1,0 5.3,-0.8 6.7,-2.5 1.4,-1.7 1.5,-4.4 1.5,-8.3 0,-3.9 -0.1,-6.6 -1.5,-8.3 -1.4,-1.7 -3.7,-2.5 -6.7,-2.5 h -5 c -2.9,0 -5,0.7 -6.2,2 -1.2,1.3 -1.8,3.5 -1.8,6.6 v 13 z"
     class="st1" /><path
     style="fill:#141932"
     inkscape:connector-curvature="0"
     id="path158"
     d="m 464,161.2 c -2.5,0 -4.8,-2.1 -4.8,-4.8 v -17.2 h 9.8 v -6.8 h -9.8 V 124 h -7.1 v 32.4 c 0,6.4 4.9,11.3 11.3,11.3 h 11.7 v -6.5 z"
     class="st1" /></g></svg>