<svg xmlns="http://www.w3.org/2000/svg" viewBox="0 0 720 720"><defs><style>.cls-1{fill:#c33124;}</style></defs><title>layer_4</title><g id="Слой_2" data-name="Слой 2"><g id="Слой_1-2" data-name="Слой 1"><path class="cls-1" d="M0,0V720H720V0ZM84,53.19c-.78.28-1.57.58-2.36.85C70.9,57.8,62.9,64.65,56.87,73.73c-1.29,2-2.52,3.92-3.68,5.94V53.19ZM666.81,666.81H602.2c.62-1.18,1.21-2.38,1.78-3.59a68.58,68.58,0,0,0,5.47-18c.38-2.42.61-4.85,1-7.26a20.33,20.33,0,0,0,.37-3.64c-.11-6-.28-12-.45-17.92a13.47,13.47,0,0,0-.23-2.29,10.17,10.17,0,0,0-.67-1.7,1,1,0,0,0-1.15-.48,103,103,0,0,0-13.25,7.33A100.56,100.56,0,0,0,579.42,632a73.23,73.23,0,0,0-5.93,7,55.68,55.68,0,0,0-5.77,8.84A68.13,68.13,0,0,0,561,665.35c-.09.39-.34.47-.6.24-.06-.39-.17-.83-.2-1.28-.06-.92-.08-1.84-.1-2.76q-.67-26.64-1.34-53.3a32.12,32.12,0,0,1,.08-3.67,1.77,1.77,0,0,1,.68-1.12,12.14,12.14,0,0,1,2-1.18c2.85-1.49,5.62-3.12,8.37-4.79,6.45-3.91,12.13-8.8,17.68-13.85a24.34,24.34,0,0,0,2.81-3c1.88-2.41,3.66-4.91,5.51-7.34a52.38,52.38,0,0,0,7.44-14.2c2.25-6.34,4.14-12.82,4.46-19.62a3.84,3.84,0,0,1,.12-.91,19.65,19.65,0,0,0,.51-6.39q-.15-6.88-.37-13.78,0-1.61-.24-3.21a4.38,4.38,0,0,0-1-2.49,1,1,0,0,0-.79-.32,7.42,7.42,0,0,0-1.71.61,102.38,102.38,0,0,0-15,8.9,76.9,76.9,0,0,0-11.81,10.18c-1.65,1.81-3.35,3.58-5,5.39a22.08,22.08,0,0,0-1.78,2.09c-4.59,6.38-8.44,13.14-10.56,20.77-.45,1.63-1,3.22-1.52,4.82-.08.21-.37.35-.68.64a22.33,22.33,0,0,1-.29-4.19q-.67-26.66-1.34-53.31c0-1.07,0-2.14,0-3.21a1.9,1.9,0,0,1,1.17-1.82,98.83,98.83,0,0,0,17.93-11.1,72.11,72.11,0,0,0,9.34-8.12,80.59,80.59,0,0,0,7.18-8.35c1.52-2.12,3-4.26,4.31-6.49a69.72,69.72,0,0,0,4.32-9.12,55.32,55.32,0,0,0,3.05-9.61c.74-3.44,1.28-6.91,1.8-10.39A60.59,60.59,0,0,0,605.8,430c-.06-3.83-.21-7.66-.34-11.49a28.35,28.35,0,0,0-.23-3.2,12.18,12.18,0,0,0-.67-2.18c-.17-.49-.7-.82-1-.67a55.3,55.3,0,0,0-5.45,2.41,115.08,115.08,0,0,0-14.59,9.55,93.25,93.25,0,0,0-8,6.92,77.35,77.35,0,0,0-8.91,10.49,61.85,61.85,0,0,0-7.24,13.27c-1.25,3.3-2.27,6.67-3.39,10-.05.16-.37.23-.57.35a8,8,0,0,1-.35-3.2c-.19-6.9-.35-13.79-.53-20.68-.1-4.29-.19-8.58-.32-12.87a6.69,6.69,0,0,1,1-3.93c.33-.52.7-1,1-1.54a100,100,0,0,0,8.65-17.2,77.35,77.35,0,0,0,4.26-15.44c.87-2.34.69-4.84,1.1-7.25a47.09,47.09,0,0,0,.13-7.33c0-.16,0-.31,0-.46.19-4-.73-7.93-1.51-11.81a60.94,60.94,0,0,0-2.14-8,101.6,101.6,0,0,0-7-15.94,91.11,91.11,0,0,0-7.06-11.28c-.74-1-1.56-1.88-2.38-2.79-.56-.61-1.36-.48-1.94.27a7.83,7.83,0,0,0-.57.72,106.87,106.87,0,0,0-8.46,14.72c-1.24,2.8-2.48,5.59-3.52,8.48a70.65,70.65,0,0,0-4.26,19.19,9.16,9.16,0,0,1-.24,1.82,14.89,14.89,0,0,0-.35,4.56c.12,3.36-.09,6.75.93,10a14.2,14.2,0,0,1,.25,2.28,21.31,21.31,0,0,0,.38,2.26,93.27,93.27,0,0,0,8.58,22.7A104.34,104.34,0,0,0,548,424.13a9.34,9.34,0,0,1,1.76,5.57c.1,6.43.3,12.86.45,19.3,0,.76,0,1.53,0,2.29,0,.42-.22.56-.62.39a20.68,20.68,0,0,1-.94-2.42,46.54,46.54,0,0,0-3.79-9.34,66.51,66.51,0,0,0-13.94-18.68c-2.13-2-4.18-4.08-6.48-5.84a92.25,92.25,0,0,0-12.21-8.14c-3.1-1.66-6.11-3.52-9.37-4.87a9.14,9.14,0,0,0-3.91-1.06c-.12.13-.27.23-.31.36a25,25,0,0,0-.92,7.71c.12,2.91.26,5.82.18,8.73-.11,4.33.82,8.53,1.53,12.74a72.86,72.86,0,0,0,4.32,15,67.07,67.07,0,0,0,6.61,12.58,73,73,0,0,0,12,13.84c1.48,1.32,3.15,2.43,4.65,3.73a73,73,0,0,0,13.38,8.85,71.37,71.37,0,0,0,9.86,4.92,1.59,1.59,0,0,1,1,1.43c.11,1.22.15,2.45.18,3.67q.66,26,1.3,51.93c0,1.22,0,2.45,0,3.67,0,.24-.22.47-.34.71-.15-.09-.34-.14-.39-.26a16.9,16.9,0,0,1-.68-1.71,75.36,75.36,0,0,0-5.43-12.14c-3.24-6.17-7.79-11.33-12.51-16.35a24.52,24.52,0,0,0-2.44-2.1c-.82-.68-1.72-1.28-2.5-2a79.81,79.81,0,0,0-9.19-6.86c-3.93-2.71-8.3-4.59-12.48-6.84a29.15,29.15,0,0,0-4.72-1.71.86.86,0,0,0-.75.36,11.93,11.93,0,0,0-1.06,5.34c.06,3.21.21,6.43.13,9.65a72.65,72.65,0,0,0,1.52,14.12,67.47,67.47,0,0,0,4,14.11,62.58,62.58,0,0,0,5.44,11.12c1.62,2.42,3.33,4.78,5,7.13a18.15,18.15,0,0,0,2.09,2.45c3.53,3.39,7.1,6.76,10.66,10.12a20.5,20.5,0,0,0,1.79,1.44,112.62,112.62,0,0,0,19.77,11.6l1.66.79a2.35,2.35,0,0,1,1.52,2.11q.07,1.61.12,3.21.66,26,1.3,51.93c0,1.38,0,2.76,0,4.14,0,.42-.25.55-.69.28-.79-2.13-1.61-4.42-2.47-6.7a52.18,52.18,0,0,0-4.74-9.41,84.15,84.15,0,0,0-7.06-9.61,67.69,67.69,0,0,0-9.87-9.58,103.73,103.73,0,0,0-12.48-8.58,110.24,110.24,0,0,0-13.24-6.36.89.89,0,0,0-1.12.48,27,27,0,0,0-.82,7.28c.09,1.53,0,3.06.09,4.59.18,4.58-.08,9.21,1.17,13.7a1.68,1.68,0,0,1,0,.45,41.09,41.09,0,0,0,1.66,8.54,77.43,77.43,0,0,0,7.28,18.29,67.16,67.16,0,0,0,9.32,12.65H432.66a91.82,91.82,0,0,0,8.28-11.06c5.52-8.61,10.67-17.47,15.93-26.25a9.1,9.1,0,0,0,.54-2.66,21.16,21.16,0,0,0-3.2-.54c-8.14,0-16.29.23-24.42-.1a76.06,76.06,0,0,0-70.66,40.61h-5.05c.36-17.34.71-34.28,1.07-51.66,5.15-3.18,11.81-4.07,18.29-5.48,9-2,18-3.47,26.91-5.77,11.33-2.93,20.06-10.09,27.66-18.69,4.16-4.7,8.18-9.53,12.26-14.29,5.91-6.87,12.53-12.88,20.63-17.13a14.81,14.81,0,0,0,2.22-1.93,33,33,0,0,0-3.91-2.31c-8.7-3.58-17.45-7.08-26.17-10.63-14.79-6-29.84-7-44.55-.46-14.27,6.37-24.3,17.47-31.15,31.46-1.82,3.72-3.78,7.37-5.59,10.88-1.72-20.69-3.67-41.8-2.93-63.27a62.24,62.24,0,0,1,25.2-.72,76.21,76.21,0,0,0,26.18,0c8.32-1.44,15.3-5.45,22.25-9.71,6.22-3.83,12.33-7.85,18.45-11.84A50.51,50.51,0,0,1,458.78,488a7.86,7.86,0,0,0,2.33-1.47c-.14-.77-.07-1.35-.31-1.53-7.6-5.87-15.14-11.85-22.9-17.52-12-8.76-25.3-13-40.18-10.15a61.57,61.57,0,0,0-24.51,10.79,70.13,70.13,0,0,0-19.67,20.85c-.53.89-1.18,1.7-1.86,2.66-2-6.44,5.42-38.65,12-51.85,8.2-.38,15.82,2.55,23.54,5a115.16,115.16,0,0,0,12.66,3.58c10.53,2.09,20.79.63,30.87-2.82,7.9-2.71,15.84-5.36,23.84-7.76,3-.9,6.17-1,9.24-1.55a16.28,16.28,0,0,0,2.79-1c-.23-.91-.2-1.62-.54-2-5.45-6.61-10.81-13.3-16.47-19.74-11.06-12.58-25-18.24-41.58-15.22a62.84,62.84,0,0,0-27.93,12.2,27.69,27.69,0,0,1-4.68,3.14,115.29,115.29,0,0,1,12.36-22c.95-1.36,3-2.14,4.76-2.7,4.38-1.4,8.85-2.49,13.27-3.75,18.56-5.26,31.77-17.11,41.26-33.54q8.33-14.4,16.63-28.82a13,13,0,0,0,.78-2.62,13.87,13.87,0,0,0-3.28-1.69c-12.91-2.48-25.83-2.64-38.51,1.05-14,4.06-24.18,13-31.15,25.62-6.47,11.75-9.08,24.25-6.39,37.56a13.05,13.05,0,0,1-2.32,11.08C379.06,399,376,404.67,372.11,410c.5-2.13,1-4.27,1.51-6.39,2.55-9.84,3.3-19.67,1-29.77-1.87-8.28-6.1-15-11.83-21-8.25-8.57-19-12.87-29.87-16.71-5.84-2.06-11.84-3.71-18.8-5.87.12,3.16-.22,5.48.37,7.51,3.55,12.29,5.16,24.94,7.33,37.49A63.9,63.9,0,0,0,339.6,409.9c6.27,6.42,12.13,13.24,18.32,19.74,2.66,2.79,2.78,5.37,1.51,9-4.24,12.23-8,24.62-11.9,36.89a19.18,19.18,0,0,1-.84-3.14A69.31,69.31,0,0,0,337.31,444c-7.5-12.39-18.74-20-32.64-23.81-16.39-4.5-33.07-3.32-50-3.16-.63,4.54,1.55,7.64,3.41,10.76,3.52,5.92,7.38,11.65,10.76,17.64,2.86,5.1,5.47,10.36,7.83,15.7,8.48,19.19,23.2,31.76,41.78,40.61,7.15,3.41,13.84,7.79,20.68,11.84,3.84,2.26,5.43,5.32,5.5,10.24.25,16.89,1.29,33.77,2.07,51.64-1.36-3.55-2.49-6.28-3.46-9.06a79.9,79.9,0,0,0-10-20.18c-12.37-17.36-29.43-25.41-50.53-25.4-11.16,0-22,2.19-32.83,4.67-5.23,1.21-10.44,2.5-16.16,3.87.61,1.93.73,3.43,1.48,4.49a33.79,33.79,0,0,0,4.87,5.72,186.23,186.23,0,0,1,25.27,28.62c12.5,17.2,29.39,27.5,49.74,32.85,9.29,2.45,18.36,5.75,27.57,8.53,5.45,1.65,7.35,5.22,7.45,10.78.29,15.51.41,31-.89,46.45h-8.08c-2.89-9.19-6.54-18.05-12.55-25.8-13.52-17.42-31.53-26-53.42-25.43-14.4.36-28.76,1.94-43.14,3a14.21,14.21,0,0,0-2.91,1.09c.52,1.36.63,3,1.52,3.74,9.22,7.23,13.76,17.75,19.48,27.42a88.1,88.1,0,0,0,11.92,16H173.84l5.39-10.17c2.9-5.45,1.65-4.52,8-6.29a53.76,53.76,0,0,0,14-5.81,47.67,47.67,0,0,0,7.66-6.07,47.16,47.16,0,0,0,8-8.93,118.8,118.8,0,0,0,8.75-15.76,129.3,129.3,0,0,0,8.6-30,12.68,12.68,0,0,0,.15-2.22q0-10.87.07-21.75c0-3-1-5.86-1.82-8.71a10,10,0,0,0-1.41-2.43,2.86,2.86,0,0,0-2.67-.78,9.3,9.3,0,0,0-4.07,2.15,100.06,100.06,0,0,0-7.83,7.57c-4.37,5-8.43,10.25-12.32,15.62-4.66,6.44-8.84,13.16-13,19.91a118.65,118.65,0,0,0-9.5,19.75A98.35,98.35,0,0,0,177.64,628c-.62,2.92-.82,5.89-1.42,8.78a50,50,0,0,0-.82,9.42c0,1.49,0,3,0,4.46a6.78,6.78,0,0,1-.76,3.24c-.44.83-.86,1.67-1.3,2.5l-5.53,10.47H147.27V603.35c0-1.12-.09-2.24,0-3.35.4-4.06,1-8,3.08-11.77,7.62-14.07,15-28.24,22.48-42.38.52-1,1-2,1.6-3a4.06,4.06,0,0,1,2.11-1.86c1.09-.41,2.21-.77,3.31-1.16,2-.73,4.09-1.35,6-2.21a57.08,57.08,0,0,0,13.5-8.86,20.46,20.46,0,0,0,2.78-2.88c5.17-6.35,9.78-13,12.84-20.55.28-.69.64-1.35,1-2a62.39,62.39,0,0,0,4.25-11.56c1.53-5.75,3.44-11.43,3.73-17.42,1.1-3.25.93-6.62,1-10,.05-3.9-.11-7.81,0-11.71.09-3.4-1-6.61-1.56-9.9a14.47,14.47,0,0,0-1.9-4,2.28,2.28,0,0,0-3-.94,27,27,0,0,0-5.73,3.87,95.67,95.67,0,0,0-7,7.49c-4,4.6-7.77,9.34-11.28,14.27-4.51,6.31-8.6,12.86-12.67,19.44a110.29,110.29,0,0,0-12.27,28.26c-1.11,3.93-2.34,7.86-2.57,12-1,2.5-.91,5.12-1,7.72-.05,2.23-.09,4.46-.1,6.69,0,1.83-.28,3.74,1.5,5.14.2.16.2.72.08,1-.43,1-.92,2.05-1.45,3.05q-7.5,14.22-15,28.43c-.44.83-.88,1.66-1.4,2.45-.16.25-.57.37-.87.55-1.46-2.35-1.4-4.95-1.4-7.55q0-47.42,0-94.83a15.48,15.48,0,0,1,2.21-8.53c.2-.32.35-.66.52-1q9.9-18.71,19.78-37.41c.53-1,1.1-2,1.59-3a4.71,4.71,0,0,1,3.54-2.69,47.5,47.5,0,0,0,7.81-2.44c10.76-3.75,18.76-10.6,24.79-19.68a95.85,95.85,0,0,0,9.27-17.39,109.8,109.8,0,0,0,6-19.2c.54-2.75.69-5.55,1.33-8.24a48.47,48.47,0,0,0,.9-10.52c.06-3-.1-6,0-8.93.18-3.95-.73-7.75-1.43-11.59a9.55,9.55,0,0,0-2.14-4.53,2.54,2.54,0,0,0-3.14-.67,29.4,29.4,0,0,0-9.43,7.45c-.74.86-1.37,1.82-2.17,2.63a99.52,99.52,0,0,0-10,12.37c-5.52,7.68-10.79,15.5-15.61,23.61a119.56,119.56,0,0,0-9.31,19.82,88.49,88.49,0,0,0-3.85,14c-1,5.29-2.16,10.56-2,16,0,1.67-.08,3.35,0,5a11.05,11.05,0,0,1-1.38,5.9c-4.88,9.12-9.69,18.28-14.55,27.41a9.48,9.48,0,0,1-1,1.32,4.67,4.67,0,0,1-.72-.92c-1-2.5-.89-5.11-.89-7.71q0-45.18,0-90.37v-2.79a16.36,16.36,0,0,1,2.15-8c.84-1.48,1.62-3,2.45-4.46a107.53,107.53,0,0,0,8.95-21.77c1.32-4.44,2.83-8.91,2.92-13.61a5.13,5.13,0,0,1,.26-1.65c.84-2.34.72-4.77.82-7.18a36.48,36.48,0,0,1,.37-6.11,33,33,0,0,0,.63-7.2q0-6.14,0-12.27a13.61,13.61,0,0,0-.18-3.33c-.84-3.11-.75-6.27-.86-9.42a21.2,21.2,0,0,0-.74-6.08,13.22,13.22,0,0,1-.4-2.75A48,48,0,0,0,161,239.57a10.08,10.08,0,0,0-1.1-2,3,3,0,0,0-3.67-.85,21.56,21.56,0,0,0-2.81,2c-6.55,5.53-11.2,12.42-15.46,19.55a106.7,106.7,0,0,0-7.9,16.19,102.64,102.64,0,0,0-5.56,19.88,71.33,71.33,0,0,0-1.17,10.5,18.67,18.67,0,0,1-.5,3.3,18,18,0,0,0,0,7.2,21.93,21.93,0,0,1,.56,3.85,26.44,26.44,0,0,0,1.78,8.16,46.67,46.67,0,0,0,12.18,18.84c1.26,1.17,2.51,2.36,3.74,3.55a3.71,3.71,0,0,1,1.12,2.52c0,.74.05,1.48.05,2.23v60.24a9.3,9.3,0,0,1-.08,1.67,1.7,1.7,0,0,1-.53.75.73.73,0,0,1-.47-.23q-8-14.91-16-29.85a5.54,5.54,0,0,1-.54-1.59,45.27,45.27,0,0,1-1-6.59,53.47,53.47,0,0,0-1.39-10.48,88.42,88.42,0,0,0-2.34-9.77c-1.17-3.35-2.25-6.73-3.54-10a89.79,89.79,0,0,0-5.94-12.74c-1-1.79-2.16-3.54-3.26-5.3-2.09-3.36-4.1-6.77-6.31-10.06-4.62-6.91-9.55-13.61-14.85-20.08a112.09,112.09,0,0,0-11.28-11.37,10.4,10.4,0,0,0-4.06-2.19,2.58,2.58,0,0,0-2.56,1,18.64,18.64,0,0,0-2.39,6.83c-.29,1.64-.53,3.3-.82,4.94-.53,2.95-.48,15.87,0,18.91.29,1.65.49,3.31.7,5,.14,1.11.11,2.24.34,3.33.65,3.09,1.32,6.18,2.1,9.25,3.36,13.13,8.77,25.39,17.42,36.26A46.58,46.58,0,0,0,102.4,386a49.19,49.19,0,0,0,14.46,4.57,7.6,7.6,0,0,1,6.19,4.48c5.78,11.19,11.72,22.31,17.64,33.44a12.87,12.87,0,0,1,1.63,6.41c-.1,6.32,0,12.64,0,19v81.45c0,1.11,0,2.23,0,3.34a4.55,4.55,0,0,1-.2,1.09c0,.15-.23.39-.3.38-.35-.09-.88-.16-1-.4q-7.74-14.41-15.4-28.86a8.06,8.06,0,0,1-.79-3.79c0-2.79.18-5.59-.73-8.31a4.82,4.82,0,0,1-.19-1.65c.13-3.57-.69-7-1.33-10.49A97.44,97.44,0,0,0,118.12,471a135.36,135.36,0,0,0-14.63-28.52c-3.95-6-7.94-11.94-12.38-17.63a104,104,0,0,0-8.8-10.45,32.63,32.63,0,0,1-2.63-3c-2.06-2.56-5-4.18-7.64-6a2.31,2.31,0,0,0-.54-.2A3,3,0,0,0,68,406.36a19.68,19.68,0,0,0-1,2c-1.48,3.69-1.46,7.65-2.33,11.45.09,6.3-.76,12.64.8,18.89a14.78,14.78,0,0,1,.21,2.22,75.49,75.49,0,0,0,1.92,11,98.73,98.73,0,0,0,5.32,16.49,106.28,106.28,0,0,0,4.5,9.68,109.76,109.76,0,0,0,7.36,11.42,44.93,44.93,0,0,0,16.61,13.86,66,66,0,0,0,14.85,5.27A4.14,4.14,0,0,1,119.3,511c.52,1,1.08,2,1.61,3q9.36,17.7,18.7,35.42c3.1,5.9,2.66,4.2,2.67,10.63q0,39.88,0,79.77c0,6.69,0,13.38,0,20.08a23.24,23.24,0,0,1-.26,2.75.54.54,0,0,1-.37.29c-.17,0-.47,0-.55-.06a26.75,26.75,0,0,1-1.87-2.8q-11.49-21.69-22.94-43.4c-.35-.66-.69-1.34-1-2a8.87,8.87,0,0,1-1.1-4.29,43.11,43.11,0,0,0-.28-6.13c-.7-4.4-1.4-8.81-2.48-13.13a109.89,109.89,0,0,0-9.31-24.61c-1.4-2.65-3.1-5.17-4.56-7.8-3.11-5.6-6.85-10.84-10.43-16.17a206.44,206.44,0,0,0-15.52-19.61,36,36,0,0,0-8.21-7.15c-3.27-2.05-4.44-1.27-5.81,1.66a13.93,13.93,0,0,0-1.12,3.15A50.24,50.24,0,0,0,55,532.69c.13,3,.17,6,0,8.93-.26,5.06,1.2,10,1.52,14.94,1.36,5,2.55,10.12,4.11,15.09a89.89,89.89,0,0,0,11.51,23.74c3.5,5.14,7.1,10.29,12.75,13.68,5.83,4.7,12.7,7.3,20,9,1.53.36,3,.76,4.59,1a3.54,3.54,0,0,1,2.66,2q1.07,2,2.12,4l22.1,41.77H53.19v-517a33.28,33.28,0,0,0,2.3-2.44c.74-.87,1.37-1.82,2.17-2.63a100.26,100.26,0,0,0,10-12.37c5.52-7.68,10.79-15.5,15.61-23.62a119.56,119.56,0,0,0,9.31-19.82,88.38,88.38,0,0,0,3.85-14c1-5.3,2.16-10.57,2-16,0-1.67.08-3.35,0-5,0-.24,0-.49,0-.73h18.59v65.09c0,.93,0,1.86,0,2.79a16.28,16.28,0,0,1-2.14,8c-.84,1.47-1.62,3-2.45,4.45a108,108,0,0,0-9,21.77c-1.32,4.45-2.84,8.91-2.92,13.62a5.42,5.42,0,0,1-.26,1.65c-.85,2.34-.72,4.76-.82,7.18a36.29,36.29,0,0,1-.37,6.1,33.11,33.11,0,0,0-.63,7.21q0,6.13,0,12.27a13.66,13.66,0,0,0,.18,3.33c.84,3.11.75,6.27.86,9.42a21.18,21.18,0,0,0,.74,6.07,13.22,13.22,0,0,1,.4,2.75,47.92,47.92,0,0,0,2.61,10.27,10,10,0,0,0,1.1,2,3,3,0,0,0,3.67.85,19.81,19.81,0,0,0,2.81-2c6.55-5.52,11.2-12.41,15.46-19.55a106.6,106.6,0,0,0,7.9-16.18,102.64,102.64,0,0,0,5.56-19.88,71.48,71.48,0,0,0,1.17-10.5,18.67,18.67,0,0,1,.5-3.3,18,18,0,0,0,0-7.2,21.93,21.93,0,0,1-.56-3.85,26.38,26.38,0,0,0-1.78-8.16A46.61,46.61,0,0,0,127,128.54c-1.26-1.18-2.51-2.36-3.74-3.56a3.62,3.62,0,0,1-1.12-2.51c0-.74,0-1.49,0-2.23q0-30.12,0-60.25a9.19,9.19,0,0,1,.08-1.66,1.65,1.65,0,0,1,.53-.75.69.69,0,0,1,.47.23q8,14.91,16,29.85a5.58,5.58,0,0,1,.54,1.58,45.4,45.4,0,0,1,1,6.6A53.57,53.57,0,0,0,142,106.32a88.79,88.79,0,0,0,2.34,9.76c1.17,3.35,2.25,6.73,3.54,10a89.68,89.68,0,0,0,5.94,12.73c1,1.79,2.16,3.54,3.26,5.3,2.09,3.36,4.1,6.77,6.31,10.07,4.62,6.9,9.54,13.61,14.85,20.08a111,111,0,0,0,11.28,11.36,10.42,10.42,0,0,0,4.06,2.2,2.56,2.56,0,0,0,2.55-1,18.72,18.72,0,0,0,2.4-6.83c.29-1.65.53-3.3.82-4.94.53-2.95.48-15.88,0-18.92-.29-1.64-.49-3.3-.7-5-.14-1.1-.11-2.24-.34-3.32-.65-3.1-1.32-6.19-2.1-9.25-3.36-13.13-8.77-25.4-17.42-36.26a46.61,46.61,0,0,0-16.84-13.65,49.47,49.47,0,0,0-14.46-4.56,7.64,7.64,0,0,1-6.19-4.48c-4.59-8.88-9.27-17.72-14-26.55h143c0,.5,0,1-.08,1.5a1.77,1.77,0,0,1-.68,1.12,12.14,12.14,0,0,1-2,1.18c-2.85,1.49-5.61,3.13-8.37,4.8-6.45,3.91-12.12,8.8-17.67,13.85a25.16,25.16,0,0,0-2.81,3c-1.88,2.41-3.66,4.91-5.51,7.34a52.32,52.32,0,0,0-7.42,14.2c-2.26,6.34-4.14,12.82-4.46,19.63a3.49,3.49,0,0,1-.11.91,19.32,19.32,0,0,0-.51,6.38q.15,6.9.37,13.79c0,1.07.12,2.14.25,3.2a4.37,4.37,0,0,0,1,2.5,1,1,0,0,0,.79.31,7.42,7.42,0,0,0,1.71-.61,102.09,102.09,0,0,0,15-8.91,77.3,77.3,0,0,0,11.8-10.18c1.65-1.81,3.35-3.58,5-5.39a19.85,19.85,0,0,0,1.79-2.1C263,113.35,266.89,106.59,269,99c.45-1.62,1-3.22,1.53-4.82.07-.21.36-.35.67-.64a23.23,23.23,0,0,1,.3,4.19q.69,26.66,1.36,53.31c0,1.07.05,2.14,0,3.21a1.92,1.92,0,0,1-1.17,1.82,98.46,98.46,0,0,0-17.92,11.11,70.15,70.15,0,0,0-9.34,8.13,80.59,80.59,0,0,0-7.18,8.35c-1.52,2.12-3,4.26-4.31,6.5a70.15,70.15,0,0,0-4.31,9.11,54.55,54.55,0,0,0-3,9.62c-.75,3.43-1.28,6.9-1.8,10.38a60.76,60.76,0,0,0-.52,10.07c.07,3.83.22,7.66.35,11.48a28.53,28.53,0,0,0,.23,3.21,12.44,12.44,0,0,0,.67,2.18c.17.48.71.81,1.06.66a51.93,51.93,0,0,0,5.44-2.41,114.44,114.44,0,0,0,14.59-9.56,93.25,93.25,0,0,0,8-6.92,77.47,77.47,0,0,0,8.9-10.5,61.14,61.14,0,0,0,7.23-13.27c1.25-3.3,2.26-6.67,3.39-10,.05-.16.37-.23.57-.35A8,8,0,0,1,274,197q.29,10.35.54,20.68c.11,4.29.19,8.58.33,12.87a6.69,6.69,0,0,1-1,3.93c-.33.52-.7,1-1,1.54a100,100,0,0,0-8.64,17.21A76.66,76.66,0,0,0,260,268.69c-.87,2.34-.69,4.84-1.1,7.25a45.88,45.88,0,0,0-.12,7.33c0,.16,0,.31,0,.46-.19,4,.73,7.92,1.51,11.81a62.56,62.56,0,0,0,2.14,8,102,102,0,0,0,7.06,15.93,91.11,91.11,0,0,0,7.06,11.28c.74,1,1.56,1.88,2.38,2.78.56.62,1.36.48,1.94-.26.19-.24.41-.46.58-.72a106.85,106.85,0,0,0,8.44-14.73c1.24-2.8,2.48-5.59,3.52-8.48a70.64,70.64,0,0,0,4.25-19.19,9.16,9.16,0,0,1,.23-1.82,14.62,14.62,0,0,0,.36-4.56c-.13-3.36.08-6.75-.94-10a13.15,13.15,0,0,1-.26-2.28,21.29,21.29,0,0,0-.37-2.26,93.5,93.5,0,0,0-8.6-22.69,101,101,0,0,0-6.95-11.35,9.36,9.36,0,0,1-1.76-5.57c-.1-6.43-.31-12.87-.46-19.3,0-.76,0-1.53,0-2.29,0-.42.22-.56.62-.39a20,20,0,0,1,.94,2.42,46.54,46.54,0,0,0,3.79,9.34,66.34,66.34,0,0,0,14,18.66,86.89,86.89,0,0,0,6.48,5.84A92.35,92.35,0,0,0,317,252a103.88,103.88,0,0,0,9.37,4.86,9.15,9.15,0,0,0,3.91,1.07c.11-.14.27-.24.31-.37a25,25,0,0,0,.91-7.71c-.12-2.9-.26-5.82-.19-8.73.11-4.33-.82-8.53-1.53-12.73a71.91,71.91,0,0,0-4.33-15,66.76,66.76,0,0,0-6.61-12.58,73.73,73.73,0,0,0-12-13.84c-1.48-1.32-3.15-2.42-4.65-3.73a73.88,73.88,0,0,0-13.39-8.84,72.46,72.46,0,0,0-9.86-4.91,1.58,1.58,0,0,1-1-1.43c-.12-1.22-.15-2.45-.19-3.67q-.66-26-1.33-51.93c0-1.22,0-2.45,0-3.67,0-.24.23-.47.35-.7.14.09.34.14.39.25a16.9,16.9,0,0,1,.68,1.71,74.06,74.06,0,0,0,5.44,12.13c3.24,6.18,7.79,11.33,12.51,16.35a24.52,24.52,0,0,0,2.44,2.1c.83.67,1.73,1.28,2.51,2a76.75,76.75,0,0,0,9.19,6.86c3.93,2.71,8.31,4.58,12.48,6.83a29.18,29.18,0,0,0,4.72,1.72.87.87,0,0,0,.75-.37,11.91,11.91,0,0,0,1.06-5.33c-.06-3.22-.21-6.44-.14-9.66a71.89,71.89,0,0,0-1.52-14.12,68.11,68.11,0,0,0-4-14.11,61.94,61.94,0,0,0-5.45-11.12c-1.62-2.41-3.33-4.77-5-7.13a18.69,18.69,0,0,0-2.09-2.44C307.17,90.39,303.6,87,300,83.67a17.62,17.62,0,0,0-1.79-1.44,113,113,0,0,0-19.78-11.6l-1.66-.78a2.34,2.34,0,0,1-1.51-2.11c-.05-1.07-.1-2.14-.13-3.21-.1-3.79-.19-7.57-.29-11.35h38.38a113.35,113.35,0,0,0,11.17,5.21.88.88,0,0,0,1.11-.48,36.44,36.44,0,0,0,.78-4.73h15.82l-.15.57c-1.53,5.75-3.44,11.43-3.73,17.42-1.1,3.25-.93,6.62-1,10,0,3.9.12,7.81,0,11.71-.1,3.4,1,6.61,1.56,9.9a14.43,14.43,0,0,0,1.89,4.05,2.29,2.29,0,0,0,3,.94,26.77,26.77,0,0,0,5.74-3.87,93.69,93.69,0,0,0,7-7.49c4-4.6,7.77-9.34,11.29-14.27,4.51-6.31,8.6-12.86,12.67-19.44a101.83,101.83,0,0,0,5.2-9.48H415l0,16.57a15.48,15.48,0,0,1-2.21,8.53c-.2.31-.35.66-.53,1L392.5,116.69c-.53,1-1.11,2-1.6,3a4.71,4.71,0,0,1-3.53,2.7,48.88,48.88,0,0,0-7.82,2.43c-10.75,3.76-18.75,10.61-24.78,19.69a94.62,94.62,0,0,0-9.27,17.39,109.8,109.8,0,0,0-6,19.2c-.55,2.74-.69,5.54-1.33,8.24a47.87,47.87,0,0,0-.91,10.52c0,3,.11,6,0,8.93-.17,3.94.74,7.75,1.43,11.58a9.55,9.55,0,0,0,2.15,4.54,2.53,2.53,0,0,0,3.14.67,29.65,29.65,0,0,0,9.43-7.45c.74-.87,1.37-1.82,2.17-2.63a100.26,100.26,0,0,0,10-12.37c5.52-7.68,10.79-15.5,15.61-23.62a119.84,119.84,0,0,0,9.31-19.81,88.79,88.79,0,0,0,3.85-14c1-5.3,2.16-10.56,2-16-.05-1.67.08-3.35,0-5a11.05,11.05,0,0,1,1.38-5.9c4.88-9.12,9.69-18.28,14.55-27.41a9,9,0,0,1,1-1.32,4.16,4.16,0,0,1,.73.92c1,2.49.88,5.1.88,7.71V189c0,.93,0,1.86,0,2.79a16.24,16.24,0,0,1-2.14,8c-.84,1.47-1.62,3-2.45,4.45a107.85,107.85,0,0,0-8.95,21.78c-1.32,4.44-2.84,8.9-2.92,13.61a5.42,5.42,0,0,1-.26,1.65c-.85,2.34-.72,4.77-.82,7.18a36.48,36.48,0,0,1-.37,6.11,33,33,0,0,0-.63,7.2q0,6.14,0,12.27a13.64,13.64,0,0,0,.18,3.33c.84,3.11.75,6.27.86,9.42a21.18,21.18,0,0,0,.74,6.07,13.32,13.32,0,0,1,.4,2.76,48,48,0,0,0,2.61,10.26,10.08,10.08,0,0,0,1.1,2,3,3,0,0,0,3.67.84,19.81,19.81,0,0,0,2.81-2c6.54-5.52,11.2-12.41,15.46-19.55a106.6,106.6,0,0,0,7.9-16.18,102.64,102.64,0,0,0,5.56-19.88,71.33,71.33,0,0,0,1.17-10.5,18.67,18.67,0,0,1,.5-3.3,18,18,0,0,0,0-7.2,21,21,0,0,1-.56-3.85,26.44,26.44,0,0,0-1.78-8.16,46.61,46.61,0,0,0-12.18-18.84c-1.26-1.18-2.51-2.36-3.75-3.56a3.66,3.66,0,0,1-1.11-2.51c0-.74-.05-1.48-.05-2.23q0-30.12,0-60.24a9.26,9.26,0,0,1,.08-1.67,1.65,1.65,0,0,1,.53-.75.69.69,0,0,1,.47.23q8,14.91,15.95,29.85a5.3,5.3,0,0,1,.55,1.58,45.61,45.61,0,0,1,1,6.6,53.47,53.47,0,0,0,1.39,10.48,87.26,87.26,0,0,0,2.34,9.77c1.17,3.35,2.25,6.73,3.54,10a89.79,89.79,0,0,0,5.94,12.74c1,1.79,2.16,3.53,3.26,5.29,2.09,3.36,4.1,6.77,6.3,10.07,4.63,6.9,9.55,13.61,14.86,20.08a111.06,111.06,0,0,0,11.28,11.37,10.53,10.53,0,0,0,4.06,2.19,2.57,2.57,0,0,0,2.55-1,18.66,18.66,0,0,0,2.4-6.83c.28-1.64.52-3.3.82-4.94.53-2.95.48-15.87-.05-18.92-.29-1.64-.5-3.3-.7-4.95-.14-1.11-.12-2.24-.34-3.33-.65-3.09-1.32-6.18-2.1-9.25-3.37-13.13-8.78-25.4-17.42-36.26a46.66,46.66,0,0,0-16.85-13.65A49.4,49.4,0,0,0,445.38,155a7.6,7.6,0,0,1-6.19-4.48c-5.79-11.19-11.72-22.31-17.64-33.44a12.87,12.87,0,0,1-1.63-6.41c.09-6.32,0-12.64,0-19V53.18h18.94c.28,1.92.68,3.82,1,5.74a99.58,99.58,0,0,0,4.19,15.63,135.56,135.56,0,0,0,14.64,28.51c3.94,6,7.94,12,12.38,17.64a101.47,101.47,0,0,0,8.8,10.44,37.38,37.38,0,0,1,2.63,3c2.06,2.57,4.95,4.19,7.64,6.05a2.87,2.87,0,0,0,.54.2,3,3,0,0,0,3.54-1.24,22.1,22.1,0,0,0,1-2c1.47-3.69,1.46-7.65,2.33-11.45-.09-6.3.76-12.64-.8-18.89a14.78,14.78,0,0,1-.21-2.22,75.49,75.49,0,0,0-1.92-11,98.73,98.73,0,0,0-5.32-16.49,103.73,103.73,0,0,0-4.51-9.68A108,108,0,0,0,477.46,56c-.72-1-1.48-1.92-2.27-2.83H590.81q.09,3.81.2,7.62a34.58,34.58,0,0,1-.08,3.67,1.83,1.83,0,0,1-.68,1.12,12.59,12.59,0,0,1-2,1.18c-2.85,1.49-5.62,3.12-8.37,4.79-6.45,3.92-12.12,8.81-17.67,13.86a23,23,0,0,0-2.81,3c-1.88,2.41-3.66,4.9-5.51,7.34a52.32,52.32,0,0,0-7.42,14.2c-2.26,6.34-4.14,12.82-4.46,19.63a3.49,3.49,0,0,1-.11.91,19.32,19.32,0,0,0-.51,6.38q.15,6.9.37,13.79c0,1.07.12,2.14.24,3.2a4.38,4.38,0,0,0,1.05,2.5,1,1,0,0,0,.79.31,7.59,7.59,0,0,0,1.71-.61,102.61,102.61,0,0,0,15-8.91A77.3,77.3,0,0,0,572.38,137c1.64-1.82,3.34-3.58,5-5.39a25.45,25.45,0,0,0,1.79-2.1c4.58-6.38,8.42-13.14,10.54-20.77.45-1.63,1-3.22,1.52-4.82.07-.21.37-.35.68-.64a22.33,22.33,0,0,1,.29,4.19q.69,26.65,1.37,53.31c0,1.07,0,2.14,0,3.21a1.9,1.9,0,0,1-1.17,1.82,98.8,98.8,0,0,0-17.92,11.11,71.43,71.43,0,0,0-9.34,8.13,79.56,79.56,0,0,0-7.18,8.35c-1.51,2.12-3,4.26-4.3,6.49a69,69,0,0,0-4.31,9.12,55.16,55.16,0,0,0-3,9.62c-.74,3.43-1.27,6.9-1.79,10.38a60.64,60.64,0,0,0-.52,10.06c.07,3.83.22,7.66.35,11.49a28.69,28.69,0,0,0,.23,3.21,12.44,12.44,0,0,0,.67,2.18c.17.48.7.81,1,.66a53.29,53.29,0,0,0,5.45-2.41,114.33,114.33,0,0,0,14.58-9.56,93.38,93.38,0,0,0,8-6.92,78.09,78.09,0,0,0,8.9-10.5A61.38,61.38,0,0,0,590.44,214c1.25-3.3,2.26-6.67,3.38-10,.06-.16.37-.23.57-.35a8,8,0,0,1,.35,3.2q.3,10.33.54,20.68c.11,4.29.2,8.58.34,12.87a6.69,6.69,0,0,1-1,3.93c-.33.51-.69,1-1,1.54A99.57,99.57,0,0,0,585,263a76.77,76.77,0,0,0-4.26,15.45c-.87,2.33-.68,4.84-1.09,7.25a47.07,47.07,0,0,0-.13,7.33c0,.16,0,.31,0,.46-.18,4,.73,7.92,1.52,11.81a60.38,60.38,0,0,0,2.14,8,101.64,101.64,0,0,0,7.05,15.94,91.93,91.93,0,0,0,7.07,11.28c.73,1,1.56,1.88,2.38,2.78.56.61,1.36.48,1.94-.26.19-.24.41-.47.57-.72a106.92,106.92,0,0,0,8.45-14.73c1.24-2.8,2.47-5.6,3.51-8.48a70.33,70.33,0,0,0,4.25-19.2,9.06,9.06,0,0,1,.24-1.81,15,15,0,0,0,.35-4.57c-.13-3.36.09-6.74-.94-10a14.08,14.08,0,0,1-.25-2.27c-.1-.76-.2-1.52-.37-2.27a93.82,93.82,0,0,0-8.6-22.69,104.42,104.42,0,0,0-6.95-11.35,9.31,9.31,0,0,1-1.76-5.56c-.1-6.43-.31-12.87-.46-19.3,0-.77,0-1.53,0-2.3,0-.41.22-.56.62-.38a20,20,0,0,1,.94,2.42,46.54,46.54,0,0,0,3.79,9.34,66.34,66.34,0,0,0,14,18.66,83.09,83.09,0,0,0,6.48,5.84,91.7,91.7,0,0,0,12.22,8.14,105.14,105.14,0,0,0,9.37,4.86,9.1,9.1,0,0,0,3.91,1.06c.11-.13.27-.23.3-.36a24.77,24.77,0,0,0,.91-7.71c-.11-2.91-.25-5.82-.18-8.73.11-4.33-.82-8.53-1.53-12.74a73.51,73.51,0,0,0-4.33-15,66.45,66.45,0,0,0-6.62-12.57,72.7,72.7,0,0,0-12-13.84c-1.48-1.32-3.15-2.43-4.65-3.73a73.88,73.88,0,0,0-13.39-8.84,72.45,72.45,0,0,0-9.86-4.91,1.62,1.62,0,0,1-1-1.43c-.11-1.22-.15-2.45-.18-3.67q-.67-26-1.33-51.93c0-1.23,0-2.45,0-3.68,0-.23.22-.46.35-.7.14.09.33.14.38.26a15.44,15.44,0,0,1,.68,1.7A75.89,75.89,0,0,0,604,132c3.24,6.18,7.8,11.33,12.52,16.35a24.43,24.43,0,0,0,2.44,2.09c.82.68,1.72,1.28,2.5,2a79.81,79.81,0,0,0,9.19,6.86c3.93,2.71,8.31,4.58,12.49,6.83a28.23,28.23,0,0,0,4.72,1.71.83.83,0,0,0,.74-.36,11.69,11.69,0,0,0,1.06-5.34c-.06-3.21-.21-6.43-.13-9.65A72.57,72.57,0,0,0,648,138.37a67.52,67.52,0,0,0-4-14.11,61.24,61.24,0,0,0-5.44-11.12c-1.62-2.42-3.33-4.78-5-7.13a18.62,18.62,0,0,0-2.08-2.44q-5.31-5.08-10.67-10.12a19.14,19.14,0,0,0-1.8-1.43,111.9,111.9,0,0,0-19.77-11.6c-.56-.25-1.11-.52-1.66-.78A2.34,2.34,0,0,1,596,77.53c-.06-1.07-.1-2.14-.13-3.22l-.54-21.13h24l.1.08a102.91,102.91,0,0,0,12.49,8.56,108.8,108.8,0,0,0,13.24,6.36.87.87,0,0,0,1.11-.49,26.92,26.92,0,0,0,.82-7.27c-.09-1.53,0-3.06-.09-4.6,0-.88-.05-1.76-.07-2.64h19.91V666.81Z"/></g></g></svg>