<svg xmlns="http://www.w3.org/2000/svg" viewBox="0 0 720 720"><defs><style>.cls-1{fill:#f98365;}</style></defs><title>layer_3</title><g id="Слой_2" data-name="Слой 2"><g id="Слой_1-2" data-name="Слой 1"><path class="cls-1" d="M0,0V720H720V0ZM616.77,646.38c-.12-11.64,1.25-23.16,2.77-34.68.46-3.44,1.89-5.52,5.38-6.16,5.9-1.07,11.76-2.48,17.69-3.35a56.33,56.33,0,0,0,24.2-9.07v21l-.47-.06c-13.54-1.88-25.3,2.16-34.91,12-5.2,5.33-8.34,11.93-11.12,18.72a19,19,0,0,1-3.32,5.82C616.89,648.66,616.78,647.52,616.77,646.38Zm50-302.46c-1.53-3.56-3.18-7.07-4.86-10.8,1.47-2.46,1.62-5.29,1.77-8.26.19-3.73,1.24-7.41,1.91-11.12.38-2.07.8-4.13,1.18-6.2Zm0,210.68c-12.43-1.05-23.06,2.82-31.6,12.33a49.63,49.63,0,0,0-7.6,11.81c-.8,1.66-1.69,3.27-2.79,5.38,1.75-11,3.58-21.42,4.92-31.87.39-3,1.59-4.83,4.13-6,4.52-2,9-4.27,13.65-5.88a56.94,56.94,0,0,0,19.29-10.75v25ZM551.27,53.19a4.08,4.08,0,0,1-3,0Zm-210.49,0a11.56,11.56,0,0,1-2.88,0Zm-39.63,0c.08.13.16.26.25.39a2.47,2.47,0,0,0,1.14.91c-.22-.43-.43-.87-.64-1.3H306c.14.37.26.74.38,1.11a3.8,3.8,0,0,1-.18,2.27A2.69,2.69,0,0,1,303,58.31a6.21,6.21,0,0,1-4.88-2.82,14.13,14.13,0,0,1-1.09-2.3ZM60.07,225.65a14.27,14.27,0,0,0-3.74-.48,17.31,17.31,0,0,0-3.14.3V220a32.33,32.33,0,0,0,2.8,1.62,15.6,15.6,0,0,0,9.76,1.95A8.44,8.44,0,0,0,72.56,218a3.5,3.5,0,0,0-.51-3.92,5.84,5.84,0,0,0-2.27-1.48,19.81,19.81,0,0,0-8.77-.65c-2.61.26-5.22.52-7.82.72v-4.74c3.78-3.62,8.67-7.61,10.41-8.32.45.58.87,1.2,1.35,1.75,3.63,4.18,8,6.67,13.43,6.81a7.85,7.85,0,0,0,7.75-4.67c1-2,.64-3.73-1.07-4.83a8,8,0,0,0-1.93-.81,18.76,18.76,0,0,0-7.54-.38c-2.54.26-5.08.53-7.62.73a12.85,12.85,0,0,1-2.14-.16,112.88,112.88,0,0,1,23-13.25,22.89,22.89,0,0,0,6.72,8,15.93,15.93,0,0,0,8.32,3.38,6,6,0,0,0,5-1.82,4.92,4.92,0,0,0,.44-6.9,6.9,6.9,0,0,0-4.44-2.3c-2.57-.34-5.19-.35-7.77-.58-1.74-.15-3.47-.43-5.2-.65a99.75,99.75,0,0,1,20.29-7.33,19.4,19.4,0,0,0,4.24,8.42c2.63,3,5.53,5.56,9.49,6.16a6.65,6.65,0,0,0,4.17-.58,4.61,4.61,0,0,0,1.34-7.4,7.65,7.65,0,0,0-2.23-1.64c-1.86-.83-3.76-1.57-5.68-2.24s-4-1.23-6-1.91a22.53,22.53,0,0,1-2.53-1.21,98.19,98.19,0,0,1,18.72-3.88c.16.54.26.91.38,1.27a20.72,20.72,0,0,0,9.85,12,6.05,6.05,0,0,0,7.57-.91,4,4,0,0,0,.65-5.49,7.68,7.68,0,0,0-2.68-2.44,59.46,59.46,0,0,0-6.49-2.42c-1.06-.37-2.19-.51-3.25-.86s-2-.79-2.93-1.19A112.46,112.46,0,0,1,156,170.84c.21.24.28.28.3.35.14.52.24,1.06.4,1.57,1.7,5.41,4.54,9.73,9.22,12.25,2.41,1.31,4.77,1,6.93-1.1s2.4-5.37.09-7.33a10.17,10.17,0,0,0-3.56-1.77c-1.8-.58-3.68-.88-5.52-1.36a15.48,15.48,0,0,1-4.8-2.29c.43-.18.63-.33.81-.32,1.83,0,3.67,0,5.48.2a40.81,40.81,0,0,1,6.81,1.11c2.21.64,4.27,1.82,6.43,2.64,1.77.67,3.58,1.25,5.4,1.74a4.61,4.61,0,0,0,4.41-1.28,3.34,3.34,0,0,0,.15-5.11,6.65,6.65,0,0,0-1.44-.89,9.65,9.65,0,0,0-5.94-.94c-2.87.39-5.72,1.17-8.59,1.72a12.65,12.65,0,0,1-3.12.25c-4.13-.28-8.26-.64-12.39-1-.51,0-1-.13-2-.25,1.3-.89,2.19-1.58,3.13-2.15,2.68-1.6,5.42-3.05,8-4.76a20.22,20.22,0,0,0,4.32-3.64c2.42-2.81,1.65-5.86-1.57-6.85a4.29,4.29,0,0,0-1.25-.15,9.11,9.11,0,0,0-6.32,2.62,23.65,23.65,0,0,0-6.17,8.41c-.87,2-1.44,4.19-2.18,6.38l-21.29,1.28c1.14-1.08,2-2,2.88-2.73,2.22-1.82,4.52-3.52,6.72-5.39a32.68,32.68,0,0,0,4.09-4,5.2,5.2,0,0,0,1.11-4.9,3.42,3.42,0,0,0-3.69-2.45,8.54,8.54,0,0,0-3.64,1.1,13.37,13.37,0,0,0-4.59,4.76,30.19,30.19,0,0,0-4.5,11.7c-.12.76-.33,1.52-.49,2.23l-18.5,3.94s-.11-.07-.14-.12a2.63,2.63,0,0,1-.21-.43c.88-1.15,1.76-2.43,2.76-3.59,2.58-3,5.23-5.88,7.83-8.84a11.47,11.47,0,0,0,3-5.52,4.52,4.52,0,0,0-2.2-5,5.15,5.15,0,0,0-6.17,1,15.76,15.76,0,0,0-3.09,3.73,33.81,33.81,0,0,0-4.34,14c-.18,1.87-.16,3.75-.22,5.41l-22.76,8.41c1-1.34,1.89-2.61,2.88-3.76,2.33-2.69,4.71-5.32,7-8a16.29,16.29,0,0,0,3.44-5.28c.74-2.08.3-4.67-1-5.88a3.88,3.88,0,0,0-5.13-.18,12.48,12.48,0,0,0-2.65,2.49,32.12,32.12,0,0,0-5.65,10.85c-1.08,3.6-1.78,7.27-1.05,10.86-4.32,2.45-8.5,4.64-12.54,7.15s-7.82,5.28-11.72,7.93a79.41,79.41,0,0,1,3.06-9.88c1.34-3.57,2.89-7.07,3.57-10.87a12.44,12.44,0,0,0,.19-3.54c-.28-2.3-1.87-3.56-3.92-3A7.36,7.36,0,0,0,59.16,174a10,10,0,0,0-3,5.52,61,61,0,0,0-1.29,8c-.33,4.58.13,9,2.34,12.92a2,2,0,0,1,.18.64c-1.42,1.39-2.82,2.77-4.23,4.14V154.5a40.11,40.11,0,0,0,9.65,4.87,23.49,23.49,0,0,0,11.34,1.26,17.7,17.7,0,0,0,11.88-7.2c2.88-3.85,2.58-7.77-.9-10a23.64,23.64,0,0,0-5.58-2.54c-5.44-1.71-11.26-1.34-17-1.44-3.14-.05-6.27-.18-9.39-.35v-8.33a207,207,0,0,1,17.3-11.46,9.36,9.36,0,0,1,.75,1.38c1.83,5.92,5.36,10.49,9.5,14.55S89.28,142.19,95,143c5.09.73,9.58-.92,13.3-5.49,1.67-2.07,2.09-4.25,1.1-6.34a9.36,9.36,0,0,0-2.83-3.4c-3.9-2.94-8.55-4.24-13.32-5.23s-9.71-2-14.53-3.11a28.37,28.37,0,0,1-4.45-1.87c5.78-4.31,24.44-12.58,29-13,.41,1.12.77,2.27,1.25,3.36,3.64,8.26,9.3,14.26,17.61,17.06,5,1.69,9.94,1,14.29-3.54,2.54-2.66,2.79-5.48.66-8a12.44,12.44,0,0,0-2.61-2.19c-3.46-2.35-7.44-3.42-11.54-4.24s-8.14-1.61-12.19-2.52a20.61,20.61,0,0,1-3.26-1.28,184.29,184.29,0,0,1,42.11-9.53,37.34,37.34,0,0,0,6.59,15.68,26,26,0,0,0,11.3,9.27,9.79,9.79,0,0,0,8.6-.44,8,8,0,0,0,4-10.53,11.27,11.27,0,0,0-5.79-5.71c-3.83-1.77-7.89-3-11.8-4.64-2.64-1.07-5.19-2.34-7.77-3.52a162,162,0,0,1,35.08-1.61,31.43,31.43,0,0,0,2.53,15.12c2.64,6,5.92,11.32,11.79,14.15a10.76,10.76,0,0,0,6.76,1.1,7.5,7.5,0,0,0,5.64-10.85,12.27,12.27,0,0,0-2.68-3.62c-2.48-2.2-5.08-4.25-7.74-6.22s-5.67-3.85-8.43-5.87a37.61,37.61,0,0,1-3.35-3.1,160.86,160.86,0,0,1,31,3c0,.92,0,1.54,0,2.16.33,9.36,3.47,17.22,9.54,23.35,3.3,3.33,7.38,4.57,12.21,2.22,3.34-1.62,4.84-4.82,3.66-8.21a12.56,12.56,0,0,0-3-5.08,101.42,101.42,0,0,0-8.92-6.9c-1.48-1.07-3.17-1.84-4.66-2.89s-2.65-2.17-4-3.26a184.74,184.74,0,0,1,30.64,7.13c.21.47.3.58.3.69,0,.88-.15,1.77-.14,2.64,0,9.23,2.38,17.31,8.43,23.48,3.13,3.19,6.95,3.82,11.3,1.63,4.66-2.35,6.33-7.19,3.69-11.36a17,17,0,0,0-4.69-4.46c-2.52-1.76-5.3-3.14-7.92-4.77a24.88,24.88,0,0,1-6.37-5.88,5,5,0,0,1,1.42-.1c2.82,1,5.7,1.77,8.42,3a66.42,66.42,0,0,1,10.06,5c3.13,2,5.76,4.87,8.72,7.2a89.8,89.8,0,0,0,7.56,5.29,7.43,7.43,0,0,0,7.46.13c3.26-1.55,4.41-4.91,2.7-7.86a11.12,11.12,0,0,0-1.8-2.08,15.76,15.76,0,0,0-8.79-4.32c-4.66-.78-9.46-.93-14.18-1.46a20.82,20.82,0,0,1-5-1.12c-6.29-2.42-12.53-5-18.78-7.48-.79-.32-1.55-.7-3-1.35,2.44-.76,4.16-1.4,5.9-1.82,4.93-1.21,9.9-2.14,14.8-3.54a33,33,0,0,0,8.46-3.58c5.12-3.21,5.39-8.32.86-11.41a7.7,7.7,0,0,0-1.87-.84c-3.66-1.24-7.38-.63-11.1,1a38.31,38.31,0,0,0-13.63,10.1c-2.33,2.72-4.26,5.81-6.46,8.87l-33.72-8.26c2.29-1.14,4-2.14,5.79-2.87,4.33-1.76,8.73-3.29,13-5.13a53.39,53.39,0,0,0,8.28-4.23,8.43,8.43,0,0,0,4.07-7.08c0-3.19-2-4.9-4.54-5.58a13.93,13.93,0,0,0-6.2-.06c-3.48.7-6.56,2.79-9.43,5.2a49.59,49.59,0,0,0-12.62,16c-.57,1.13-1.25,2.21-1.83,3.23-10.31-.93-20.49-1.84-30.66-2.77-.07,0-.14-.16-.17-.26a5.69,5.69,0,0,1-.11-.76c1.91-1.37,3.9-2.95,6-4.26,5.45-3.39,11-6.62,16.43-10,2.92-1.79,5.65-3.85,7.34-7.13s1.29-6.63-1-8.88c-2.82-2.77-6.33-3.19-10.07-1.48a26.07,26.07,0,0,0-6.58,4.32,54.78,54.78,0,0,0-13.5,19.7c-1.18,2.82-2.06,5.75-2.95,8.3l-39.43,2.11c2.23-1.59,4.2-3.14,6.29-4.45,4.9-3.07,9.87-6,14.8-9a26.82,26.82,0,0,0,7.89-6.55c2.15-2.89,2.72-7.13,1.28-9.63-1.54-2.69-4.42-3.83-7.89-2.75a20.66,20.66,0,0,0-5.32,2.6,52.23,52.23,0,0,0-14,14.14c-3.41,5.09-6.26,10.45-6.86,16.39C133.58,92.63,126,94,118.54,96s-14.7,4.44-22.05,6.69A126.9,126.9,0,0,1,106,88.78c3.79-4.91,7.88-9.61,10.77-15.19a19.77,19.77,0,0,0,2-5.39c.66-3.72-1.21-6.45-4.64-6.63a12.14,12.14,0,0,0-5.53,1.1,16.32,16.32,0,0,0-7.3,7.15,98.49,98.49,0,0,0-5.86,11.83c-2.72,7-4.14,14.09-2.57,21.21a3.66,3.66,0,0,1,0,1.08L64,118.83c.75-1.31,1.42-2.68,2.26-3.93C72,106.43,77.76,98,83.47,89.49a23.38,23.38,0,0,0,4.2-10.67c.37-3.65-1.21-5.59-4.55-5.86a10.4,10.4,0,0,0-6.57,1.68,19.68,19.68,0,0,0-5.94,5.94,72.54,72.54,0,0,0-8.39,18.73c-2.26,7.48-3.52,15-2.19,22.26l-6.85,5.11V53.19H279.93a9.32,9.32,0,0,0,4.89.81,4.21,4.21,0,0,0,2.27-.81h8.45c.2.55.42,1.1.67,1.65a7.84,7.84,0,0,0,7.63,4.86c2.27,0,3.62-1.08,3.85-3.1a8.11,8.11,0,0,0-.13-2.09q-.12-.67-.3-1.32h13.79l.73.6a22.83,22.83,0,0,0-4.18,9.58,16,16,0,0,0,.66,8.95A6,6,0,0,0,322.1,76a4.92,4.92,0,0,0,6.38-2.68,6.91,6.91,0,0,0,.09-5c-.84-2.45-2-4.8-2.94-7.21-.64-1.63-1.16-3.3-1.73-5A99.48,99.48,0,0,1,339.49,71a19.16,19.16,0,0,0-5.65,7.54c-1.54,3.69-2.53,7.43-1.3,11.24a6.61,6.61,0,0,0,2.37,3.47,4.61,4.61,0,0,0,7.22-2.09,7.37,7.37,0,0,0,.48-2.72c-.08-2-.27-4.07-.52-6.08s-.69-4.16-1-6.24a23.89,23.89,0,0,1,0-2.81,99.59,99.59,0,0,1,11.8,15.05c-.41.38-.7.63-1,.9a20.75,20.75,0,0,0-6.34,14.14,6.07,6.07,0,0,0,4.19,6.38A4,4,0,0,0,355,108a7.74,7.74,0,0,0,1-3.48,61.33,61.33,0,0,0-.71-6.9c-.15-1.11-.52-2.19-.69-3.3s-.16-2.09-.23-3.14a113.51,113.51,0,0,1,9.81,16.65c-.12.29-.12.38-.17.42-.41.36-.85.69-1.24,1.06-4.09,3.93-6.69,8.4-6.87,13.7-.09,2.75,1.25,4.71,4.06,5.72,3,1.08,5.89-.24,6.62-3.18a10.4,10.4,0,0,0,0-4c-.28-1.87-.84-3.69-1.23-5.55a15.23,15.23,0,0,1-.08-5.32c.34.31.56.42.64.59.78,1.65,1.63,3.28,2.26,5a39.6,39.6,0,0,1,2,6.6c.42,2.26.28,4.63.5,6.93a55.8,55.8,0,0,0,.84,5.61,4.59,4.59,0,0,0,3.11,3.37,3.34,3.34,0,0,0,4.64-2.13,6.31,6.31,0,0,0,.16-1.68,9.71,9.71,0,0,0-1.8-5.75c-1.63-2.4-3.59-4.6-5.36-6.92a12.53,12.53,0,0,1-1.61-2.69c-1.59-3.82-3.1-7.68-4.63-11.52-.2-.49-.35-1-.66-1.89,1.38.76,2.39,1.25,3.31,1.85,2.63,1.68,5.15,3.49,7.85,5.08a20.13,20.13,0,0,0,5.18,2.25c3.59.92,6-1.13,5.44-4.46a4.76,4.76,0,0,0-.42-1.18,9.08,9.08,0,0,0-5.17-4.49,23.57,23.57,0,0,0-10.27-1.79c-2.2.12-4.39.57-6.68.89L354,85.84c1.48.53,2.64.87,3.72,1.36,2.63,1.18,5.17,2.48,7.82,3.62a32.15,32.15,0,0,0,5.39,1.89,5.19,5.19,0,0,0,4.87-1.18,3.4,3.4,0,0,0,.56-4.39,8.5,8.5,0,0,0-2.6-2.78,13.43,13.43,0,0,0-6.31-2,30.43,30.43,0,0,0-12.48,1.18c-.74.23-1.51.38-2.21.55L341,69.28s0-.13,0-.19.09-.11.29-.37c1.42.27,3,.49,4.44.87,3.82,1,7.6,2.07,11.41,3.08a11.33,11.33,0,0,0,6.28.24,4.51,4.51,0,0,0,3.53-4.2,5.17,5.17,0,0,0-3.61-5.11,16.12,16.12,0,0,0-4.71-1.1,33.66,33.66,0,0,0-14.48,2.35c-1.76.67-3.43,1.52-4.95,2.2L324.49,53.18h8.69l3.31.9a16.59,16.59,0,0,0,6.26.73,6.68,6.68,0,0,0,3.55-1.62H528.82l-7.53,9.47c-.7-.17-1.47-.33-2.21-.56a30.43,30.43,0,0,0-12.48-1.17,13.57,13.57,0,0,0-6.31,2,8.53,8.53,0,0,0-2.6,2.79,3.4,3.4,0,0,0,.56,4.38,5.19,5.19,0,0,0,4.88,1.19,33.75,33.75,0,0,0,5.39-1.89c2.64-1.14,5.19-2.45,7.81-3.63,1.08-.48,2.25-.82,3.72-1.36L509.44,82.9c-2.29-.32-4.49-.77-6.68-.88a23.44,23.44,0,0,0-10.28,1.78,9.1,9.1,0,0,0-5.17,4.5,4.59,4.59,0,0,0-.41,1.18c-.55,3.33,1.84,5.37,5.43,4.45a20.3,20.3,0,0,0,5.18-2.24c2.7-1.59,5.22-3.4,7.85-5.09.93-.59,1.94-1.08,3.31-1.85-.31.9-.46,1.41-.65,1.89-1.54,3.85-3,7.7-4.64,11.53a12.23,12.23,0,0,1-1.61,2.68c-1.76,2.33-3.73,4.53-5.36,6.93a9.66,9.66,0,0,0-1.8,5.74,6.42,6.42,0,0,0,.16,1.69,3.34,3.34,0,0,0,4.64,2.13,4.6,4.6,0,0,0,3.11-3.38,55.37,55.37,0,0,0,.84-5.61c.22-2.3.08-4.67.5-6.93a41.17,41.17,0,0,1,2-6.6c.63-1.7,1.49-3.33,2.26-5,.08-.17.3-.28.65-.59a15.52,15.52,0,0,1-.09,5.33c-.39,1.85-.95,3.67-1.23,5.55a10.4,10.4,0,0,0,0,4c.74,2.94,3.6,4.25,6.62,3.17,2.82-1,4.16-3,4.06-5.71-.18-5.31-2.78-9.78-6.87-13.71-.38-.37-.82-.7-1.23-1-.05-.05-.06-.13-.18-.43a114,114,0,0,1,9.81-16.65c-.07,1.05-.08,2.11-.23,3.15s-.54,2.18-.69,3.3a61.16,61.16,0,0,0-.71,6.89,7.7,7.7,0,0,0,1,3.48,4,4,0,0,0,5.21,1.85A6.05,6.05,0,0,0,528.43,82a20.68,20.68,0,0,0-6.34-14.14c-.26-.27-.55-.52-1-.91a101.47,101.47,0,0,1,10.6-13.77h1.22a9.74,9.74,0,0,1-.06,1.53c-.27,2.09-.7,4.15-1,6.24S531.48,65,531.4,67a7.63,7.63,0,0,0,.48,2.73,4.61,4.61,0,0,0,7.22,2.09,6.64,6.64,0,0,0,2.37-3.47c1.23-3.82.24-7.55-1.29-11.24a18.48,18.48,0,0,0-2.24-4h8.42a5,5,0,0,0,5.55,1.34,7.22,7.22,0,0,0,2.3-1.34H666.8V93.56a52.17,52.17,0,0,0-12.24-11.68,20.37,20.37,0,0,0-5.33-2.59c-3.46-1.09-6.35,0-7.89,2.74-1.44,2.51-.87,6.75,1.29,9.63a26.5,26.5,0,0,0,7.88,6.55c4.93,3,9.9,6,14.81,9,.5.32,1,.65,1.48,1v3.21l-34.62-1.86c-.9-2.54-1.77-5.48-2.95-8.3a54.87,54.87,0,0,0-13.5-19.69,25.86,25.86,0,0,0-6.59-4.32c-3.74-1.71-7.24-1.3-10.06,1.48-2.28,2.25-2.65,5.67-1,8.87s4.43,5.35,7.34,7.14c5.47,3.35,11,6.59,16.43,10,2.12,1.31,4.1,2.89,6,4.25-.07.53-.07.66-.1.77s-.1.25-.18.26c-10.17.93-20.34,1.84-30.66,2.77-.58-1-1.26-2.1-1.83-3.23a49.38,49.38,0,0,0-12.62-16c-2.87-2.41-5.94-4.51-9.43-5.2a13.93,13.93,0,0,0-6.2.06c-2.5.68-4.55,2.39-4.54,5.58a8.46,8.46,0,0,0,4.07,7.08,55.68,55.68,0,0,0,8.28,4.23c4.31,1.83,8.71,3.37,13.05,5.13,1.78.73,3.5,1.72,5.78,2.87l-33.71,8.25c-2.21-3.05-4.14-6.14-6.46-8.87a38.43,38.43,0,0,0-13.64-10.1c-3.71-1.67-7.44-2.28-11.1-1a7.46,7.46,0,0,0-1.86.84c-4.53,3.09-4.26,8.2.85,11.4a33,33,0,0,0,8.47,3.59c4.9,1.39,9.87,2.33,14.8,3.53,1.74.43,3.45,1.06,5.89,1.83-1.41.64-2.17,1-3,1.35-6.25,2.51-12.49,5.06-18.78,7.48a20.25,20.25,0,0,1-5,1.11c-4.72.53-9.53.69-14.18,1.46a15.84,15.84,0,0,0-8.79,4.33,10.2,10.2,0,0,0-1.8,2.08c-1.72,2.95-.57,6.31,2.69,7.86a7.45,7.45,0,0,0,7.47-.13A87.5,87.5,0,0,0,523,143c3-2.32,5.6-5.14,8.73-7.19a66.42,66.42,0,0,1,10.06-5c2.72-1.18,5.6-2,8.42-2.95a5,5,0,0,1,1.41.1,24.67,24.67,0,0,1-6.37,5.87c-2.61,1.64-5.4,3-7.92,4.78A16.72,16.72,0,0,0,532.6,143c-2.65,4.16-1,9,3.68,11.35,4.36,2.2,8.17,1.57,11.3-1.62,6-6.17,8.4-14.25,8.44-23.48,0-.87-.11-1.76-.14-2.65,0-.11.09-.21.3-.68a184.62,184.62,0,0,1,30.63-7.13c-1.32,1.09-2.58,2.27-4,3.26s-3.17,1.82-4.65,2.89a99.54,99.54,0,0,0-8.92,6.9,12.58,12.58,0,0,0-3,5.08c-1.17,3.39.33,6.59,3.67,8.21,4.83,2.34,8.9,1.11,12.21-2.22,6.07-6.13,9.2-14,9.54-23.35,0-.62,0-1.24,0-2.16a161.84,161.84,0,0,1,31-3,37.62,37.62,0,0,1-3.35,3.11c-2.77,2-5.68,3.83-8.43,5.87s-5.27,4-7.75,6.22a12,12,0,0,0-2.68,3.62,7.5,7.5,0,0,0,5.64,10.85,10.81,10.81,0,0,0,6.76-1.1c5.87-2.84,9.16-8.2,11.79-14.15a31.33,31.33,0,0,0,2.54-15.13,162.66,162.66,0,0,1,35.08,1.62c-2.59,1.18-5.14,2.45-7.77,3.52-3.91,1.6-8,2.87-11.8,4.64a11.2,11.2,0,0,0-5.79,5.71,8,8,0,0,0,4,10.52,9.8,9.8,0,0,0,8.59.45,26,26,0,0,0,11.3-9.28,38.87,38.87,0,0,0,6-12.83V165a11.93,11.93,0,0,0-1.13-.89,3.88,3.88,0,0,0-5.13.17c-1.3,1.21-1.73,3.8-1,5.89a16.21,16.21,0,0,0,3.43,5.28l3.82,4.31v5.18l-16.65-6.16c-.06-1.65,0-3.53-.22-5.4a33.71,33.71,0,0,0-4.34-14,16.13,16.13,0,0,0-3.08-3.73,5.17,5.17,0,0,0-6.18-1,4.51,4.51,0,0,0-2.19,5,11.3,11.3,0,0,0,3,5.52c2.59,3,5.25,5.87,7.83,8.85,1,1.15,1.88,2.44,2.75,3.59a4.62,4.62,0,0,1-.2.42c0,.06-.11.14-.15.13l-18.5-4c-.16-.7-.36-1.46-.49-2.23a30.33,30.33,0,0,0-4.49-11.7,13.54,13.54,0,0,0-4.59-4.76,8.6,8.6,0,0,0-3.65-1.09A3.39,3.39,0,0,0,612,156.9a5.18,5.18,0,0,0,1.1,4.89,32.77,32.77,0,0,0,4.09,4c2.2,1.86,4.5,3.56,6.72,5.38.92.76,1.75,1.65,2.88,2.74l-21.29-1.28c-.74-2.2-1.31-4.36-2.18-6.38a23.44,23.44,0,0,0-6.17-8.41,9.06,9.06,0,0,0-6.32-2.63,4.76,4.76,0,0,0-1.25.15c-3.22,1-4,4-1.57,6.85a19.94,19.94,0,0,0,4.32,3.64c2.62,1.71,5.36,3.17,8,4.77.94.56,1.83,1.25,3.13,2.14-1,.12-1.46.21-2,.25-4.13.34-8.26.71-12.39,1a12.22,12.22,0,0,1-3.12-.25c-2.87-.55-5.72-1.33-8.59-1.72a9.72,9.72,0,0,0-5.94.94,6.33,6.33,0,0,0-1.44.9,3.33,3.33,0,0,0,.15,5.1,4.59,4.59,0,0,0,4.41,1.28,53.71,53.71,0,0,0,5.39-1.74c2.17-.82,4.23-2,6.43-2.63a39.12,39.12,0,0,1,6.82-1.11c1.81-.2,3.65-.16,5.48-.21a3.58,3.58,0,0,1,.81.32,15.26,15.26,0,0,1-4.8,2.29c-1.84.48-3.72.79-5.52,1.37a10.32,10.32,0,0,0-3.56,1.76c-2.31,2-2.21,5.11.09,7.34,2.16,2.07,4.52,2.4,6.93,1.09,4.67-2.52,7.52-6.83,9.22-12.24.16-.51.26-1.06.4-1.58,0-.07.09-.11.3-.35a113.51,113.51,0,0,1,19.28,1.39c-1,.4-1.93.86-2.93,1.19s-2.19.49-3.25.85a59.52,59.52,0,0,0-6.49,2.43,7.65,7.65,0,0,0-2.68,2.43,4,4,0,0,0,.65,5.49,6.05,6.05,0,0,0,7.57.91,20.66,20.66,0,0,0,9.85-12c.12-.35.22-.72.38-1.27a99.76,99.76,0,0,1,18.72,3.88,22.53,22.53,0,0,1-2.53,1.21c-2,.69-4,1.22-6,1.91s-3.82,1.41-5.68,2.25a7.36,7.36,0,0,0-2.23,1.63,4.61,4.61,0,0,0,1.34,7.4,6.58,6.58,0,0,0,4.17.58c4-.59,6.86-3.14,9.49-6.16a19.3,19.3,0,0,0,4.24-8.41,99.12,99.12,0,0,1,20.29,7.32c-1.73.22-3.46.5-5.2.66-2.59.22-5.2.23-7.77.57a6.94,6.94,0,0,0-4.44,2.3,4.93,4.93,0,0,0,.44,6.91,6,6,0,0,0,5,1.82,15.94,15.94,0,0,0,8.31-3.39A27.54,27.54,0,0,0,666.8,193V289.3c-.32-1.85-.68-3.7-1-5.55a6.89,6.89,0,0,0-.7-1.45c-2.85,1-4.31,3.6-6.8,5.19-1.44-2.28-2.71-4.61-4.28-6.72s-2.35-4.57-5.14-5.92c-3.54,4.28-4.58,9.59-6.52,14.54-2.43-1.26-4.12-3.74-7.19-4.4-2.35,6.7-1.42,13.49-1.13,20.4-5.95-3.84-11.84-7-19.6-4.74.65,1.91.93,3.63,1.77,5,5.77,9.56,13.35,17.06,24.23,20.65.92.3,1.91.36,2.84.64a7,7,0,0,1,2.64,1.11,18.84,18.84,0,0,0,14.44,5.17q3.35,8.94,6.46,17.92v55.73c-1.49-1.14-3-2.26-4.54-3.36-5.94-4.27-12-8.39-18.06-12.48a4.38,4.38,0,0,1-2.31-3.82,7.06,7.06,0,0,0-1-3.44c-2.92-4.51-4.14-9.61-5.29-14.71-2.21-9.75-7.86-17.47-14.21-24.81-.15-.17-.43-.22-.86-.44-2.53,1.88-2,5.27-3.46,7.67l-13.24-6.86c-2.08,1.12-1.84,2.59-1.64,4.07.53,3.85,1,7.71,1.59,12l-8.67-.59a68.22,68.22,0,0,0,9.41,19.14c-5.82-.71-11-.74-15.82,1.9a32.06,32.06,0,0,0-3.4,2.47,6.91,6.91,0,0,0,3.74,4.27c10.54,6,21.65,8.7,33.72,5.62a7.61,7.61,0,0,1,3.15-.34c5.37,1.08,10.45.6,15.31-2.65,1.69,1.23,3.36,2.42,5,3.64,6.17,4.58,12.29,9.24,18.51,13.75.72.52,1.42,1.05,2.11,1.59v80.83c-1.67.09-3.35.27-5,.53-8.88,1.39-16.38,5.31-21.9,12.46a43.13,43.13,0,0,0-7.81,16.93,11.94,11.94,0,0,1-.75,1.89c-1.56-7.88-3-15.83-4.78-23.7-.53-2.35-.27-3.94,1.57-5.48,4.3-3.59,8.41-7.41,12.75-10.95a39.88,39.88,0,0,0,13.43-20.19c2.23-7.62,4.11-15.35,7.18-22.72.51-1.22.46-2.68.76-4.63-4.47.85-8.3,1.45-12.07,2.32-7,1.61-14,3.52-19.69,8.25a27.31,27.31,0,0,0-8.81,12.17,38.76,38.76,0,0,0-1.45,18.53c.19,1.35.32,2.71.48,4.07-2-3.6-3.53-7.36-5.47-10.85a8.13,8.13,0,0,1-.66-7c2.6-8.06,1.86-16-1.32-23.73-3.43-8.32-9.14-14.57-17.51-18.07-7.6-3.18-15.62-4-23.8-3.36a9,9,0,0,0-2.15.81,8.65,8.65,0,0,0,.3,1.69q4.13,9.52,8.28,19c4.73,10.85,12.08,19.13,23.22,23.69,2.65,1.09,5.35,2.08,8,3.26a6,6,0,0,1,2.77,2,72.3,72.3,0,0,1,6.11,14.5,17.68,17.68,0,0,1-2.68-2.28,39.16,39.16,0,0,0-16.45-9.52c-10.09-3.05-19.11-.52-26.85,6.51-4,3.59-7.75,7.36-11.6,11.08-.23.23-.27.67-.47,1.21a10.38,10.38,0,0,0,1.65.85,51.84,51.84,0,0,1,5.62,1.6c4.79,2.06,9.53,4.26,14.24,6.49,6,2.85,12.26,4.48,18.93,3.92a69.76,69.76,0,0,0,8.1-1.33c5-1,9.89-2.27,15-1.46,3.12,8.64,5.48,29.13,3.77,33-.35-.64-.7-1.19-1-1.78a43.6,43.6,0,0,0-10.73-14.3,38.26,38.26,0,0,0-14.43-8.42c-9-2.83-17.58-1.12-25.62,3.47-5.21,3-10.3,6.14-15.43,9.25-.16.1-.16.46-.3.93.4.32.81.9,1.34,1.07A31.52,31.52,0,0,1,572,527.79c3.51,2.9,7,5.82,10.61,8.63,4,3.14,8.05,6.11,13.1,7.59A47.52,47.52,0,0,0,612,545.83a38.83,38.83,0,0,1,15.56,2.22c-1,13.36-3.74,26.31-6.26,39-.87-2.3-1.83-4.7-2.7-7.14-3.26-9.15-8.7-16.74-17.1-21.69-8.65-5.1-18-5.53-27.65-2.84-5.65,1.58-11.32,3.13-17,4.74a22.07,22.07,0,0,0-2.59,1.16,9.49,9.49,0,0,0,1.25,1.36,44.06,44.06,0,0,1,11.58,12.07c2.2,3.23,4.35,6.51,6.59,9.71,4.11,5.87,9,10.92,15.84,13.54,5.34,2,10.85,3.62,16.27,5.46,3.92,1.33,8,2.35,11,4.68-1.2,12.92-2.35,25.44-3.56,38.48-.65-1.69-1.22-3-1.66-4.29a47.47,47.47,0,0,0-41.83-32.58c-5.06-.37-10.09-1.12-15.14-1.66a13.65,13.65,0,0,0-2,.12,5.84,5.84,0,0,0,.14,1.68c2.65,5.81,5.22,11.66,8,17.39,4.6,9.35,11.2,16.91,20.39,22.07,6.67,3.75,13.94,5,21.45,5.17,3.75.08,7.5-.08,11.22-.14.64,4.23,1.11,8.38,1.85,12.46H134.92a33.82,33.82,0,0,1,11.92-4.47c.7-.1,1.29-1,2-1.54a8.65,8.65,0,0,0-1.23-1.5c-7.41-5.1-14.65-10.46-22.29-15.18-11.63-7.18-24-8.23-36.78-3.1-6.91,2.78-12.45,7.55-17.73,12.64a18.68,18.68,0,0,1-5.39,4c.67-1.77,1-2.85,1.48-3.89,4.59-10.71,10.49-20.7,16.53-30.62,1.8-3,3.95-4.29,7.41-3.46,5.83,1.39,11.76,2.46,17.53,4.07,12.65,3.51,25,3.28,37.13-2.06a116,116,0,0,1,22.62-7.48,21.09,21.09,0,0,0,4.42-1.55,11.5,11.5,0,0,0,2.21-1.95c-2.65-2.55-5.05-4.88-7.49-7.17-5-4.74-10.21-9.32-16.22-12.84C139.67,584,128,583,115.83,588.49a49.44,49.44,0,0,0-11.72,7.74c-1.4,1.19-2.86,2.31-4.71,3.79,6-9.38,11.91-18.15,17.35-27.18,1.58-2.62,3.4-3.77,6.18-3.79,5,0,9.94-.28,14.87.13,12.8,1.07,24.68-1.07,35.28-8.74,2.95-2.14,6-4.16,9.16-6,3.7-2.17,7.58-4.05,11.34-6.13,2-1.1,4.13-2.08,5.22-4.72-9.09-5.42-17.7-11.3-28-14-8.69-2.31-17.14-1.75-25.08,2.57a43.24,43.24,0,0,0-14,12.34,11.93,11.93,0,0,1-1.45,1.43c1.75-7.84,3.63-15.7,5.19-23.62.47-2.36,1.34-3.72,3.65-4.38,5.38-1.56,10.68-3.39,16.08-4.88a39.91,39.91,0,0,0,20.44-13c5.11-6.08,10-12.39,15.73-17.89,1-.92,1.5-2.27,2.56-3.94-4.42-1-8.17-2-12-2.75C175,474,167.82,473,160.68,475a27.18,27.18,0,0,0-13,7.58,38.67,38.67,0,0,0-8.8,16.36c-.37,1.32-.8,2.61-1.2,3.92-.43-4.12-.27-8.15-.64-12.13a8.15,8.15,0,0,1,2.24-6.7c5.63-6.33,8.16-13.89,8.36-22.25.22-9-2.48-17-8.72-23.6a50.79,50.79,0,0,0-20.43-12.67,8.81,8.81,0,0,0-2.29-.13,7.77,7.77,0,0,0-.41,1.66c0,6.92-.07,13.84-.1,20.76,0,11.84,3.34,22.38,11.69,31.05,2,2.06,4.05,4.06,6,6.19A6,6,0,0,1,135.1,488a72,72,0,0,1-.25,15.73,17.44,17.44,0,0,1-1.54-3.17,39.1,39.1,0,0,0-11.21-15.35c-8-6.85-17.28-8.18-27.19-4.88C89.83,482,84.84,484,79.83,485.79c-.31.12-.52.51-.93.92a10.42,10.42,0,0,0,1.17,1.44,52.79,52.79,0,0,1,4.5,3.74c3.55,3.82,7,7.74,10.4,11.68,4.35,5,9.42,9,15.75,11.23a72.94,72.94,0,0,0,8,2.05c4.93,1.09,10,1.91,14.26,4.69-.62,9.17-6.74,28.87-9.86,31.7-.06-.73-.16-1.37-.16-2a43.69,43.69,0,0,0-4-17.42,38.43,38.43,0,0,0-9.81-13.52c-7.12-6.23-15.63-8.11-24.84-7.16-6,.61-11.91,1.46-17.85,2.24-.19,0-.33.36-.65.73a4.7,4.7,0,0,0,.79,1.52,31.26,31.26,0,0,1,7.33,9.57c2,4.08,4.07,8.17,6.22,12.19,2.4,4.48,4.91,8.83,8.93,12.23a47.68,47.68,0,0,0,14.12,8.21,38.83,38.83,0,0,1,13.35,8.31c-6.35,11.8-14,22.57-21.47,33.17.13-2.45.22-5,.41-7.62.71-9.69-1.21-18.82-6.9-26.74-5.85-8.16-14.28-12.35-24.14-13.76l-11.17-1.61V238.85a13.19,13.19,0,0,0,3.57-1.12,10.89,10.89,0,0,0,5.66-6.39C63.4,228.56,62.51,226.32,60.07,225.65Zm590.14,96.41c.6,1.46,1.43,2.83,2.34,4.6-6.8-1.66-11.1-5.35-13.53-11.33-3.59-8.85-4-18-2.62-27.76.87.65,1.36,1,1.83,1.36,1.25,1,2.47,2,3.72,3,9.93,7.65,11.79,18.87,13.74,30.53l-4.61-4.67C648.84,319.06,649.64,320.65,650.21,322.06Zm-25.11,62a17.34,17.34,0,0,0,2.92,2.68c.9.69,1.93,1.22,3.41,2.13a18.91,18.91,0,0,0-2.49.12c-6.81,1.6-12.33-.77-17.32-5.3-6.39-5.79-10.33-13.13-13.79-20.82-.06-.14.13-.39.28-.79,2.22.37,4.51.65,6.74,1.14,4.78,1.05,9.39,2.54,13.3,5.65,5,3.95,8.65,9.12,12.64,14.14-1.37-.39-2.73-.85-4.12-1.15-.53-.11-1.51,0-1.62.25A2.31,2.31,0,0,0,625.1,384.08Zm-571.91,229V582.74c1.48,5.88,3.92,11.33,8.34,15.72,4.06,4,8.47,7.7,12.69,11.57,3,2.8,6.36,5.37,8.13,8.7L63.57,652.5c.09-1.81.08-3.21.22-4.59A47.58,47.58,0,0,0,53.19,613.05Zm10.58,48.67a13.4,13.4,0,0,1,2.62.69c2.63,1.45,5.24,2.93,7.86,4.4H62C62.55,665.11,63.14,663.42,63.77,661.72Zm-10.58-5.14c2.58,1.13,5.2,2.17,7.78,3.26-.64,2.36-1.32,4.67-2,7H53.19V656.58Zm565.3,10.23a108.48,108.48,0,0,1-1.37-11.87,13.22,13.22,0,0,1,2.67-.42c4.93.43,9.85,1,14.78,1.4,4,.35,8.09,1.17,12,.81a42.87,42.87,0,0,0,20.2-7v17.09Z"/></g></g></svg>