<svg xmlns="http://www.w3.org/2000/svg" viewBox="0 0 720 720"><defs><style>.cls-1{fill:#a1dffb;}</style></defs><title>layer_5</title><g id="Слой_2" data-name="Слой 2"><g id="Слой_1-2" data-name="Слой 1"><path class="cls-1" d="M0,0V720H720V0ZM467.58,666.81a131.67,131.67,0,0,1-6.2-12.27c-3.8-8.52-3.45-16.19.49-24.45a370.89,370.89,0,0,0,20-50.59c3.72-12.12,6-24.52,4.37-37.29A61.09,61.09,0,0,0,482,525.29c-5.17-11.64-15.95-11.84-24.08-7.4a25.64,25.64,0,0,0-6.11,5.1c-5.16,5.43-7.87,12.25-9.67,19.3-5,19.43-5.53,39.28-3.88,59.28.76,9.28,1.88,18.77,6.51,26.9,5.67,10,8.54,20.77,12.64,31.2q1.39,3.57,2.82,7.14h-.37a324.13,324.13,0,0,1-44.15-40.93,17.81,17.81,0,0,1-3.07-5c-5.16-12.49-9.5-25.23-11.95-38.49-.53-2.82-1-5.94-.32-8.63,2.52-10.33,4.9-20.76,8.46-30.75,4.23-11.83,9.73-23.2,14.45-34.87a215.05,215.05,0,0,0,7.93-21.8c2.65-9.39,3.38-19.1,1.07-28.83-2.47-10.39-10.12-15.61-20.82-14.45-9.21,1-15.07,6.64-19.31,14a75.72,75.72,0,0,0-9.88,33.15,200.23,200.23,0,0,0,6.94,66.55c1.42,5.18,3.29,10.27,4.3,15.52,2.15,11.17,3.86,22.42,5.74,33.58.25,0-.09.09-.2,0a20.52,20.52,0,0,1-1.42-1.67A280.94,280.94,0,0,1,353,516.79c-4.72-15.43-7.3-31-4.14-46.76,1.31-6.51,4.53-12.69,7.44-18.76.91-1.9,3.42-3.46,5.56-4.26,6-2.23,12.1-4,18.19-5.92,12.15-3.85,24.44-7.35,36.44-11.6,13.46-4.76,26-11.33,36.75-20.79,5.33-4.7,10.08-9.91,13-16.39,5.19-11.48-1.36-22.6-14.1-24a28.67,28.67,0,0,0-10.26.3c-6.85,1.8-13.89,3.57-20.13,6.7a169.83,169.83,0,0,0-46,34.39c-5.6,5.79-10.94,12-13.61,19.55C358,441.14,348,449.6,343.87,462.92a29.63,29.63,0,0,1-1-3.72,274.69,274.69,0,0,1,1.46-51.62A25.51,25.51,0,0,1,346.6,400c5.89-12.56,14-23.7,22.69-34.48a16.84,16.84,0,0,1,5.17-3.93c14-7.46,28.53-13.86,44-18.11,13-3.57,25.94-7.52,38.59-12.13,11.58-4.22,22.14-10.31,29.27-20.83,5.81-8.57,3.8-19.28-5-24.82-5.79-3.64-12.13-6.06-19-4.74A107,107,0,0,0,444,285.81c-14.64,5.66-26.44,15.5-37.58,26.07-11.66,11.06-21.15,23.85-30.47,36.88-8.3,11.61-18.11,22.15-27,32.92,2.93-20,19.09-63.59,30.26-82.41a441.06,441.06,0,0,1,31.52-46.94,20.71,20.71,0,0,1,11.76-8c11.44-2.83,22.84-5.79,34.33-8.42,22.26-5.12,41.21-15.27,55.06-33.54l1.25-1.66c.28,5.08,1.22,10.1,2,15.1a116.07,116.07,0,0,0,6.34,23.79,106.42,106.42,0,0,0,10,20.08A116,116,0,0,0,549.92,282c2.29,2.14,4.9,3.94,7.23,6.05,6.33,5.71,13.5,10.22,20.86,14.41,5,2.86,10,6,15.42,8.08a2.52,2.52,0,0,1,1.52,2.3c.14,1.93.16,3.87.17,5.8q.21,41.06.4,82.1c0,1.93,0,3.87-.12,5.81,0,.37-.37.73-.57,1.09-.23-.14-.53-.23-.61-.41a26.08,26.08,0,0,1-1-2.72c-2-6.77-5.07-13.07-8.2-19.36-4.92-9.86-11.94-18.15-19.24-26.25a40.51,40.51,0,0,0-3.78-3.38c-1.29-1.1-2.69-2.08-3.9-3.26-4.36-4.23-9.39-7.59-14.29-11.13-6.12-4.42-13-7.52-19.5-11.21a44.73,44.73,0,0,0-7.41-2.86,1.35,1.35,0,0,0-1.19.55,18.71,18.71,0,0,0-1.85,8.4c0,5.08.12,10.17-.1,15.25-.32,7.55.79,15,1.94,22.36A107.61,107.61,0,0,0,521.52,396c2.36,6.09,4.69,12.22,8.24,17.75,2.48,3.87,5.1,7.65,7.72,11.43a28.74,28.74,0,0,0,3.21,3.92q8.22,8.22,16.53,16.34a28.45,28.45,0,0,0,2.79,2.33,177.56,177.56,0,0,0,30.86,19c.87.42,1.73.87,2.6,1.29a3.69,3.69,0,0,1,2.32,3.39c.05,1.69.09,3.39.1,5.08q.2,41.06.38,82.09c0,2.18-.06,4.36-.15,6.54,0,.67-.4.86-1.1.43-1.17-3.41-2.4-7.05-3.68-10.68a81.91,81.91,0,0,0-7.2-15,132.11,132.11,0,0,0-10.83-15.41A108,108,0,0,0,558,509a163.08,163.08,0,0,0-19.44-13.95,172.66,172.66,0,0,0-20.72-10.48,1.4,1.4,0,0,0-1.78.73,42.68,42.68,0,0,0-1.53,11.47c.09,2.42-.06,4.84,0,7.26.15,7.24-.42,14.54,1.41,21.67a2.88,2.88,0,0,1,.06.72c.07,4.64,1.3,9.09,2.34,13.55a122.42,122.42,0,0,0,10.92,29.14,106.88,106.88,0,0,0,14.66,20.66,133.85,133.85,0,0,0,27,23,163.37,163.37,0,0,0,18.9,10.79c1.74.84,3.47,1.72,5.15,2.68a2.91,2.91,0,0,1,1.46,2.39c.14,2.17.21,4.35.22,6.52q.09,15.83.16,31.65H467.58ZM95.47,539.1a54.42,54.42,0,0,0-5.43-22c-3.2-6.59-8.15-11.37-14.85-13.74-5.81-2.06-11.31-1.34-15.92,3.4a14.87,14.87,0,0,0-4.56,10.91,56.73,56.73,0,0,1-.4,6.51,3.11,3.11,0,0,1-1.12,1.89V397.15a51.81,51.81,0,0,0,6.53,2.11c7.08,1.8,14.15,3.63,21.52,3.43a14.74,14.74,0,0,1,3.11.26A4.93,4.93,0,0,1,87.61,405a25.73,25.73,0,0,1,2,3.5q5.44,11.34,10.83,22.7a13.29,13.29,0,0,1,.62,1.51,1.76,1.76,0,0,1,.1.79c0,.25-.1.61-.26.69-.42.2-1.05.53-1.32.36-3.08-2-5.83-4.56-9.25-6.06-3.13-1.37-6.23-2.86-9.66-3.05-3.11-.17-6.24-.06-9.37,0a7.76,7.76,0,0,0-4.4,1.47c-.87.61-1.73,1.22-2.62,1.8-6.56,4.25-6.21,15.76-.23,19.6a36,36,0,0,1,3.74,2.94A2.88,2.88,0,0,1,68,455c-1.62,1.78-3.29,3.5-4.9,5.28a8.14,8.14,0,0,0-2,5.21,10.26,10.26,0,0,0,2.79,8.19,34.24,34.24,0,0,0,2.82,2.83,13.94,13.94,0,0,0,7.9,3.15,23.88,23.88,0,0,0,16.27-4.5A49,49,0,0,0,99.49,468c2.86-3.17,6-6.11,8.18-9.87a8,8,0,0,1,2.24-2.2,1.35,1.35,0,0,1,1.38.12,28.06,28.06,0,0,1,2.5,4.1q8.77,18.27,17.48,36.61c3.75,7.92,3.33,5.77,3.33,14.83q0,49.53,0,99.08c0,15.28,0,30.57,0,45.86,0,2.15.42,4.36-.44,6.46-.25,0-.61,0-.69-.1a27.86,27.86,0,0,1-2.08-3.38c-12.84-26.83-25.61-53.71-38.51-80.51a15.69,15.69,0,0,1-1.21-11.73C94.38,557.33,95.76,546.43,95.47,539.1Zm39.14-152.43v89.26c0,1.91,0,3.82-.15,5.72,0,.39-.43.77-.72,1.09a.94.94,0,0,1-.63-.35c-1.12-2.15-2.25-4.3-3.3-6.49q-14.18-29.65-28.31-59.32c-2.45-5.12-4.86-10.27-7.38-15.35a9.6,9.6,0,0,1-.66-7.78,77.28,77.28,0,0,0,3.82-26.53c-.08-2.18-.12-4.37,0-6.55.16-4.44-.94-8.61-2.12-12.82A32.86,32.86,0,0,0,85.42,332a18.23,18.23,0,0,0-10.53-4.84,28.46,28.46,0,0,0-5.46,0,11.8,11.8,0,0,0-9.19,5.5c-2.25,3.39-3.88,7.07-3.72,11.41a47.13,47.13,0,0,1-.39,5.68,2.89,2.89,0,0,1-2.36,1.83l-.59,0V286.89a62.05,62.05,0,0,0,18.63,12.79,74.31,74.31,0,0,0,30,6.22,23.25,23.25,0,0,0-3.29,12.42c0,1.64,0,3.28,0,4.91-.23,5.61,1.28,10.77,3.48,15.79a85.06,85.06,0,0,0,14.49,22.19c4.24,4.79,8.49,9.63,13.76,13.28a22.71,22.71,0,0,1,2.33,2.18,6.5,6.5,0,0,1,2.07,5.09C134.57,383.39,134.61,385,134.61,386.67ZM116.39,283.25c-17.16-4.25-34.44-8-51.58-12.4a107.28,107.28,0,0,1-11.62-3.57v-8.76c30.59-8.79,63.8-.32,83.81,30.85C129.93,287.25,123.24,285,116.39,283.25Zm25.89,325.62c0-14.47.05-28.93,0-43.4a22.44,22.44,0,0,1,2.27-10.2q11.82-24.48,23.44-49c2.93-6.19,3.56-5.93,7.68-.58.49.63.89,1.35,1.34,2a48.53,48.53,0,0,0,8.64,9.43c5.06,4.35,10.62,7.73,17.25,9.07a14.76,14.76,0,0,0,8.39-.58,15.31,15.31,0,0,0,9.84-10.71,8.26,8.26,0,0,0-1.06-7,15.4,15.4,0,0,0-2.52-3.1c-5-4.82-5.64-5.48,1.07-9.81a8.59,8.59,0,0,0,3.66-5.13,26.44,26.44,0,0,0,1.08-3.91,10.19,10.19,0,0,0-.32-4c-2.08-6.47-7.13-9.35-13-10.37a26.48,26.48,0,0,0-19.44,4.34c-2.2,1.45-4.31,3.06-6.51,4.52a19.14,19.14,0,0,1-2.78,1.42c-.14.06-.45-.14-.59-.31s-.34-.52-.28-.67c3.61-7.86,7.15-15.75,10.91-23.53,3.53-7.33,2.38-7.3,10.27-7.56,2.31-.08,4.6-1.16,6.9-1.18,4,0,7.75-1.08,11.51-2.08,8.63-2.31,16.81-5.72,24.12-11.24a32,32,0,0,0,10-13.35c1.05-2.44,1.32-5.25,1.9-7.9a4.21,4.21,0,0,0,0-1.62c-.84-4.28-1.61-8.6-4.53-12a14.14,14.14,0,0,0-2.86-2.72,40.44,40.44,0,0,0-4.91-2.5,5.4,5.4,0,0,0-3.82-.2l-6.78,1.91c-1,.27-2,.56-3,.75a3.88,3.88,0,0,1-4.49-3.47c-.17-2.17-.12-4.36-.28-6.54a13.89,13.89,0,0,0-.64-4c-3.28-8.58-10.66-12.39-19-9.89-6.51,2-11.41,6.47-14.88,12.53a46.19,46.19,0,0,0-5.28,15.26,66.75,66.75,0,0,0-.31,21.15,98.84,98.84,0,0,0,3.55,16.73,7.88,7.88,0,0,1-.48,6.32c-.74,1.44-1.39,2.94-2.08,4.4q-19.74,41.39-39.49,82.75c-.81,1.71-1.66,3.4-2.58,5-.22.39-.81.57-1.22.84a4.78,4.78,0,0,1-.56-1.43c-.1-1.91-.12-3.82-.12-5.73q0-72.47,0-144.94c0-1.63.07-3.27,0-4.91a6.25,6.25,0,0,1,2.75-5.56c5.5-3.79,9.8-8.95,14.53-13.63a68.1,68.1,0,0,0,9.87-12.63,61.34,61.34,0,0,0,7.77-17.76,50.65,50.65,0,0,0,1.17-13.79c-.22-7.43-2.88-13.76-8.34-18.68a13.34,13.34,0,0,0-9.24-3.81c-1.56,0-3.12,0-4.69.07a12.57,12.57,0,0,0-9,4.26c-1.43,1.56-2.5,3.47-3.83,5.13a34.15,34.15,0,0,1-3.74,4.12,2.41,2.41,0,0,1-2.17.14,6.36,6.36,0,0,1-2.46-1.9c-1.45-2-2.67-4.09-4.09-6.06,5.68-1.25,11.36-2.58,17-3.86a9,9,0,0,0,2.24-1.41,18.84,18.84,0,0,0-1.77-2.62c-5.44-5.79-11.13-11.35-16.37-17.31a74.25,74.25,0,0,0-78.75-21.8V249.5l36.29-33.19c5.7,1.49,10.82,5.6,16.18,9.22,7.42,5,14.6,10.4,22.2,15.12,9.7,6,20.63,7.37,31.83,6.95,6.12-.23,12.23-.65,18.34-1,8.83-.46,17.53.17,26,3a15,15,0,0,0,2.87.26,33.19,33.19,0,0,0-1-4.31c-3.34-8.56-6.76-17.09-10.13-25.64-5.72-14.49-15.14-25.8-29.68-31.76-14.1-5.79-28.69-5.4-43.18-.82-3.86,1.22-7.76,2.3-11.45,3.39,13.44-15.15,27-30.75,42.7-44.68a60.55,60.55,0,0,1,17.47,17.31,74.45,74.45,0,0,0,17.62,18.5c6.61,4.9,14.15,7.14,21.84,9.17,6.89,1.82,13.84,3.42,20.78,5.06a49,49,0,0,1,17.22,7.68,7.43,7.43,0,0,0,2.61.65c.45-.62.9-.95.87-1.24-1-9.33-1.82-18.68-3-28-1.89-14.36-7.84-26.63-19.89-35.2a59.91,59.91,0,0,0-24.12-10,68.28,68.28,0,0,0-28,.14c-1,.23-2,.32-3.13.49,3.17-5.78,30.94-22.21,44.65-26.48,5.8,5.53,8.86,12.89,12.32,20a110.56,110.56,0,0,0,6,11.35c5.61,8.84,13.55,15.1,22.78,19.89,7.23,3.76,14.45,7.58,21.54,11.6,2.62,1.5,4.85,3.69,7.31,5.49a16.38,16.38,0,0,0,2.62,1.27c.48-.78,1-1.23,1.06-1.75,1-8.3,2.11-16.59,2.85-24.92,1.44-16.28-3.94-29.92-17.26-39.61A61.33,61.33,0,0,0,250.83,96a25.9,25.9,0,0,1-5.38-1.19,113.06,113.06,0,0,1,23.84-6.07c1.6-.24,3.56.71,5.11,1.55,3.93,2.15,7.72,4.57,11.58,6.84,16.22,9.57,33.48,10.91,51.47,6.54,10.52-2.55,21-5.08,31.55-7.66a12.85,12.85,0,0,0,2.38-1.22,13.55,13.55,0,0,0-1-3.44c-6.94-10.79-15.53-20-26.68-26.49-12.26-7.12-25.45-8.33-39.06-4.74C292,63.45,281.38,70,273.79,80.89a12.78,12.78,0,0,1-9.38,5.83c-6.19.87-12.26,2.58-18.69,3.42,1.84-1.08,3.66-2.2,5.52-3.24C259.92,82.07,267.36,76,273,67.58a39.75,39.75,0,0,0,5.9-14.39H594.54c-4.93,7.3-9.86,14.62-13.6,22.65-2,4.39-4.09,8.76-5.83,13.29a111.1,111.1,0,0,0-7.34,30.19,15.2,15.2,0,0,1-.44,2.86,23.3,23.3,0,0,0-.71,7.2c.09,5.31-.36,10.65,1.15,15.87a21.44,21.44,0,0,1,.33,3.61,36.09,36.09,0,0,0,.52,3.59,147.9,147.9,0,0,0,12.83,36.13,166.3,166.3,0,0,0,10.61,18.17,14.81,14.81,0,0,1,2.61,8.85c-.06,10.17.06,20.34.09,30.51,0,1.21-.06,2.42-.16,3.62-.05.66-.37.88-1,.59a31.49,31.49,0,0,1-1.41-3.85,73.55,73.55,0,0,0-5.68-14.88,104.61,104.61,0,0,0-21.44-30c-3.29-3.21-6.47-6.59-10.05-9.45a147.06,147.06,0,0,0-19-13.25c-4.44-2.5-8.74-5.24-13.36-7.41a19,19,0,0,0-9.43-12.06c-5-2.71-10.41-4-15.76-2.7-7.35,1.75-14.84,3.66-21.61,6.83-22.63,10.61-37.35,29.05-48.9,50.25-5.22,9.55-9.82,19.43-14.85,29.09a58,58,0,0,1-4.81,7.21c-6.41,8.79-12.89,17.54-19.28,26.34-1.7,2.35-3.15,4.87-4.77,7.28-1.47,2.19-3,4.34-4.51,6.51-1.26-12.65-1.22-24.75-1.05-36.84a150.2,150.2,0,0,0-5.42-41.92c-2.62-9.53-6.67-18.42-13.54-25.86-8.44-9.13-20.39-11.94-31.8-7.56-6.47,2.48-10.4,7.8-9.59,14.68a50.69,50.69,0,0,0,3.9,14c3.44,8,9.14,14.61,15.35,20.65,12.89,12.51,22.66,27.26,32.37,42.1a8.7,8.7,0,0,1,1.66,3.24c1.59,13.05,3.47,26.12-2.92,38.51a254.07,254.07,0,0,0-17.09,43.15c-3.26,10.83-6.16,21.78-9.54,33.85-2.33-7.55-5.75-14.14-6.22-20.89-2.86-40.69-22.28-71.71-56.51-94.24a34.59,34.59,0,0,0-24.77-5.7c-9.32,1.46-14.59,7.31-13.93,16.55a58,58,0,0,0,3.69,15.55c5.1,13.81,16,22.2,29.06,28,22,9.77,39.83,24.67,54.93,43a15,15,0,0,1,2.92,4.22c4.56,13.41,9.3,26.62,7.64,41.27a256.52,256.52,0,0,0,5.39,88.46c1.59,6.73,3.36,13.42,5.12,20.41-6.57-5-13.46-9.16-18.92-14.67-10.67-10.78-22.13-20.45-35.18-28.17-10.5-6.2-21.61-11.11-33.95-12.23-9.27-.85-17.83,1.08-24.5,7.59-5.29,5.18-9.73,11.31-7.78,19.31,2.1,8.66,9.31,12.26,17.17,14.64a71.38,71.38,0,0,0,26.4,2.62c14.35-1.11,28.53.58,42.81,1.6,12.18.86,21.75,5.73,30.14,13.95a40.45,40.45,0,0,1,4.25,4.12c2.2,2.88,4.73,5.73,6.06,9a270,270,0,0,0,22,43.27c5.81,9.1,11.91,18,17.88,27l-.42,1.36c-4.72-2-10.06-3.17-14-6.14-11.6-8.66-23.76-15.79-37.79-20-20.88-6.25-41.73-7.75-62.75-2.49-9.09,2.27-18,5.29-25.06,11.63a23.89,23.89,0,0,0-2.79,2.94c0-.93,0-1.86,0-2.79a17.43,17.43,0,0,0-4.31-11.16,14.09,14.09,0,0,0-9.59-5,8.15,8.15,0,0,0-3.06.49c-2,.61-3.94,1.44-5.95,2a18.19,18.19,0,0,1-3.84.49,2.89,2.89,0,0,1-2.73-2.42c-.15-2.72-.25-5.45-.32-8.17a12.21,12.21,0,0,0-1.88-6.16c-2.48-4.08-5.81-7.09-10.55-7.66-7.56-.92-13.83,2.15-18.9,7.75a27.83,27.83,0,0,0-5.74,9.68c-2.09,6.18-3.87,12.45-3.61,19.14.09,2.18,0,4.37,0,6.55a58.53,58.53,0,0,0,1.1,10.53c.95,4.81,1.85,9.61,3.21,14.3a7.42,7.42,0,0,1-.49,5.55c-.71,1.46-1.38,2.94-2.08,4.41l-13.83,29H142.28ZM77.69,83.7c9.34,6,17.44,11.71,24.79,18.45,18.52,17,23.78,42.46,12.52,65.91-6.09,12.69-14,24.1-22.17,36.56C105.88,161.88,101.5,122.11,77.69,83.7ZM93.08,214.46c35.72-9.61,83.55,5.36,106.55,29.91-8.58-2.13-17.12-1.89-25.69-1.31-5.5.37-11,.73-16.51.7-15-.07-28.39-4.87-40.46-13.67C109.59,224.7,103.23,217.81,93.08,214.46ZM191,53.19a2.26,2.26,0,0,0,.11.22c7.28,15.12,7.42,30.53-.4,45.37-7.21,13.69-18.58,24-30.19,34.09,7.34-17.22,12.51-34.93,13.94-53.61a141.71,141.71,0,0,0-.36-26.07Zm84.46,0A39.4,39.4,0,0,1,270,65.72c-8.79,13.39-22.92,19.42-36.74,25.88,9.89-12,17.93-24.73,23.44-38.41Zm12.15,112a10.52,10.52,0,0,1-1.77-.54c-7.7-4.1-15.32-8.38-23.11-12.31-11.7-5.91-20.48-14.33-25.5-26.71-2.73-6.73-4.93-13.89-11.25-19.76C247.69,109.93,280.54,139.21,287.58,165.18ZM195,53.19h30.86a64.63,64.63,0,0,0-2,13.91c-.31,8.75-1.18,17.48-1.6,26.23-.18,3.76-1.92,5.58-5.34,7.13-11.49,5.24-22.77,11-34.07,16.45a18.27,18.27,0,0,1,1.66-2.72,67.43,67.43,0,0,0,13.71-25.73C201.6,76.21,200.16,64.43,195,53.19Zm8.31,80.4c18.79,3.17,32.92,12.57,40.37,30.65,4,9.75,4.51,20.07,4.39,30.43-20-30.73-48.37-48-85-54.06C176.64,134.46,189.52,131.26,203.32,133.59Zm73.86-45c.16-.49.33-1,.49-1.46,28.69-4.09,57-3.32,84.8,6.24a11.34,11.34,0,0,1-4,1.65c-10,2.1-19.95,4.1-29.9,6.28a48.1,48.1,0,0,1-28.8-2.13C292.06,96.08,284.69,92.15,277.18,88.59ZM219.9,666.81c-2-5.26-5.23-9.22-10.81-10.53-1.27-.29-2.5-.79-3.78-1a8.11,8.11,0,0,0-3.1-.1c-6.38,1.37-12.77,2.74-18.12,7.06a43.73,43.73,0,0,1-3.94,2.65.91.91,0,0,1-.71.15,1,1,0,0,1-.41-1.41q5.76-12.09,11.52-24.17a4.18,4.18,0,0,1,2.81-2.54c3.39-.23,6.68-1.34,10-1.51a72.58,72.58,0,0,0,12.31-2.06c10-2.24,19.47-6.15,27.26-13.41a31.82,31.82,0,0,0,5.19-6.15c.9,5.15,4.42,10,10.41,13.23,14.5,7.92,29.43,9.78,44.87,3.55,4.54-1.83,9.18-3.44,13.63-5.46,19.24-8.69,39.75-11.08,60.61-9.45,12.68,1,24.3,6.24,33,16.39a311,311,0,0,0,35,34.78ZM666.81,354.63a135.5,135.5,0,0,0-12.75,7.89c-6.75,4.73-13.3,9.68-19,15.69-2.66,2.82-5.4,5.56-8.08,8.36a35.51,35.51,0,0,0-2.89,3.25c-7.45,9.94-13.75,20.49-17.34,32.48-.76,2.55-1.67,5.06-2.57,7.56-.12.34-.59.55-1.09,1a36.47,36.47,0,0,1-.33-6.63q-.21-42.14-.4-84.27c0-1.69,0-3.39.07-5.08a3,3,0,0,1,1.9-2.83c10.3-4.43,19.61-10.51,28.69-17a111.83,111.83,0,0,0,15-12.54,127.63,127.63,0,0,0,11.62-12.95c2.46-3.31,4.82-6.65,7-10.13l.12-.2v75.38Zm-63.21,232c-.06-1.46-.06-2.91-.07-4.36q-.21-42.13-.4-84.28a53.28,53.28,0,0,1,.24-5.79,2.82,2.82,0,0,1,1.11-1.75,20.27,20.27,0,0,1,3.14-1.8c4.56-2.25,9-4.75,13.38-7.3,10.32-6,19.44-13.51,28.37-21.31a38.76,38.76,0,0,0,4.55-4.69c3.05-3.75,5.94-7.64,8.94-11.42,1.42-1.79,2.73-3.64,3.95-5.54v74.37q-3.31,1.88-6.56,3.88a158.27,158.27,0,0,0-25.16,19.56,117.9,117.9,0,0,0-9.6,10.86,89.1,89.1,0,0,0-9.39,13.78c-4.78,8.71-9,17.68-11.27,27.45-.14.61-.54.74-.94.37C603.8,588.07,603.64,587.37,603.6,586.66ZM666.81,196.3a163.35,163.35,0,0,0-18.66,12A146.42,146.42,0,0,0,635.34,219a121.63,121.63,0,0,0-14.41,16.29A96.55,96.55,0,0,0,609.07,256c-2.09,5.16-3.8,10.45-5.68,15.69-.09.25-.6.35-.92.52-.7-1.67-.43-3.39-.44-5.06q-.12-16.35-.17-32.7c0-6.78,0-13.56-.11-20.34A10.53,10.53,0,0,1,603.5,208c.54-.8,1.13-1.57,1.64-2.39,5.37-8.64,10.57-17.35,14.21-26.91,3-7.92,5.92-15.85,7.24-24.27,1.45-3.65,1.24-7.62,2-11.41s.34-7.71.44-11.58c0-.25,0-.49,0-.73.43-6.35-.89-12.54-2-18.71a98.52,98.52,0,0,0-3.12-12.65A161.12,161.12,0,0,0,613.25,73.9a146.24,146.24,0,0,0-10.79-18.06c-.67-.91-1.39-1.79-2.12-2.66h66.47V196.3ZM146.93,53.19c-.52,1.33-1.06,2.65-1.6,4-7.83,18.91-6.8,37.77-.54,56.85,2.42,7.34,3.83,15,5.58,22.57,1,4.24-.11,7.42-3.53,10.78-11.76,11.55-23,23.66-35.07,36.24,1.59-3.35,2.75-6,4.07-8.55a77.57,77.57,0,0,0,7.53-20.62c3.93-20.43-1.87-37.89-16.1-52.79-7.52-7.87-16.37-14.07-25.4-20-4.37-2.88-8.79-5.69-13.62-8.8-1,1.72-1.92,2.82-2.17,4.06a33.25,33.25,0,0,0-.76,7.29,181.07,181.07,0,0,1-3.19,37.12c-3.73,20.41.38,39.27,10.31,57.24,4.53,8.21,8.3,16.84,12.54,25.21,2.51,5,1.26,8.71-2.59,12.52-9.47,9.38-19,18.65-29.2,27.21v-27.7c0-.26.09-.53.13-.8a66.79,66.79,0,0,0-.13-21.7V53.19ZM53.19,573.67a98.15,98.15,0,0,0,16.62,4.07c4.22-.28,8.18,1.55,12.36,1.67a4.16,4.16,0,0,1,3.68,2.65q5.41,11.34,10.75,22.73a1.16,1.16,0,0,1,0,.8c-.08.24-.38.61-.49.58a8.24,8.24,0,0,1-2.81-1c-4.25-3.38-9.22-4.92-14.19-6.61-4.79-1.62-9.29-.95-13.69,1a14.76,14.76,0,0,0-8.64,10.9,9.14,9.14,0,0,0,.2,4,13.38,13.38,0,0,0,4.78,7.29c1.44,1.15,3,2.19,4.35,3.4a1.57,1.57,0,0,1,.2,1.47,30.86,30.86,0,0,1-2.41,3.15,50,50,0,0,0-4.1,4.9,7.45,7.45,0,0,0-.67,7.74c.74,1.44,1.31,3,2.12,4.37a8.42,8.42,0,0,0,2.09,2.39,17.87,17.87,0,0,0,17,2.94,35.46,35.46,0,0,0,14-8.56c4.21-4.06,8.38-8.2,11.57-13.26.79-1.24,2.3-.93,3.1.57.26.47.51,1,.74,1.44q8.24,17.24,16.48,34.47H53.19V573.67Zm550.75,93.14q0-5-.05-10.08c0-1.93,0-3.87.08-5.81a3.93,3.93,0,0,1,2.28-3.45c1.5-.8,3-1.55,4.55-2.28a141.63,141.63,0,0,0,21.79-13,127.31,127.31,0,0,0,16.17-13.41c1.7-1.73,3.4-3.46,5.11-5.17a91.83,91.83,0,0,0,12.94-16.29v69.51Z"/></g></g></svg>